# 3ds Max Wavefront OBJ Exporter v0.97b - (c)2007 guruware
# File Created: 23.03.2018 13:56:31

mtllib Ground up methamphetamine.mtl

#
# object Meth
#

v  -1.4764 0.0000 0.9350
v  -1.4764 0.0000 1.8701
v  -0.7382 0.0000 1.8701
v  -0.7382 0.0497 0.9350
v  0.0000 0.0000 1.8701
v  0.0000 0.1331 0.9350
v  0.7382 0.0000 1.8701
v  0.7382 0.1490 0.9350
v  1.4764 0.0000 1.8701
v  1.4764 0.0000 0.9350
v  -1.4764 0.0000 -0.0000
v  -0.7382 0.0685 -0.0000
v  0.0000 0.1956 -0.0000
v  0.7382 0.0162 -0.0000
v  1.4764 0.0008 -0.0000
v  -1.4764 0.0000 -0.9350
v  -0.7382 0.0915 -0.9350
v  0.0000 0.0579 -0.9350
v  0.7382 0.0908 -0.9350
v  1.4764 0.0000 -0.9350
v  -1.4764 0.0000 -1.8701
v  -0.7382 0.0000 -1.8701
v  0.0000 0.0009 -1.8701
v  0.7382 0.0048 -1.8701
v  1.4764 0.0000 -1.8701
# 25 vertices

vn -0.0671 0.9977 -0.0000
vn 0.0000 1.0000 -0.0000
vn 0.0000 0.9986 0.0530
vn -0.0897 0.9953 0.0364
vn 0.0000 0.9900 0.1410
vn -0.0666 0.9924 0.1035
vn 0.0000 0.9875 0.1574
vn 0.0878 0.9961 0.0084
vn 0.1979 0.9802 0.0004
vn -0.0924 0.9957 -0.0000
vn -0.1311 0.9911 0.0222
vn 0.0334 0.9987 -0.0392
vn 0.1283 0.9913 -0.0303
vn 0.0209 0.9998 -0.0000
vn -0.1230 0.9924 -0.0000
vn -0.0387 0.9986 -0.0363
vn 0.0005 0.9947 -0.1032
vn 0.0387 0.9992 -0.0060
vn 0.1220 0.9925 -0.0004
vn -0.0006 0.9952 -0.0974
vn -0.0032 0.9981 -0.0608
vn 0.0006 0.9958 -0.0915
vn 0.0065 1.0000 -0.0000
# 23 vertex normals

vt 0.0009 0.2495 -0.2500
vt 0.0015 0.0005 0.2500
vt 0.1980 0.0009 -0.2500
vt 0.1979 0.2499 -0.2500
vt 0.3944 0.0012 -0.2500
vt 0.3943 0.2514 -0.2500
vt 0.5914 0.0018 -0.2500
vt 0.5888 0.2527 -0.2500
vt 0.7884 0.0017 -0.2500
vt 0.7885 0.2512 -0.2500
vt 0.0005 0.4987 -0.2500
vt 0.1979 0.4986 -0.2500
vt 0.3956 0.4972 -0.2500
vt 0.5949 0.5012 -0.2500
vt 0.7906 0.5007 -0.2500
vt 0.0010 0.7481 -0.2500
vt 0.1988 0.7472 -0.2500
vt 0.3957 0.7473 -0.2500
vt 0.5922 0.7489 -0.2500
vt 0.7899 0.7501 -0.2500
vt 0.0015 0.9974 0.2500
vt 0.1983 0.9970 -0.2500
vt 0.3948 0.9974 -0.2500
vt 0.5915 0.9983 -0.2500
vt 0.7883 0.9995 -0.2500
# 25 texture coords

o Meth
g Meth
usemtl wire_184155229
s 1
f 1/1/1 2/2/2 3/3/3 4/4/4 
f 4/4/4 3/3/3 5/5/5 6/6/6 
f 6/6/6 5/5/5 7/7/7 8/8/8 
f 8/8/8 7/7/7 9/9/2 10/10/9 
f 11/11/10 1/1/1 4/4/4 12/12/11 
f 12/12/11 4/4/4 6/6/6 13/13/12 
f 13/13/12 6/6/6 8/8/8 14/14/13 
f 14/14/13 8/8/8 10/10/9 15/15/14 
f 16/16/15 11/11/10 12/12/11 17/17/16 
f 17/17/16 12/12/11 13/13/12 18/18/17 
f 18/18/17 13/13/12 14/14/13 19/19/18 
f 19/19/18 14/14/13 15/15/14 20/20/19 
f 21/21/2 16/16/15 17/17/16 22/22/20 
f 22/22/20 17/17/16 18/18/17 23/23/21 
f 23/23/21 18/18/17 19/19/18 24/24/22 
f 24/24/22 19/19/18 20/20/19 25/25/23 
# 16 polygons

