# 3ds Max Wavefront OBJ Exporter v0.97b - (c)2007 guruware
# File Created: 23.03.2018 15:51:22

mtllib hair net.mtl

#
# object hairnet_plane
#

v  2.5460 -0.0000 2.2845
v  2.5460 -0.0000 -2.2845
v  -2.5460 -0.0000 -2.2845
v  -2.5460 -0.0000 2.2845
# 4 vertices

vn 0.0000 1.0000 0.0000
# 1 vertex normals

vt 0.9995 0.0005 0.7569
vt 0.9995 0.8969 -0.7569
vt 0.0005 0.8969 -0.7569
vt 0.0005 0.0005 0.7569
# 4 texture coords

o hairnet_plane
g hairnet_plane
usemtl initialShadingGroup
s off
f 1/1/1 2/2/1 3/3/1 4/4/1 
# 1 polygons

