# 3ds Max Wavefront OBJ Exporter v0.97b - (c)2007 guruware
# File Created: 01.02.2018 10:39:46

mtllib Floor and walls.mtl

#
# object Free_Guy_room_walls_and_floor_
#

v  -173.9908 0.0000 -75.5656
v  -173.9908 0.0000 1.7696
v  -69.7931 0.0000 1.7696
v  -69.5838 0.0000 -75.5656
v  -177.1654 4.1962 -78.7402
v  -177.1654 4.1962 1.8439
v  -173.9908 4.1962 1.7696
v  -173.9908 4.1962 -75.5656
v  -177.1654 4.1962 78.7402
v  -70.0353 4.1962 78.7402
v  -69.9929 4.1962 75.5656
v  -173.9908 4.1962 75.5656
v  177.1654 4.1962 78.7402
v  177.1654 4.1962 40.5079
v  173.9908 4.1962 40.3497
v  173.9908 4.1962 75.5656
v  177.1654 4.1962 -78.7402
v  -30.0220 4.1962 -78.7402
v  -29.4840 4.1962 -75.5656
v  173.9908 4.1962 -75.5656
v  -173.9908 0.0000 75.5656
v  -173.9908 0.0000 39.8445
v  -173.9908 4.1962 39.8445
v  -69.5838 4.1962 -75.5656
v  173.9908 0.0000 -75.5656
v  173.9908 -0.0000 1.7884
v  173.9908 4.1962 1.7884
v  173.9908 0.0000 75.5656
v  -29.4840 0.0000 75.5656
v  -29.4840 4.1962 75.5656
v  -177.1654 4.1962 41.5183
v  -177.1654 94.6463 41.5183
v  -177.1654 94.6463 78.7402
v  -30.0220 4.1962 78.7402
v  -30.0220 94.6463 78.7402
v  177.1654 94.6463 78.7402
v  177.1654 4.1962 1.8062
v  177.1654 94.6463 1.8439
v  177.1654 94.6463 -78.7402
v  -70.8534 4.1962 -78.7402
v  -70.8534 94.6463 -78.7402
v  -177.1654 94.6463 -78.7402
v  173.9908 -0.0000 40.3497
v  -29.4840 0.0000 39.8445
v  -29.4840 0.0000 -75.5656
v  -70.8534 94.6463 78.7402
v  -30.0220 94.6463 -78.7402
v  -69.9929 0.0000 75.5656
v  -69.8962 0.0000 39.8445
v  -30.0220 0.2691 78.7402
v  -70.0353 0.2691 78.7402
v  -177.1654 94.6463 1.8439
v  177.1654 94.6463 41.5183
v  -29.4840 0.0000 1.7696
v  177.1654 0.7755 1.8062
v  177.1654 0.7756 40.5079
# 56 vertices

vn 0.0000 1.0000 -0.0000
vn -0.0000 1.0000 -0.0000
vn 0.0000 1.0000 0.0000
vn 1.0000 0.0000 -0.0000
vn 0.0000 0.0000 1.0000
vn -1.0000 0.0000 0.0000
vn 0.0000 0.0000 -1.0000
vn -1.0000 -0.0000 0.0000
vn 0.0000 -0.0000 1.0000
vn 0.0000 0.9964 -0.0845
vn -0.9859 0.0000 -0.1671
vn 0.9999 0.0000 0.0134
vn -1.0000 0.0000 -0.0000
vn -1.0000 -0.0000 -0.0000
vn -0.2373 0.9714 -0.0000
vn -0.0056 0.0000 1.0000
vn 0.0498 0.0000 -0.9988
# 17 vertex normals

vt 0.3599 0.7433 0.7378
vt 0.3599 0.6038 -0.7624
vt 0.5479 0.6038 -0.7624
vt 0.5483 0.7433 -0.7624
vt 0.0005 0.9928 0.7902
vt 0.0008 0.9135 -0.7902
vt 0.0040 0.9136 -0.7902
vt 0.0036 0.9897 -0.7902
vt 0.0012 0.8379 -0.7902
vt 0.1064 0.8385 -0.7902
vt 0.1065 0.8416 -0.7902
vt 0.0043 0.8411 -0.7902
vt 0.6478 0.1012 0.4595
vt 0.6499 0.1383 -0.4595
vt 0.6468 0.1387 -0.4595
vt 0.6449 0.1044 -0.4595
vt 0.3284 0.9976 -0.7902
vt 0.1454 0.9934 -0.7902
vt 0.1459 0.9902 -0.7902
vt 0.3253 0.9944 -0.7902
vt 0.4428 0.0950 0.2991
vt 0.4780 0.0950 -0.3573
vt 0.4780 0.0991 -0.3573
vt 0.4428 0.0991 -0.3573
vt 0.5919 0.0954 0.2991
vt 0.6880 0.0954 -0.3573
vt 0.6880 0.0993 -0.3573
vt 0.5919 0.0992 -0.3573
vt 0.9170 0.0949 0.2991
vt 0.9920 0.0943 -0.3573
vt 0.9921 0.0984 -0.3573
vt 0.9170 0.0989 -0.3573
vt 0.2028 0.0960 0.0735
vt 0.0037 0.0983 -0.0878
vt 0.0037 0.0942 -0.0878
vt 0.2028 0.0920 -0.0878
vt 0.8400 0.0047 -0.2369
vt 0.8796 0.0034 -0.8640
vt 0.8796 0.0936 -0.8640
vt 0.8399 0.0935 -0.8640
vt 0.4845 0.0041 -0.8640
vt 0.6956 0.0044 -0.8640
vt 0.6955 0.0932 -0.8640
vt 0.4841 0.0915 0.8640
vt 0.3325 0.0035 -0.2369
vt 0.4103 0.0038 -0.8640
vt 0.4099 0.0911 -0.8640
vt 0.3321 0.0908 -0.8640
vt 0.0005 0.0061 -0.2369
vt 0.0986 0.0061 -0.8640
vt 0.0986 0.0896 -0.8640
vt 0.0005 0.0896 -0.8640
vt 0.6207 0.4706 -0.7624
vt 0.9878 0.4706 -0.7624
vt 0.9878 0.5341 -0.7624
vt 0.6207 0.5351 -0.7624
vt 0.4581 0.1012 0.4595
vt 0.4587 0.1044 -0.4595
vt 0.1052 0.9932 -0.7902
vt 0.1064 0.9901 -0.7902
vt 0.7249 0.0954 -0.3573
vt 0.7249 0.0993 -0.3573
vt 0.7349 0.0045 -0.8640
vt 0.7355 0.0933 -0.8640
vt 0.1363 0.0061 -0.8640
vt 0.1363 0.0896 -0.8640
vt 0.5476 0.4706 -0.7624
vt 0.5478 0.5351 -0.7624
vt 0.3289 0.0946 -0.3573
vt 0.3289 0.0991 0.3573
vt 0.6956 0.0006 -0.8640
vt 0.7349 0.0006 -0.8640
vt 0.5475 0.4649 -0.7624
vt 0.6197 0.4649 -0.7624
vt 0.0005 0.0981 -0.0878
vt 0.0005 0.0942 0.0878
vt 0.3254 0.0991 -0.3573
vt 0.3254 0.0949 -0.3573
vt 0.3599 0.5351 -0.7624
vt 0.3599 0.4706 -0.7624
vt 0.0010 0.8745 -0.7902
vt 0.0041 0.8762 -0.7902
vt 0.5156 0.0950 -0.3573
vt 0.5156 0.0991 -0.3573
vt 0.2364 0.0960 0.0735
vt 0.2364 0.0920 -0.0878
vt 0.9192 0.0034 -0.8640
vt 0.9192 0.0936 -0.8640
vt 0.4476 0.0040 -0.8640
vt 0.4482 0.0913 -0.8640
vt 0.9878 0.6037 -0.7624
vt 0.6207 0.6038 -0.7624
vt 0.3302 0.9178 0.7902
vt 0.3271 0.9178 -0.7902
vt 0.9995 0.0034 -0.2369
vt 0.9995 0.0936 -0.8640
vt 0.9878 0.7433 -0.7624
vt 0.6207 0.7433 -0.7624
vt 0.4103 0.0005 -0.8640
vt 0.4476 0.0007 -0.8640
vt 0.9937 0.5339 -0.7624
vt 0.9937 0.6037 0.7624
vt 0.9953 0.0945 0.3099
vt 0.9951 0.0984 -0.3573
vt 0.2394 0.0920 -0.0878
vt 0.2394 0.0957 -0.0878
# 106 texture coords

g Free_Guy_room_walls_and_floor_
usemtl Floor_and_Walls
s 1
f 1/1/1 2/2/2 3/3/1 4/4/2 
s off
f 5/5/1 6/6/1 7/7/1 8/8/1 
f 9/9/3 10/10/3 11/11/3 12/12/3 
f 13/13/3 14/14/3 15/15/3 16/16/3 
f 17/17/1 18/18/1 19/19/1 20/20/1 
f 21/21/4 22/22/4 23/23/4 12/24/4 
f 1/25/5 4/26/5 24/27/5 8/28/5 
f 25/29/6 26/30/6 27/31/6 20/32/6 
f 28/33/7 29/34/7 30/35/7 16/36/7 
f 9/37/4 31/38/4 32/39/4 33/40/4 
f 13/41/7 34/42/7 35/43/7 36/44/7 
f 17/45/8 37/46/8 38/47/8 39/48/8 
f 5/49/9 40/50/9 41/51/9 42/52/9 
s 1
f 29/53/1 28/54/1 43/55/1 44/56/1 
s off
f 34/57/1 13/13/1 16/16/1 30/58/1 
f 18/18/1 40/59/1 24/60/1 19/19/1 
f 45/61/5 25/29/5 20/32/5 19/62/5 
f 34/42/7 10/63/7 46/64/7 35/43/7 
f 18/65/9 17/45/9 39/48/9 47/66/9 
s 1
f 48/67/1 29/53/1 44/56/1 49/68/1 
s off
f 4/26/5 45/61/5 19/62/5 24/27/5 
f 40/50/9 18/65/9 47/66/9 41/51/9 
f 40/59/1 5/5/1 8/8/1 24/60/1 
f 48/69/7 21/21/7 12/24/7 11/70/7 
f 10/63/7 9/37/7 33/40/7 46/64/7 
f 10/63/7 34/42/7 50/71/7 51/72/7 
f 51/73/10 50/74/10 29/53/10 48/67/10 
f 30/35/11 29/34/11 50/75/11 34/76/11 
f 10/77/12 51/78/12 48/69/12 11/70/12 
s 1
f 22/79/2 21/80/2 48/67/1 49/68/1 
s off
f 31/81/1 9/9/1 12/12/1 23/82/1 
f 22/22/4 2/83/4 7/84/4 23/23/4 
f 43/85/13 28/33/13 16/36/13 15/86/13 
f 31/38/4 6/87/4 52/88/4 32/39/4 
f 14/89/13 13/41/13 36/44/13 53/90/13 
s 1
f 43/55/1 26/91/1 54/92/3 44/56/1 
f 44/56/1 54/92/3 3/3/1 49/68/1 
f 2/2/2 22/79/2 49/68/1 3/3/1 
s off
f 6/6/1 31/81/1 23/82/1 7/7/1 
f 37/46/14 14/89/14 53/90/14 38/47/14 
f 37/93/3 17/17/3 20/20/3 27/94/3 
f 2/83/4 1/25/4 8/28/4 7/84/4 
f 6/87/4 5/95/4 42/96/4 52/88/4 
s 1
f 26/91/1 25/97/3 45/98/1 54/92/3 
f 54/92/3 45/98/1 4/4/2 3/3/1 
s off
f 14/89/13 37/46/13 55/99/13 56/100/13 
f 56/101/15 55/102/15 26/91/15 43/55/15 
f 26/30/16 55/103/16 37/104/16 27/31/16 
f 14/105/17 56/106/17 43/85/17 15/86/17 
# 49 polygons

