# 3ds Max Wavefront OBJ Exporter v0.97b - (c)2007 guruware
# File Created: 11.02.2018 19:11:02

mtllib door.mtl

#
# object Doors
#

v  195.8947 31.8880 14.9112
v  195.8947 31.8880 26.5914
v  195.8947 77.4702 26.5914
v  195.8947 77.4702 14.9112
v  201.7240 27.9733 50.0157
v  201.7240 81.3848 50.0157
v  195.2208 81.3848 50.0157
v  195.2208 27.9733 50.0157
v  201.7240 81.3848 30.5061
v  195.2208 81.3848 30.5061
v  201.7240 81.3848 10.9965
v  201.7240 27.9733 10.9965
v  195.2208 27.9733 10.9965
v  195.2208 81.3848 10.9965
v  195.8947 31.8880 34.4208
v  195.8947 31.8880 46.1010
v  195.8947 77.4702 46.1010
v  195.8947 77.4702 34.4208
v  195.2208 27.9733 30.5061
v  195.2208 31.8880 26.5914
v  195.2208 31.8880 14.9112
v  195.2208 77.4702 26.5914
v  195.2208 77.4702 14.9112
v  195.2208 31.8880 46.1010
v  195.2208 31.8880 34.4208
v  195.2208 77.4702 46.1010
v  195.2208 77.4702 34.4208
# 27 vertices

vn -0.5774 0.5774 0.5774
vn -0.5774 0.5774 -0.5774
vn -0.5774 -0.5774 -0.5774
vn -0.5774 -0.5774 0.5774
vn -0.0000 0.0000 1.0000
vn -0.0000 0.7071 0.7071
vn -0.7071 -0.0000 0.7071
vn -0.0000 1.0000 -0.0000
vn -0.7071 0.7071 -0.0000
vn 0.0000 0.7071 -0.7071
vn 0.0000 0.0000 -1.0000
vn -0.7071 -0.0000 -0.7071
vn -1.0000 -0.0000 -0.0000
vn -0.9045 0.3015 -0.3015
vn -0.9045 0.3015 0.3015
vn -0.9045 -0.3015 -0.3015
vn -0.9045 -0.3015 0.3015
# 17 vertex normals

vt 0.1714 0.0005 0.0000
vt 0.2513 0.0005 0.0000
vt 0.2513 0.3121 0.0000
vt 0.1714 0.3121 0.0000
vt 0.0005 0.9995 -0.2486
vt 0.0005 0.6344 -0.2486
vt 0.0450 0.6344 -0.2486
vt 0.0449 0.9995 -0.2486
vt 0.0005 0.5011 -0.2486
vt 0.0450 0.5011 -0.2486
vt 0.0005 0.3677 0.2486
vt 0.0005 0.0027 0.2486
vt 0.0450 0.0027 -0.2486
vt 0.0450 0.3677 -0.2486
vt 0.2536 0.0005 0.0000
vt 0.3335 0.0005 0.0000
vt 0.3335 0.3121 0.0000
vt 0.2536 0.3121 0.0000
vt 0.0459 0.0005 0.0263
vt 0.1701 0.0023 -0.0263
vt 0.1474 0.0211 -0.0263
vt 0.0659 0.0230 -0.0263
vt 0.1701 0.3653 -0.0263
vt 0.1494 0.3438 -0.0263
vt 0.0459 0.3733 0.0263
vt 0.0682 0.3534 -0.0263
vt 0.0459 0.3806 -0.0263
vt 0.1701 0.3726 0.0263
vt 0.1479 0.3926 -0.0263
vt 0.0666 0.4021 -0.0263
vt 0.1701 0.7454 0.0263
vt 0.1501 0.7229 -0.0263
vt 0.0459 0.7436 -0.0263
vt 0.0687 0.7248 -0.0263
vt 0.1437 0.0250 -0.0263
vt 0.0700 0.0264 -0.0263
vt 0.1452 0.3407 -0.0263
vt 0.0717 0.3492 -0.0263
vt 0.1443 0.3967 -0.0263
vt 0.0708 0.4052 -0.0263
vt 0.1461 0.7196 -0.0263
vt 0.0724 0.7209 -0.0263
# 42 texture coords

o Doors
g Doors
usemtl wire_115115115
s 4
f 1/1/1 2/2/2 3/3/3 4/4/4 
s 16
f 5/5/5 6/6/6 7/7/1 8/8/7 
s 32
f 6/6/6 9/9/8 10/10/9 7/7/1 
s 64
f 11/11/10 12/12/11 13/13/12 14/14/2 
s 4
f 15/15/1 16/16/2 17/17/3 18/18/4 
s 32
f 9/9/8 11/11/10 14/14/2 10/10/9 
s off
f 13/19/12 19/20/13 20/21/14 21/22/15 
f 19/20/13 10/23/9 22/24/16 20/21/14 
f 10/23/9 14/25/2 23/26/17 22/24/16 
f 14/25/2 13/19/12 21/22/15 23/26/17 
f 19/27/13 8/28/7 24/29/14 25/30/15 
f 8/28/7 7/31/1 26/32/16 24/29/14 
f 7/31/1 10/33/9 27/34/17 26/32/16 
f 10/33/9 19/27/13 25/30/15 27/34/17 
f 21/22/15 20/21/14 2/35/2 1/36/1 
f 20/21/14 22/24/16 3/37/3 2/35/2 
f 22/24/16 23/26/17 4/38/4 3/37/3 
f 23/26/17 21/22/15 1/36/1 4/38/4 
f 25/30/15 24/29/14 16/39/2 15/40/1 
f 24/29/14 26/32/16 17/41/3 16/39/2 
f 26/32/16 27/34/17 18/42/4 17/41/3 
f 27/34/17 25/30/15 15/40/1 18/42/4 
# 22 polygons

