# 3ds Max Wavefront OBJ Exporter v0.97b - (c)2007 guruware
# File Created: 27.03.2018 21:44:17

mtllib Warehouse.mtl

#
# object Warehouse
#

v  -75.3960 0.0000 233.0377
v  147.0770 0.0000 233.0377
v  146.6759 0.0000 0.2146
v  -74.9949 0.0000 0.2146
v  -76.3643 393.7008 0.2146
v  148.0452 393.7008 0.2146
v  148.0452 332.3072 236.4351
v  -76.3642 332.3072 236.4351
v  -75.3924 5.9198 233.0503
v  147.0733 5.9198 233.0503
v  392.0201 0.0000 233.0377
v  392.0075 5.9198 233.0503
v  390.7170 5.9062 0.2146
v  390.7170 0.0000 0.2146
v  147.0733 5.9198 -232.6211
v  -75.3924 5.9198 -232.6211
v  -75.3960 0.0000 -232.6085
v  147.0769 0.0000 -232.6085
v  -388.5866 0.0000 -232.6085
v  -388.5741 5.9198 -232.6211
v  -387.2835 5.9062 0.2146
v  -387.2835 0.0000 0.2146
v  -76.3643 332.3072 -236.0059
v  148.0452 332.3072 -236.0059
v  392.0075 5.9198 -232.6211
v  392.0201 0.0000 -232.6085
v  -388.5741 5.9198 233.0503
v  -388.5866 0.0000 233.0377
v  142.7861 252.1250 236.4351
v  142.7860 155.2668 236.4351
v  -71.1051 155.2668 236.4351
v  -71.1051 252.1250 236.4351
v  395.4175 150.0077 236.4351
v  395.4175 257.3842 236.4351
v  395.4175 304.2803 0.2146
v  395.4175 176.1267 0.2146
v  -71.1051 252.1250 -236.0059
v  -71.1051 155.2668 -236.0059
v  142.7860 155.2668 -236.0059
v  142.7860 252.1250 -236.0059
v  -391.9840 150.0077 -236.0059
v  -391.9840 257.3842 -236.0059
v  -391.9840 304.2803 0.2146
v  -391.9840 176.1267 0.2146
v  395.4175 257.3842 -236.0059
v  395.4175 150.0077 -236.0059
v  -391.9840 257.3842 236.4351
v  -391.9840 150.0077 236.4351
v  -76.3643 5.9198 236.4351
v  148.0452 5.9198 236.4351
v  395.4175 5.9198 236.4351
v  395.4175 5.9062 0.2146
v  395.4175 5.9198 -236.0059
v  148.0452 5.9198 -236.0059
v  -76.3642 5.9198 -236.0059
v  -391.9840 5.9198 -236.0059
v  -391.9840 5.9062 0.2146
v  -391.9840 5.9198 236.4351
v  -121.7680 0.0000 0.2146
v  -340.4064 0.0000 0.2146
v  -341.6628 0.0000 233.0377
v  -122.3198 0.0000 233.0377
v  395.4175 393.7008 0.2146
v  395.4175 332.3072 236.4351
v  -123.6520 332.3072 236.4351
v  -344.6964 332.3072 236.4351
v  -344.6963 393.7008 0.2146
v  -123.6520 393.7008 0.2146
v  -341.6516 5.9198 233.0503
v  -122.3148 5.9198 233.0503
v  -122.3148 5.9198 -232.6211
v  -341.6516 5.9198 -232.6211
v  -341.6628 0.0000 -232.6085
v  -122.3198 0.0000 -232.6085
v  -344.6963 332.3072 -236.0059
v  -123.6520 332.3072 -236.0059
v  395.4175 332.3072 -236.0059
v  148.0452 150.0077 236.4351
v  148.0452 257.3842 236.4351
v  -339.4372 155.2668 236.4351
v  -339.4372 252.1250 236.4351
v  -128.9111 252.1250 236.4351
v  -128.9111 155.2668 236.4351
v  -339.4372 252.1250 -236.0059
v  -339.4372 155.2668 -236.0059
v  -128.9111 155.2668 -236.0059
v  -128.9111 252.1250 -236.0059
v  148.0452 257.3842 -236.0059
v  148.0452 150.0077 -236.0059
v  -344.6963 5.9198 236.4351
v  -123.6520 5.9198 236.4351
v  -123.6520 5.9198 -236.0059
v  -344.6964 5.9198 -236.0059
v  -391.9840 332.3072 236.4351
v  -391.9840 393.7008 0.2146
v  -391.9840 332.3072 -236.0059
v  -344.6964 257.3842 236.4351
v  -344.6963 150.0077 236.4351
v  -76.3642 257.3842 236.4351
v  -76.3643 150.0077 236.4351
v  -123.6520 150.0077 236.4351
v  -123.6520 257.3842 236.4351
v  -344.6964 150.0077 -236.0059
v  -344.6963 257.3842 -236.0059
v  -76.3643 150.0077 -236.0059
v  -76.3643 257.3842 -236.0059
v  -123.6520 257.3842 -236.0059
v  -123.6520 150.0077 -236.0059
v  148.0452 257.3842 235.0660
v  148.0452 150.0077 235.0660
v  142.7860 155.2668 235.0660
v  142.7861 252.1250 235.0660
v  -76.3643 150.0077 235.0660
v  -71.1051 155.2668 235.0660
v  -76.3642 257.3842 235.0660
v  -71.1051 252.1250 235.0660
v  -76.3643 257.3842 -234.6368
v  -76.3643 150.0077 -234.6368
v  -71.1051 155.2668 -234.6368
v  -71.1051 252.1250 -234.6368
v  148.0452 150.0077 -234.6368
v  142.7860 155.2668 -234.6368
v  148.0452 257.3842 -234.6368
v  142.7860 252.1250 -234.6368
v  -344.6963 150.0077 235.0660
v  -344.6964 257.3842 235.0660
v  -339.4372 252.1250 235.0660
v  -339.4372 155.2668 235.0660
v  -123.6520 257.3842 235.0660
v  -128.9111 252.1250 235.0660
v  -123.6520 150.0077 235.0660
v  -128.9111 155.2668 235.0660
v  -344.6963 257.3842 -234.6368
v  -344.6964 150.0077 -234.6368
v  -339.4372 155.2668 -234.6368
v  -339.4372 252.1250 -234.6368
v  -123.6520 150.0077 -234.6368
v  -128.9111 155.2668 -234.6368
v  -123.6520 257.3842 -234.6368
v  -128.9111 252.1250 -234.6368
# 140 vertices

vn 0.0000 0.7079 -0.7064
vn 0.0000 1.0000 -0.0000
vn 0.0000 -1.0000 -0.0000
vn 0.0000 -0.6117 -0.7911
vn -0.0000 0.7079 -0.7064
vn -0.5799 0.5771 -0.5751
vn -0.3009 0.9052 -0.3001
vn -0.7084 0.7058 -0.0000
vn -0.7058 0.7084 -0.0000
vn 0.0000 0.7079 0.7064
vn 0.5799 0.5771 0.5751
vn 0.3009 0.9052 0.3001
vn 0.7084 0.7058 0.0000
vn 0.7058 0.7084 -0.0000
vn 0.0000 -0.6117 0.7911
vn -0.3009 0.9052 0.3001
vn -0.5799 0.5771 0.5751
vn 0.3009 0.9052 -0.3001
vn 0.5799 0.5771 -0.5751
vn -0.5774 -0.5774 -0.5774
vn -0.5774 0.5774 -0.5774
vn 0.5774 0.5774 -0.5774
vn 0.5774 -0.5774 -0.5774
vn -0.7071 0.0000 -0.7071
vn -1.0000 0.0000 -0.0000
vn 0.5774 -0.5774 0.5774
vn 0.5774 0.5774 0.5774
vn -0.5774 0.5774 0.5774
vn -0.5774 -0.5774 0.5774
vn 0.7071 0.0000 0.7071
vn 1.0000 0.0000 -0.0000
vn -0.7071 0.0000 0.7071
vn 0.7071 0.0000 -0.7071
vn -0.0000 0.7071 -0.7071
vn 0.0000 0.7071 -0.7071
vn -0.5773 0.5774 -0.5774
vn -0.7071 0.7071 -0.0000
vn -0.5773 0.5774 0.5774
vn 0.0000 0.7071 0.7071
vn 0.5773 0.5774 0.5774
vn 0.7071 0.7071 0.0000
vn 0.5773 0.5774 -0.5774
vn -0.6546 -0.7560 -0.0000
vn -0.5919 -0.4931 -0.6376
vn -0.5919 -0.4931 0.6376
vn 0.3015 -0.3015 -0.9045
vn 0.3015 0.3015 -0.9045
vn 0.3015 0.3015 0.9045
vn 0.3015 -0.3015 0.9045
vn 0.5919 -0.4931 -0.6376
vn 0.6546 -0.7560 -0.0000
vn 0.5919 -0.4931 0.6376
vn -0.3015 0.3015 -0.9045
vn -0.3015 -0.3015 -0.9045
vn -0.3015 -0.3015 0.9045
vn -0.3015 0.3015 0.9045
# 56 vertex normals

vt 0.6997 0.0005 0.0000
vt 0.8401 0.0005 0.0000
vt 0.8398 0.1475 0.0000
vt 0.6999 0.1475 0.0000
vt 0.1998 0.1546 -1.0491
vt 0.3414 0.1546 -1.0491
vt 0.3414 0.3087 -1.0491
vt 0.1998 0.3087 -1.0491
vt 0.2940 0.3187 -0.3290
vt 0.1540 0.3214 -0.3290
vt 0.1539 0.3177 -0.3290
vt 0.2940 0.3149 -0.3290
vt 0.8072 0.2989 -0.1612
vt 0.8072 0.3027 -0.1612
vt 0.6606 0.3022 -0.1612
vt 0.6606 0.2985 -0.1612
vt 0.3433 0.5386 -0.3283
vt 0.2030 0.5359 -0.3283
vt 0.2030 0.5321 -0.3283
vt 0.3434 0.5349 -0.3283
vt 0.3862 0.7484 -0.1612
vt 0.3862 0.7521 -0.1612
vt 0.2396 0.7516 -0.1612
vt 0.2396 0.7479 -0.1612
vt 0.8401 0.2945 0.0000
vt 0.6997 0.2945 0.0000
vt 0.1998 0.0005 -1.0491
vt 0.3414 0.0005 -1.0491
vt 0.5139 0.3027 -0.1612
vt 0.5139 0.2990 -0.1612
vt 0.0929 0.7521 -0.1612
vt 0.0929 0.7484 -0.1612
vt 0.7022 0.8273 0.2108
vt 0.6770 0.8830 0.0000
vt 0.5540 0.8273 -0.2108
vt 0.5792 0.7716 0.0000
vt 0.8098 0.3962 -0.1612
vt 0.8098 0.4640 -0.1612
vt 0.6606 0.4936 -0.1612
vt 0.6606 0.4127 -0.1612
vt 0.5256 0.8840 0.2108
vt 0.5508 0.8283 0.0000
vt 0.6738 0.8840 -0.2108
vt 0.6486 0.9397 0.0000
vt 0.3887 0.8456 -0.1612
vt 0.3887 0.9134 -0.1612
vt 0.2396 0.9430 -0.1612
vt 0.2396 0.8621 -0.1612
vt 0.5114 0.4640 -0.1612
vt 0.5114 0.3962 -0.1612
vt 0.0904 0.9134 -0.1612
vt 0.0904 0.8456 -0.1612
vt 0.2947 0.3210 -0.3290
vt 0.1533 0.3239 -0.3290
vt 0.8098 0.3052 -0.1612
vt 0.6606 0.3052 -0.1612
vt 0.5114 0.3052 -0.1612
vt 0.3440 0.5412 -0.3283
vt 0.2023 0.5382 -0.3283
vt 0.3887 0.7546 -0.1612
vt 0.2396 0.7546 -0.1612
vt 0.0904 0.7546 -0.1612
vt 0.9947 0.0005 0.0000
vt 0.9939 0.1475 0.0000
vt 0.6704 0.1475 0.0000
vt 0.5324 0.1475 0.0000
vt 0.5316 0.0005 0.0000
vt 0.6700 0.0005 0.0000
vt 0.4976 0.1546 -1.0491
vt 0.4976 0.3087 -1.0491
vt 0.1699 0.3087 -1.0491
vt 0.0304 0.3087 -1.0491
vt 0.0304 0.1546 -1.0491
vt 0.1699 0.1546 -1.0491
vt 0.0031 0.3229 -0.3290
vt 0.0031 0.3192 -0.3290
vt 0.3250 0.3148 -0.3290
vt 0.4634 0.3127 -0.3290
vt 0.4634 0.3166 -0.3290
vt 0.3250 0.3186 -0.3290
vt 0.1719 0.5358 -0.3283
vt 0.0336 0.5341 -0.3283
vt 0.0336 0.5303 -0.3283
vt 0.1720 0.5320 -0.3283
vt 0.4944 0.5366 -0.3283
vt 0.4944 0.5403 -0.3283
vt 0.9947 0.2945 0.0000
vt 0.6700 0.2945 0.0000
vt 0.5316 0.2945 0.0000
vt 0.0304 0.0005 -1.0491
vt 0.1699 0.0005 -1.0491
vt 0.4976 0.0005 1.0491
vt 0.0009 0.4817 -0.3290
vt 0.0008 0.4150 -0.3290
vt 0.1544 0.4143 -0.3290
vt 0.1548 0.4811 -0.3290
vt 0.8236 0.4732 -0.0480
vt 0.8236 0.4121 0.0480
vt 0.9565 0.4121 0.0480
vt 0.9565 0.4732 -0.0480
vt 0.8492 0.4096 0.0000
vt 0.8236 0.3541 -0.2114
vt 0.9444 0.2985 0.0000
vt 0.9699 0.3541 0.2114
vt 0.4965 0.6325 -0.3283
vt 0.4962 0.6993 -0.3283
vt 0.3423 0.6984 -0.3283
vt 0.3428 0.6315 -0.3283
vt 0.0005 0.3255 -0.3290
vt 0.4655 0.3188 -0.3290
vt 0.3260 0.3209 -0.3290
vt 0.1710 0.5381 -0.3283
vt 0.0315 0.5364 -0.3283
vt 0.4970 0.5429 -0.3283
vt 0.5028 0.1475 0.0000
vt 0.5019 0.0005 0.0000
vt 0.0005 0.3087 -1.0491
vt 0.0005 0.1546 -1.0491
vt 0.4942 0.3127 -0.3290
vt 0.4942 0.3166 -0.3290
vt 0.0028 0.5343 -0.3283
vt 0.0028 0.5304 -0.3283
vt 0.5019 0.2945 0.0000
vt 0.0005 0.0005 1.0491
vt 0.4971 0.4115 -0.3290
vt 0.4973 0.4805 -0.3290
vt 0.4671 0.4806 -0.3290
vt 0.4667 0.4117 -0.3290
vt 0.2965 0.4812 -0.3290
vt 0.2963 0.4133 -0.3290
vt 0.3264 0.4131 -0.3290
vt 0.3265 0.4811 -0.3290
vt 0.0006 0.6982 -0.3283
vt 0.0005 0.6293 -0.3283
vt 0.0309 0.6293 -0.3283
vt 0.0308 0.6982 -0.3283
vt 0.2012 0.6306 -0.3283
vt 0.2010 0.6984 -0.3283
vt 0.1711 0.6984 -0.3283
vt 0.1711 0.6304 -0.3283
vt 0.4964 0.3188 -0.3290
vt 0.0006 0.5365 -0.3283
vt 0.2965 0.5285 -0.3290
vt 0.1549 0.5281 -0.3290
vt 0.8098 0.5113 0.1612
vt 0.6606 0.5501 -0.1612
vt 0.3422 0.7453 -0.3283
vt 0.2010 0.7457 -0.3283
vt 0.3887 0.9607 0.1612
vt 0.2396 0.9995 -0.1612
vt 0.5114 0.5113 0.1612
vt 0.0904 0.9607 0.1612
vt 0.0010 0.5283 0.3290
vt 0.4672 0.5284 -0.3290
vt 0.3265 0.5286 -0.3290
vt 0.1711 0.7458 -0.3283
vt 0.0307 0.7458 -0.3283
vt 0.4960 0.7459 0.3283
vt 0.4974 0.5283 0.3290
vt 0.0006 0.7459 0.3283
vt 0.7354 0.6380 -0.1877
vt 0.6602 0.6713 -0.1877
vt 0.6601 0.6677 -0.1877
vt 0.7326 0.6348 -0.1877
vt 0.5595 0.6373 -0.1877
vt 0.5615 0.6352 -0.1877
vt 0.5134 0.5521 -0.1877
vt 0.5187 0.5538 -0.1877
vt 0.7821 0.5209 -0.1877
vt 0.7770 0.5230 -0.1877
vt 0.5264 0.6935 -0.1877
vt 0.6016 0.6601 -0.1877
vt 0.6018 0.6637 -0.1877
vt 0.5293 0.6967 -0.1877
vt 0.7024 0.6942 -0.1877
vt 0.7004 0.6963 -0.1877
vt 0.7482 0.7793 -0.1877
vt 0.7429 0.7776 -0.1877
vt 0.4803 0.8110 -0.1877
vt 0.4854 0.8089 -0.1877
vt 0.4794 0.8252 -0.1506
vt 0.5475 0.7639 -0.1506
vt 0.5490 0.7678 -0.1506
vt 0.4878 0.8255 -0.1506
vt 0.6625 0.7643 -0.1506
vt 0.6607 0.7675 -0.1506
vt 0.7235 0.8272 -0.1506
vt 0.7205 0.8284 -0.1506
vt 0.7248 0.9403 -0.1506
vt 0.7226 0.9381 -0.1506
vt 0.4983 0.7874 0.0267
vt 0.5665 0.7261 0.0267
vt 0.5680 0.7300 0.0267
vt 0.5067 0.7878 0.0267
vt 0.6816 0.7264 0.0267
vt 0.6798 0.7297 0.0267
vt 0.7428 0.7892 0.0267
vt 0.7398 0.7904 0.0267
vt 0.7446 0.9021 0.0267
vt 0.7424 0.8999 0.0267
vt 0.7368 0.6392 0.2684
vt 0.6603 0.6733 -0.1877
vt 0.5582 0.6392 -0.2684
vt 0.5114 0.5531 -0.1877
vt 0.7841 0.5217 -0.1877
vt 0.6600 0.6662 -0.1877
vt 0.7314 0.6339 -0.1877
vt 0.7755 0.5224 -0.1877
vt 0.5201 0.5530 -0.1877
vt 0.5626 0.6338 -0.1877
vt 0.5250 0.6923 0.2684
vt 0.6015 0.6580 -0.1877
vt 0.7037 0.6923 -0.2684
vt 0.7501 0.7783 -0.1877
vt 0.4783 0.8102 -0.1877
vt 0.6018 0.6652 -0.1877
vt 0.5305 0.6976 -0.1877
vt 0.4870 0.8095 -0.1877
vt 0.7415 0.7784 -0.1877
vt 0.6993 0.6977 -0.1877
vt 0.4783 0.8240 -0.1506
vt 0.5468 0.7621 0.1506
vt 0.6630 0.7621 0.1506
vt 0.7255 0.8263 -0.1506
vt 0.7275 0.9403 -0.1506
vt 0.5496 0.7693 -0.1506
vt 0.4886 0.8264 -0.1506
vt 0.7207 0.9382 -0.1506
vt 0.7189 0.8290 -0.1506
vt 0.6602 0.7691 -0.1506
vt 0.4972 0.7862 0.0267
vt 0.5658 0.7243 -0.0267
vt 0.6822 0.7243 -0.0267
vt 0.7448 0.7883 0.0267
vt 0.7472 0.9020 0.0267
vt 0.5686 0.7315 0.0267
vt 0.5075 0.7886 0.0267
vt 0.7405 0.9000 0.0267
vt 0.7382 0.7910 0.0267
vt 0.6793 0.7312 0.0267
# 240 texture coords

o Warehouse
g Warehouse
usemtl wire_115115115
s 2
f 1/1/1 2/2/1 3/3/2 4/4/2 
s 4
f 5/5/3 6/6/3 7/7/4 8/8/4 
s 8
f 9/9/5 10/10/1 2/11/1 1/12/1 
s 16
f 11/13/6 12/14/7 13/15/8 14/16/9 
s 32
f 15/17/10 16/18/10 17/19/10 18/20/10 
s 64
f 19/21/11 20/22/12 21/23/13 22/24/14 
s 2
f 4/4/2 3/3/2 18/25/10 17/26/10 
s 4
f 6/6/3 5/5/3 23/27/15 24/28/15 
s 16
f 14/16/9 13/15/8 25/29/16 26/30/17 
s 64
f 22/24/14 21/23/13 27/31/18 28/32/19 
s 8
f 29/33/20 30/34/21 31/35/22 32/36/23 
s 16
f 33/37/24 34/38/24 35/39/25 36/40/25 
s 32
f 37/41/26 38/42/27 39/43/28 40/44/29 
s 64
f 41/45/30 42/46/30 43/47/31 44/48/31 
s 16
f 36/40/25 35/39/25 45/49/32 46/50/32 
s 64
f 44/48/31 43/47/31 47/51/33 48/52/33 
s off
f 49/53/34 50/54/35 10/10/1 9/9/5 
f 51/55/36 52/56/37 13/15/8 12/14/7 
f 52/56/37 53/57/38 25/29/16 13/15/8 
f 54/58/39 55/59/39 16/18/10 15/17/10 
f 56/60/40 57/61/41 21/23/13 20/22/12 
f 57/61/41 58/62/42 27/31/18 21/23/13 
s 2
f 2/2/1 11/63/6 14/64/9 3/3/2 
f 59/65/2 60/66/2 61/67/1 62/68/1 
s 4
f 6/6/3 63/69/43 64/70/44 7/7/4 
f 65/71/4 66/72/4 67/73/3 68/74/3 
s 8
f 10/10/1 12/75/7 11/76/6 2/11/1 
f 62/77/1 61/78/1 69/79/5 70/80/5 
s 32
f 71/81/10 72/82/10 73/83/10 74/84/10 
f 18/20/10 26/85/17 25/86/16 15/17/10 
s 2
f 3/3/2 14/64/9 26/87/17 18/25/10 
f 74/88/10 73/89/10 60/66/2 59/65/2 
s 4
f 68/74/3 67/73/3 75/90/15 76/91/15 
f 24/28/15 77/92/45 63/69/43 6/6/3 
s 8
f 34/93/24 33/94/24 78/95/46 79/96/47 
f 80/97/22 81/98/23 82/99/20 83/100/21 
s 32
f 84/101/26 85/102/27 86/103/28 87/104/29 
f 46/105/32 45/106/32 88/107/48 89/108/49 
s off
f 50/54/35 51/109/36 12/75/7 10/10/1 
f 70/80/5 69/79/5 90/110/34 91/111/34 
f 92/112/39 93/113/39 72/82/10 71/81/10 
f 15/17/10 25/86/16 53/114/38 54/58/39 
s 2
f 60/66/2 22/115/14 28/116/19 61/67/1 
f 62/68/1 1/1/1 4/4/2 59/65/2 
s 4
f 66/72/4 94/117/50 95/118/51 67/73/3 
f 68/74/3 5/5/3 8/8/4 65/71/4 
s 8
f 61/78/1 28/119/19 27/120/18 69/79/5 
f 70/80/5 9/9/5 1/12/1 62/77/1 
s 32
f 72/82/10 20/121/12 19/122/11 73/83/10 
f 74/84/10 17/19/10 16/18/10 71/81/10 
s 2
f 73/89/10 19/123/11 22/115/14 60/66/2 
f 59/65/2 4/4/2 17/26/10 74/88/10 
s 4
f 67/73/3 95/118/51 96/124/52 75/90/15 
f 76/91/15 23/27/15 5/5/3 68/74/3 
s 8
f 48/125/33 47/126/33 97/127/53 98/128/54 
f 99/129/53 100/130/54 101/131/46 102/132/47 
s 32
f 42/133/30 41/134/30 103/135/55 104/136/56 
f 105/137/55 106/138/56 107/139/48 108/140/49 
s off
f 69/79/5 27/120/18 58/141/42 90/110/34 
f 91/111/34 49/53/34 9/9/5 70/80/5 
f 93/113/39 56/142/40 20/121/12 72/82/10 
f 71/81/10 16/18/10 55/59/39 92/112/39 
s 8
f 78/95/46 50/54/35 49/53/34 100/130/54 
f 99/129/53 8/143/4 7/144/4 79/96/47 
s 16
f 34/38/24 64/145/44 63/146/43 35/39/25 
f 36/40/25 52/56/37 51/55/36 33/37/24 
s 32
f 105/137/55 55/59/39 54/58/39 89/108/49 
f 88/107/48 24/147/15 23/148/15 106/138/56 
s 64
f 42/46/30 96/149/52 95/150/51 43/47/31 
f 44/48/31 57/61/41 56/60/40 41/45/30 
s 16
f 35/39/25 63/146/43 77/151/45 45/49/32 
f 46/50/32 53/57/38 52/56/37 36/40/25 
s 64
f 43/47/31 95/150/51 94/152/50 47/51/33 
f 48/52/33 58/62/42 57/61/41 44/48/31 
s 8
f 33/94/24 51/109/36 50/54/35 78/95/46 
f 79/96/47 7/144/4 64/153/44 34/93/24 
f 97/127/53 66/154/4 65/155/4 102/132/47 
f 101/131/46 91/111/34 90/110/34 98/128/54 
s 32
f 103/135/55 93/113/39 92/112/39 108/140/49 
f 107/139/48 76/156/15 75/157/15 104/136/56 
f 45/106/32 77/158/45 24/147/15 88/107/48 
f 89/108/49 54/58/39 53/114/38 46/105/32 
s 8
f 47/126/33 94/159/50 66/154/4 97/127/53 
f 98/128/54 90/110/34 58/141/42 48/125/33 
f 100/130/54 49/53/34 91/111/34 101/131/46 
f 102/132/47 65/155/4 8/143/4 99/129/53 
s 32
f 41/134/30 56/142/40 93/113/39 103/135/55 
f 104/136/56 75/157/15 96/160/52 42/133/30 
f 106/138/56 23/148/15 76/156/15 107/139/48 
f 108/140/49 92/112/39 55/59/39 105/137/55 
s off
f 109/161/22 110/162/23 111/163/53 112/164/54 
f 110/162/23 113/165/20 114/166/47 111/163/53 
f 113/165/20 115/167/21 116/168/46 114/166/47 
f 115/169/21 109/161/22 112/164/54 116/170/46 
f 117/171/28 118/172/29 119/173/48 120/174/49 
f 118/172/29 121/175/26 122/176/56 119/173/48 
f 121/175/26 123/177/27 124/178/55 122/176/56 
f 123/179/27 117/171/28 120/174/49 124/180/55 
f 125/181/20 126/182/21 127/183/46 128/184/47 
f 126/182/21 129/185/22 130/186/54 127/183/46 
f 129/185/22 131/187/23 132/188/53 130/186/54 
f 131/187/23 125/189/20 128/190/47 132/188/53 
f 133/191/28 134/192/29 135/193/48 136/194/49 
f 134/192/29 137/195/26 138/196/56 135/193/48 
f 137/195/26 139/197/27 140/198/55 138/196/56 
f 139/197/27 133/199/28 136/200/49 140/198/55 
f 79/201/47 78/202/46 110/162/23 109/161/22 
f 78/202/46 100/203/54 113/165/20 110/162/23 
f 100/203/54 99/204/53 115/167/21 113/165/20 
f 99/205/53 79/201/47 109/161/22 115/169/21 
f 30/206/21 29/207/20 112/164/54 111/163/53 
f 29/207/20 32/208/23 116/170/46 112/164/54 
f 32/209/23 31/210/22 114/166/47 116/168/46 
f 31/210/22 30/206/21 111/163/53 114/166/47 
f 106/211/56 105/212/55 118/172/29 117/171/28 
f 105/212/55 89/213/49 121/175/26 118/172/29 
f 89/213/49 88/214/48 123/177/27 121/175/26 
f 88/215/48 106/211/56 117/171/28 123/179/27 
f 38/216/27 37/217/26 120/174/49 119/173/48 
f 37/217/26 40/218/29 124/180/55 120/174/49 
f 40/219/29 39/220/28 122/176/56 124/178/55 
f 39/220/28 38/216/27 119/173/48 122/176/56 
f 98/221/54 97/222/53 126/182/21 125/181/20 
f 97/222/53 102/223/47 129/185/22 126/182/21 
f 102/223/47 101/224/46 131/187/23 129/185/22 
f 101/224/46 98/225/54 125/189/20 131/187/23 
f 81/226/23 80/227/22 128/184/47 127/183/46 
f 80/228/22 83/229/21 132/188/53 128/190/47 
f 83/229/21 82/230/20 130/186/54 132/188/53 
f 82/230/20 81/226/23 127/183/46 130/186/54 
f 104/231/56 103/232/55 134/192/29 133/191/28 
f 103/232/55 108/233/49 137/195/26 134/192/29 
f 108/233/49 107/234/48 139/197/27 137/195/26 
f 107/234/48 104/235/56 133/199/28 139/197/27 
f 85/236/27 84/237/26 136/194/49 135/193/48 
f 84/238/26 87/239/29 140/198/55 136/200/49 
f 87/239/29 86/240/28 138/196/56 140/198/55 
f 86/240/28 85/236/27 135/193/48 138/196/56 
# 138 polygons

