# 3ds Max Wavefront OBJ Exporter v0.97b - (c)2007 guruware
# File Created: 10.02.2018 12:18:08

mtllib Bank note.mtl

#
# object Euro_Bank_note
#

v  -1.0499 -1.6142 0.0100
v  1.0499 -1.6142 0.1774
v  1.0499 1.5115 0.0100
v  -1.0311 1.5098 0.0100
v  -3.1496 1.3631 0.4116
v  -3.1496 -1.6142 -0.0000
v  -3.1496 -1.6142 0.0100
v  -3.1496 1.3631 0.4216
v  -1.0499 -1.6142 -0.0000
v  1.0499 -1.6142 0.1674
v  3.1496 -1.6142 -0.0000
v  3.1496 1.6142 -0.1773
v  3.1496 1.6142 -0.1673
v  3.1496 -1.6142 0.0100
v  1.0499 1.5115 -0.0000
v  -1.0311 1.5098 -0.0000
# 16 vertices

vn -0.0277 -0.7161 0.6975
vn 0.0000 -0.6701 0.7423
vn 0.0129 0.7117 0.7024
vn 0.0360 0.7369 0.6750
vn -0.6489 0.5962 -0.4726
vn -0.5705 -0.5395 -0.6193
vn -0.5849 -0.6115 0.5328
vn -0.5275 0.5057 0.6826
vn 0.0284 -0.6983 -0.7152
vn -0.0000 -0.7435 -0.6687
vn 0.5593 -0.5879 -0.5844
vn 0.5393 0.5729 -0.6172
vn 0.5870 0.6108 0.5314
vn 0.5953 -0.5675 0.5688
vn -0.0485 0.6913 -0.7210
vn -0.0898 0.6926 -0.7157
# 16 vertex normals

vt 0.5152 0.0659 -0.5316
vt 0.6703 0.0627 -0.5316
vt 0.6747 0.2932 -0.5316
vt 0.5214 0.2960 -0.5316
vt 0.5146 0.4500 0.2822
vt 0.3809 0.3428 0.0520
vt 0.3829 0.3406 0.2822
vt 0.5165 0.4478 0.2822
vt 0.2524 0.2306 0.2822
vt 0.1328 0.1099 0.2822
vt 0.1348 0.1077 0.2822
vt 0.2543 0.2284 0.2822
vt 0.9974 0.9432 0.2822
vt 0.8661 0.8280 -0.2822
vt 0.8682 0.8257 0.2822
vt 0.9995 0.9409 0.2822
vt 0.7478 0.7008 0.2822
vt 0.6188 0.5841 0.2822
vt 0.6208 0.5818 0.2822
vt 0.7498 0.6986 0.2822
vt 0.1873 0.4521 0.1058
vt 0.3406 0.4527 0.1058
vt 0.3396 0.6832 0.1058
vt 0.1844 0.6822 0.1058
vt 0.8254 0.0604 -0.0753
vt 0.8300 0.2985 -0.5316
vt 0.3623 0.2885 0.5316
vt 0.3605 0.0672 -0.5316
vt 0.0005 0.0028 0.2822
vt 0.0024 0.0005 0.2822
vt 0.4958 0.4451 0.1058
vt 0.4947 0.6833 -0.1058
vt 0.0298 0.6833 -0.1058
vt 0.0283 0.4619 0.1058
# 34 texture coords

o Euro_Bank_note
g Euro_Bank_note
usemtl wire_148177027
s 1
f 1/1/1 2/2/2 3/3/3 4/4/4 
s off
f 5/5/5 6/6/6 7/7/7 8/8/8 
f 9/9/9 10/10/10 2/11/2 1/12/1 
f 11/13/11 12/14/12 13/15/13 14/16/14 
f 15/17/15 16/18/16 4/19/4 3/20/3 
f 16/21/16 15/22/15 10/23/10 9/24/9 
s 1
f 2/2/2 14/25/14 13/26/13 3/3/3 
f 4/4/4 8/27/8 7/28/7 1/1/1 
s off
f 10/10/10 11/29/11 14/30/14 2/11/2 
f 1/12/1 7/7/7 6/6/6 9/9/9 
f 16/18/16 5/5/5 8/8/8 4/19/4 
f 3/20/3 13/15/13 12/14/12 15/17/15 
f 15/22/15 12/31/12 11/32/11 10/23/10 
f 9/24/9 6/33/6 5/34/5 16/21/16 
# 14 polygons

