# 3ds Max Wavefront OBJ Exporter v0.97b - (c)2007 guruware
# File Created: 01.03.2018 19:28:27

mtllib exit sign.mtl

#
# object Exit_sign
#

v  -8.2353 -0.6722 3.6479
v  -8.2353 -0.6722 -3.6479
v  8.2353 -0.6722 -3.6479
v  8.2353 -0.6722 3.6479
v  8.2353 0.6722 3.6479
v  -8.2353 0.6722 3.6479
v  8.2353 0.6722 -3.6479
v  -8.2353 0.6722 -3.6479
# 8 vertices

vn -0.5774 -0.5774 0.5774
vn -0.5774 -0.5774 -0.5774
vn 0.5774 -0.5774 -0.5774
vn 0.5774 -0.5774 0.5774
vn 0.5774 0.5774 0.5774
vn -0.5774 0.5774 0.5774
vn 0.5774 0.5774 -0.5774
vn -0.5774 0.5774 -0.5774
# 8 vertex normals

vt 0.0643 0.9540 0.0000
vt 0.0643 0.5608 0.0000
vt 0.9520 0.5608 0.0000
vt 0.9520 0.9540 0.0000
vt 0.9121 0.0770 -0.2580
vt 0.2845 0.0771 0.0000
vt 0.2845 0.0258 0.2580
vt 0.9121 0.0258 0.0000
vt 0.0065 0.0771 0.0000
vt 0.0065 0.0258 0.0000
vt 0.9678 0.1328 -0.2580
vt 0.3402 0.1328 -0.2580
vt 0.3402 0.0815 0.2580
vt 0.9678 0.0815 -0.2580
vt 0.0622 0.1328 -0.2580
vt 0.0622 0.0815 -0.2580
vt 0.9486 0.1464 0.7585
vt 0.9486 0.5356 -0.7585
vt 0.0700 0.5356 -0.7585
vt 0.0700 0.1464 0.7585
# 20 texture coords

o Exit_sign
g Exit_sign
usemtl Material__107
s 2
f 1/1/1 2/2/2 3/3/3 4/4/4 
s 8
f 1/5/1 4/6/4 5/7/5 6/8/6 
s 16
f 4/6/4 3/9/3 7/10/7 5/7/5 
s 32
f 3/11/3 2/12/2 8/13/8 7/14/7 
s 64
f 2/12/2 1/15/1 6/16/6 8/13/8 
s off
f 5/17/5 7/18/7 8/19/8 6/20/6 
# 6 polygons

