# 3ds Max Wavefront OBJ Exporter v0.97b - (c)2007 guruware
# File Created: 09.02.2018 17:56:37

mtllib Hotel Garden.mtl

#
# object Hotel_Garden
#

v  -251.0345 -2.3621 -168.7664
v  196.8504 -2.3621 -168.7664
v  196.8504 112.8372 -168.7664
v  -251.0345 112.8372 -168.7664
v  -251.0345 112.8372 155.4933
v  -251.0345 -2.3621 155.4933
v  210.4448 112.8372 155.4933
v  210.4448 -2.3621 155.4933
v  -196.8504 0.0000 118.1102
v  196.8504 0.0000 118.1102
v  196.8504 0.0000 -62.1170
v  -196.8504 0.0000 -62.1170
v  -196.8504 113.0040 118.1102
v  196.8504 113.0040 118.1102
v  196.8504 113.0040 -62.1170
v  196.8504 30.1480 -62.1170
v  196.8504 30.1480 -118.1102
v  -196.8504 30.1480 -118.1102
v  -196.8504 30.1480 -62.1170
v  -196.8504 113.0040 -62.1170
v  -196.8504 112.8372 -118.1102
v  196.8504 112.8372 -118.1102
v  171.0649 30.0359 -7.0583
v  160.5406 30.0359 -7.0583
v  160.5406 30.0359 62.7706
v  171.0649 30.0359 62.7706
v  171.0649 28.5693 -7.0583
v  160.5468 28.5822 -7.0583
v  160.5468 28.5822 62.7706
v  171.0649 28.4013 62.7706
v  160.1816 30.0344 62.7706
v  160.1816 30.0344 -7.0583
v  160.1878 28.5807 -7.0583
v  160.1878 28.5807 62.7706
v  160.5832 20.0104 -7.0583
v  150.1016 20.0102 -7.0583
v  150.1016 20.0102 62.7706
v  160.5832 20.0104 62.7706
v  150.1016 10.0425 -7.0583
v  140.1862 9.9406 -7.0583
v  140.1862 9.9406 62.7706
v  150.1016 10.0425 62.7706
v  149.7426 20.0102 62.7706
v  149.7426 20.0102 -7.0583
v  149.7426 18.5649 -7.0583
v  149.7426 18.5649 62.7706
v  139.8272 9.9406 62.7706
v  139.8272 9.9406 -7.0583
v  139.8272 8.4197 -7.0583
v  139.8272 8.4197 62.7706
v  160.5832 18.5960 -7.0583
v  150.1016 18.5649 -7.0583
v  150.1016 18.5649 62.7706
v  160.5832 18.5960 62.7706
v  150.1016 8.5227 -7.0583
v  140.1862 8.4197 -7.0583
v  140.1862 8.4197 62.7706
v  150.1016 8.5227 62.7706
v  160.5832 10.2557 -7.0583
v  160.5832 8.7328 -7.0583
v  160.5832 10.2557 62.7706
v  160.5832 8.7328 62.7706
v  171.0649 20.0222 -7.0583
v  171.0649 18.6014 -7.0583
v  160.5832 18.5787 -7.0583
v  171.0649 19.9521 62.7706
v  160.5832 18.5787 62.7706
v  171.0649 18.5379 62.7706
v  160.5832 10.1366 -7.0583
v  171.0649 10.1603 -7.0583
v  171.0649 8.6723 -7.0583
v  160.5832 8.6310 -7.0583
v  171.0649 10.1099 62.7706
v  160.5832 10.1366 62.7706
v  160.5832 8.6310 62.7706
v  171.0649 8.8021 62.7706
v  140.1862 -0.5484 -7.0583
v  140.1862 -0.5484 62.7706
v  150.1016 -0.4385 -7.0583
v  150.1016 -0.4385 62.7706
v  160.5832 -0.2467 -7.0583
v  160.5832 -0.2467 62.7706
v  171.0649 -0.2591 -7.0583
v  171.0649 -0.3588 62.7706
v  200.0735 30.0359 62.7706
v  200.0735 30.0359 -7.0583
v  171.0649 30.0359 120.4684
v  200.0735 30.0359 120.4684
v  200.0735 30.0359 -63.7005
v  171.0649 30.0359 -63.7005
v  171.0649 28.2203 120.4684
v  171.0649 28.5563 -63.7005
v  171.0649 19.8936 120.4684
v  171.0649 18.4970 120.4684
v  171.0649 10.0830 120.4684
v  171.0649 8.9730 120.4684
v  171.0649 -0.4710 120.4684
v  171.0649 20.0337 -63.7005
v  171.0649 18.6239 -63.7005
v  171.0649 10.1839 -63.7005
v  171.0649 8.7134 -63.7005
v  171.0649 -0.4710 -63.7005
v  196.8504 180.9817 118.1102
v  196.8504 180.9817 -62.1170
v  196.8504 180.8149 -118.1102
v  272.7655 -2.3621 -168.7664
v  272.7655 112.8372 -168.7664
v  272.7655 -2.3621 -67.0249
v  272.7655 112.8372 -67.0249
# 109 vertices

vn 0.7071 0.0000 0.7071
vn 0.0000 0.0000 1.0000
vn 0.7071 0.0000 -0.7071
vn 0.0000 0.0000 -1.0000
vn 0.5774 0.5774 -0.5774
vn -0.5774 0.5774 -0.5774
vn -0.5774 0.5774 0.5774
vn 0.5774 0.5774 0.5774
vn -0.8944 0.0000 -0.4472
vn -1.0000 0.0000 -0.0000
vn 1.0000 0.0000 0.0000
vn 0.7078 -0.0000 0.7064
vn -1.0000 0.0000 0.0000
vn -0.8944 -0.0000 0.4472
vn -0.3015 0.9045 -0.3015
vn -0.0015 0.7076 -0.7066
vn -0.0015 0.7076 0.7066
vn -0.3015 0.9045 0.3015
vn -0.7071 0.0000 -0.7071
vn -0.3002 -0.3028 -0.9045
vn -0.3002 -0.3028 0.9045
vn -0.7071 0.0000 0.7071
vn -0.5797 0.5749 0.5774
vn -0.5797 0.5749 -0.5774
vn -0.5748 -0.5798 -0.5774
vn -0.5748 -0.5798 0.5774
vn -0.3014 0.3001 -0.9050
vn -0.0000 0.7071 -0.7071
vn -0.0000 0.7071 0.7071
vn -0.3014 0.3001 0.9050
vn -0.3049 0.3018 -0.9033
vn -0.0036 0.7059 -0.7083
vn -0.0036 0.7059 0.7083
vn -0.3049 0.3018 0.9033
vn -0.5774 -0.5774 -0.5774
vn -0.5774 -0.5774 0.5774
vn -0.3015 -0.3015 -0.9045
vn -0.3015 -0.3015 0.9045
vn -0.7096 0.0000 -0.7046
vn -0.7096 0.0000 0.7046
vn -0.7082 0.0000 -0.7060
vn -0.7100 0.0000 0.7042
vn 0.0000 1.0000 -0.0000
vn -0.7071 0.7071 0.0000
vn -0.7071 0.7071 -0.0000
# 45 vertex normals

vt 0.3790 0.6061 -0.2598
vt 0.0779 0.9071 0.2598
vt 0.0005 0.8297 0.2598
vt 0.3015 0.5286 0.2598
vt 0.5195 0.3107 0.2598
vt 0.5969 0.3881 0.2598
vt 0.8297 0.0005 0.2598
vt 0.9071 0.0779 -0.2598
vt 0.3583 0.6934 0.3390
vt 0.7326 0.6934 0.3390
vt 0.7326 0.8647 -0.3390
vt 0.3583 0.8647 -0.3390
vt 0.5946 0.5958 0.4141
vt 0.5359 0.5058 0.4141
vt 0.8495 0.3015 0.4141
vt 0.9081 0.3915 -0.4141
vt 0.9159 0.6821 0.0000
vt 0.9159 0.7895 0.0000
vt 0.7445 0.7895 0.0000
vt 0.7446 0.6821 0.0000
vt 0.9353 0.6082 0.0000
vt 0.9353 0.6802 0.0000
vt 0.5798 0.6802 0.0000
vt 0.5798 0.6082 0.0000
vt 0.3924 0.5993 0.4141
vt 0.4510 0.6893 -0.4141
vt 0.6253 0.9604 -0.0565
vt 0.9995 0.9604 -0.0565
vt 0.9995 0.9890 0.0565
vt 0.6253 0.9890 0.0565
vt 0.1455 0.8751 -0.9980
vt 0.1987 0.8748 -0.9980
vt 0.1991 0.9534 -0.9980
vt 0.1459 0.9539 0.9980
vt 0.5729 0.8727 -0.9980
vt 0.6262 0.8724 0.1900
vt 0.6266 0.9512 -0.9980
vt 0.5734 0.9513 -0.9980
vt 0.2949 0.7822 -0.0401
vt 0.2849 0.7822 0.0401
vt 0.2849 0.7161 0.0401
vt 0.2949 0.7161 -0.0401
vt 0.9037 0.2542 0.3458
vt 0.9070 0.2447 0.0000
vt 0.9083 0.2452 0.0000
vt 0.9050 0.2546 0.0000
vt 0.9013 0.3658 0.0000
vt 0.8980 0.3563 0.3480
vt 0.8993 0.3559 0.0000
vt 0.9027 0.3653 0.0000
vt 0.2838 0.7162 -0.0401
vt 0.2838 0.7822 -0.0401
vt 0.2824 0.7822 -0.0401
vt 0.2824 0.7162 -0.0401
vt 0.0846 0.9753 0.0131
vt 0.0747 0.9753 -0.0131
vt 0.0747 0.9093 -0.0131
vt 0.0846 0.9093 0.0131
vt 0.1187 0.9583 -0.0136
vt 0.1093 0.9583 0.0136
vt 0.1093 0.8922 0.0136
vt 0.1187 0.8922 -0.0136
vt 0.0736 0.9093 -0.0131
vt 0.0736 0.9753 -0.0131
vt 0.0722 0.9753 -0.0131
vt 0.0722 0.9093 -0.0131
vt 0.1081 0.8922 -0.0136
vt 0.1081 0.9583 -0.0136
vt 0.1067 0.9583 -0.0136
vt 0.1067 0.8922 -0.0136
vt 0.1082 0.9604 0.0030
vt 0.1181 0.9613 0.0030
vt 0.1180 0.9626 0.0030
vt 0.1080 0.9618 0.0030
vt 0.9235 0.0766 -0.0020
vt 0.9135 0.0767 -0.0020
vt 0.9135 0.0754 -0.0020
vt 0.9234 0.0752 -0.0020
vt 0.0979 0.9691 0.0030
vt 0.1073 0.9698 0.0030
vt 0.1072 0.9713 0.0030
vt 0.0978 0.9705 0.0030
vt 0.9134 0.0673 -0.0020
vt 0.9039 0.0673 -0.0020
vt 0.9039 0.0659 -0.0020
vt 0.9133 0.0658 -0.0020
vt 0.1173 0.9705 0.0069
vt 0.1171 0.9720 0.0030
vt 0.9233 0.0673 0.0020
vt 0.9233 0.0659 -0.0020
vt 0.9127 0.2573 0.0000
vt 0.9160 0.2478 0.0000
vt 0.9172 0.2483 0.0000
vt 0.9140 0.2577 0.0000
vt 0.9103 0.3627 0.0000
vt 0.9070 0.3533 0.0000
vt 0.9083 0.3528 0.0000
vt 0.9116 0.3622 0.0000
vt 0.9216 0.2603 0.0000
vt 0.9248 0.2509 0.0000
vt 0.9261 0.2514 0.0000
vt 0.9229 0.2608 0.0000
vt 0.9192 0.3596 0.0000
vt 0.9159 0.3502 0.0000
vt 0.9172 0.3497 0.0000
vt 0.9203 0.3592 0.0000
vt 0.2812 0.7822 -0.0401
vt 0.2731 0.7822 -0.0401
vt 0.2731 0.7162 -0.0401
vt 0.2812 0.7162 -0.0401
vt 0.0710 0.9753 -0.0131
vt 0.0630 0.9753 -0.0131
vt 0.0630 0.9093 -0.0131
vt 0.0710 0.9093 -0.0131
vt 0.1055 0.9583 -0.0136
vt 0.0971 0.9583 -0.0136
vt 0.0971 0.8922 -0.0136
vt 0.1055 0.8922 -0.0136
vt 0.1065 0.9798 0.0030
vt 0.0971 0.9790 0.0030
vt 0.9038 0.0573 -0.0020
vt 0.9132 0.0573 -0.0020
vt 0.1164 0.9805 0.0030
vt 0.9232 0.0573 -0.0020
vt 0.9342 0.2542 -0.3458
vt 0.9309 0.2636 0.0000
vt 0.9252 0.3470 0.0000
vt 0.9286 0.3563 -0.3480
vt 0.9049 0.2549 0.0000
vt 0.9036 0.2545 0.0000
vt 0.8979 0.3560 0.0000
vt 0.8992 0.3556 0.0000
vt 0.1077 0.9617 0.0030
vt 0.1078 0.9604 0.0030
vt 0.9132 0.0767 -0.0020
vt 0.9131 0.0754 -0.0020
vt 0.0975 0.9705 -0.0069
vt 0.0976 0.9691 0.0030
vt 0.9036 0.0673 -0.0004
vt 0.9036 0.0659 -0.0020
vt 0.3242 0.7990 0.0000
vt 0.3242 0.7257 0.0000
vt 0.3457 0.7257 0.0000
vt 0.3457 0.7990 0.0000
vt 0.3242 0.6650 0.0000
vt 0.3457 0.6650 0.0000
vt 0.3457 0.8586 0.0000
vt 0.3242 0.8586 0.0000
vt 0.2908 0.7844 0.0402
vt 0.2907 0.8392 0.0402
vt 0.2891 0.8392 0.0402
vt 0.2890 0.7844 0.0402
vt 0.2338 0.7843 0.0401
vt 0.2340 0.8381 0.0401
vt 0.2326 0.8381 0.0401
vt 0.2324 0.7843 0.0401
vt 0.2811 0.8392 0.0402
vt 0.2811 0.7843 0.0402
vt 0.2797 0.8392 0.0402
vt 0.2798 0.7843 0.0402
vt 0.2717 0.8392 0.0402
vt 0.2718 0.7843 0.0402
vt 0.2705 0.8392 0.0402
vt 0.2707 0.7843 0.0402
vt 0.2618 0.8391 -0.0396
vt 0.2618 0.7843 -0.0402
vt 0.2245 0.8382 0.0401
vt 0.2242 0.7843 0.0401
vt 0.2231 0.8382 0.0401
vt 0.2229 0.7843 0.0401
vt 0.2151 0.8382 0.0401
vt 0.2149 0.7844 0.0401
vt 0.2137 0.8382 0.0401
vt 0.2135 0.7844 0.0401
vt 0.2050 0.8383 -0.0401
vt 0.2050 0.7844 -0.0389
vt 0.9159 0.8541 0.0000
vt 0.7445 0.8541 0.0000
vt 0.8992 0.3399 -0.2825
vt 0.8581 0.3060 0.0000
vt 0.8992 0.2561 0.2825
vt 0.9402 0.2900 0.0000
vt 0.8980 0.0971 -0.1299
vt 0.9755 0.1745 -0.1299
vt 0.9244 0.2255 0.1299
vt 0.8470 0.1481 0.1299
vt 0.8561 0.2939 -0.1299
vt 0.7786 0.2165 -0.1299
# 188 texture coords

o Hotel_Garden
g Hotel_Garden
usemtl wire_115115115
s off
f 1/1/1 2/2/2 3/3/2 4/4/1 
f 1/1/1 4/4/1 5/5/3 6/6/3 
f 6/6/3 5/5/3 7/7/4 8/8/4 
s 2
f 9/9/5 10/10/6 11/11/7 12/12/8 
s 8
f 9/13/5 13/14/3 14/15/9 10/16/6 
s 16
f 10/17/6 14/18/9 15/19/10 11/20/7 
s 2
f 16/21/7 17/22/7 18/23/8 19/24/8 
s 64
f 20/25/11 13/14/3 9/13/5 12/26/8 
s off
f 12/27/8 11/28/7 16/29/7 19/30/8 
f 19/31/8 18/32/8 21/33/12 20/34/11 
f 17/35/7 16/36/7 15/37/13 22/38/14 
f 18/32/8 17/35/7 22/38/14 21/33/12 
s 1
f 23/39/15 24/40/16 25/41/17 26/42/18 
s off
f 24/43/16 23/44/15 27/45/19 28/46/20 
f 26/47/18 25/48/17 29/49/21 30/50/22 
f 31/51/23 32/52/24 33/53/25 34/54/26 
s 1
f 35/55/27 36/56/28 37/57/29 38/58/30 
f 39/59/31 40/60/32 41/61/33 42/62/34 
s off
f 43/63/7 44/64/6 45/65/35 46/66/36 
f 47/67/7 48/68/6 49/69/35 50/70/36 
f 36/71/28 35/72/27 51/73/4 52/74/37 
f 38/75/30 37/76/29 53/77/38 54/78/2 
f 40/79/32 39/80/31 55/81/4 56/82/37 
f 42/83/34 41/84/33 57/85/38 58/86/2 
f 39/80/31 59/87/4 60/88/4 55/81/4 
f 61/89/2 42/83/34 58/86/2 62/90/2 
f 35/91/27 63/92/19 64/93/19 65/94/4 
f 66/95/22 38/96/30 67/97/2 68/98/22 
f 69/99/4 70/100/19 71/101/19 72/102/4 
f 73/103/22 74/104/2 75/105/2 76/106/22 
f 27/45/19 63/92/19 35/91/27 28/46/20 
f 29/49/21 38/96/30 66/95/22 30/50/22 
f 28/107/20 35/108/27 38/109/30 29/110/21 
f 52/111/37 39/112/31 42/113/34 53/114/38 
f 56/115/37 77/116/39 78/117/40 57/118/38 
f 51/73/4 59/87/4 39/80/31 52/74/37 
f 53/77/38 42/83/34 61/89/2 54/78/2 
f 55/81/4 79/119/4 77/120/39 56/82/37 
f 57/85/38 78/121/40 80/122/2 58/86/2 
f 60/88/4 81/123/4 79/119/4 55/81/4 
f 58/86/2 80/122/2 82/124/2 62/90/2 
f 64/93/19 70/100/19 69/99/4 65/94/4 
f 67/97/2 74/104/2 73/103/22 68/98/22 
f 71/101/19 83/125/41 81/126/4 72/102/4 
f 75/105/2 82/127/2 84/128/42 76/106/22 
f 25/41/17 24/40/16 32/52/24 31/51/23 
f 24/43/16 28/46/20 33/129/25 32/130/24 
f 28/107/20 29/110/21 34/54/26 33/53/25 
f 29/49/21 25/48/17 31/131/23 34/132/26 
f 37/57/29 36/56/28 44/64/6 43/63/7 
f 36/71/28 52/74/37 45/133/35 44/134/6 
f 52/111/37 53/114/38 46/66/36 45/65/35 
f 53/77/38 37/76/29 43/135/7 46/136/36 
f 41/61/33 40/60/32 48/68/6 47/67/7 
f 40/79/32 56/82/37 49/137/35 48/138/6 
f 56/115/37 57/118/38 50/70/36 49/69/35 
f 57/85/38 41/84/33 47/139/7 50/140/36 
f 23/141/15 26/142/18 85/143/43 86/144/43 
f 85/143/43 26/142/18 87/145/44 88/146/43 
f 23/141/15 86/144/43 89/147/43 90/148/45 
f 87/149/44 26/150/18 30/151/22 91/152/13 
f 23/153/15 90/154/45 92/155/10 27/156/19 
f 30/151/22 66/157/22 93/158/13 91/152/13 
f 66/157/22 68/159/22 94/160/13 93/158/13 
f 68/159/22 73/161/22 95/162/13 94/160/13 
f 73/161/22 76/163/22 96/164/13 95/162/13 
f 76/163/22 84/165/42 97/166/13 96/164/13 
f 92/155/10 98/167/10 63/168/19 27/156/19 
f 98/167/10 99/169/10 64/170/19 63/168/19 
f 99/169/10 100/171/10 70/172/19 64/170/19 
f 100/171/10 101/173/10 71/174/19 70/172/19 
f 101/173/10 102/175/10 83/176/41 71/174/19 
f 15/19/10 14/18/9 103/177/10 104/178/10 
f 22/179/14 15/180/13 104/181/13 105/182/13 
f 3/183/2 2/184/2 106/185/22 107/186/22 
f 107/186/22 106/185/22 108/187/10 109/188/10 
# 76 polygons

