# 3ds Max Wavefront OBJ Exporter v0.97b - (c)2007 guruware
# File Created: 11.02.2018 19:13:40

mtllib Archway.mtl

#
# object arch_way
#

v  190.3089 45.6523 -3.1274
v  190.3089 29.2344 -3.1274
v  190.3089 29.2344 4.5485
v  190.3089 45.6523 4.5485
v  190.3089 82.2141 4.1889
v  190.3089 85.4581 -2.7678
v  190.3089 91.2975 10.8872
v  190.3089 97.1776 5.9532
v  190.3089 97.6039 19.6822
v  190.3089 105.0182 17.6955
v  190.3089 98.7192 29.7324
v  190.3089 106.1553 29.7324
v  190.3089 45.6523 62.5922
v  190.3089 45.6523 54.9163
v  190.3089 29.2344 54.9163
v  190.3089 29.2344 62.5922
v  190.3089 85.4581 62.2326
v  190.3089 82.2141 55.2759
v  190.3089 97.1776 53.5116
v  190.3089 91.2975 48.5776
v  190.3089 105.0182 41.7693
v  190.3089 97.6039 39.7826
v  197.6946 45.6523 -3.1274
v  197.6946 29.2344 -3.1274
v  197.6946 29.2344 4.5485
v  197.6946 45.6523 4.5485
v  197.6946 82.2141 4.1889
v  197.6946 91.2975 10.8872
v  197.6946 97.6039 19.6822
v  197.6946 98.7192 29.7324
v  197.6946 97.6039 39.7826
v  197.6946 91.2975 48.5776
v  197.6946 82.2141 55.2759
v  197.6946 45.6523 54.9163
v  197.6946 29.2344 54.9163
v  197.6946 29.2344 62.5922
v  197.6946 45.6523 62.5922
v  197.6946 85.4581 62.2326
v  197.6946 97.1776 53.5116
v  197.6946 105.0182 41.7693
v  197.6946 106.1553 29.7324
v  197.6946 105.0182 17.6955
v  197.6946 97.1776 5.9532
v  197.6946 85.4581 -2.7678
# 44 vertices

vn -0.7061 0.0032 -0.7081
vn -0.7071 -0.0000 -0.7071
vn -0.7071 -0.0000 0.7071
vn -0.7060 0.0035 0.7082
vn -0.7859 -0.1903 0.5884
vn -0.6435 0.2440 -0.7256
vn -0.7440 -0.4756 0.4693
vn -0.6707 0.5376 -0.5109
vn -0.7688 -0.5971 0.2290
vn -0.6559 0.7113 -0.2528
vn -0.7328 -0.6804 -0.0000
vn -0.6865 0.7271 -0.0000
vn -0.7061 0.0032 0.7081
vn -0.7060 0.0035 -0.7082
vn -0.6435 0.2440 0.7256
vn -0.7859 -0.1903 -0.5884
vn -0.6707 0.5376 0.5109
vn -0.7440 -0.4756 -0.4693
vn -0.6559 0.7113 0.2528
vn -0.7687 -0.5971 -0.2291
vn 0.0000 0.0045 -1.0000
vn 0.0000 0.0000 -1.0000
vn -0.0000 0.0000 1.0000
vn -0.0000 0.0049 1.0000
vn -0.0000 -0.3077 0.9515
vn -0.0000 -0.7118 0.7024
vn -0.0000 -0.9336 0.3582
vn 0.0000 -1.0000 0.0000
vn 0.0000 -0.9337 -0.3582
vn 0.0000 -0.7118 -0.7024
vn 0.0000 -0.3077 -0.9515
vn 0.0000 0.0049 -1.0000
vn -0.0000 0.0045 1.0000
vn -0.0000 0.3188 0.9478
vn -0.0000 0.7249 0.6888
vn -0.0000 0.9423 0.3348
vn -0.0000 1.0000 0.0000
vn 0.0000 0.9423 -0.3348
vn 0.0000 0.7249 -0.6888
vn 0.0000 0.3188 -0.9478
# 40 vertex normals

vt 0.2912 0.1204 -0.6809
vt 0.2856 0.0278 0.6809
vt 0.3289 0.0252 -0.6809
vt 0.3345 0.1178 -0.6809
vt 0.3448 0.3240 -0.6809
vt 0.3067 0.3446 -0.6809
vt 0.3856 0.3730 -0.6809
vt 0.3598 0.4078 -0.6809
vt 0.4374 0.4055 -0.6809
vt 0.4287 0.4480 -0.6809
vt 0.4944 0.4084 -0.6809
vt 0.4969 0.4504 0.6809
vt 0.6618 0.0982 -0.6809
vt 0.6186 0.1008 -0.6809
vt 0.6131 0.0083 -0.6809
vt 0.6563 0.0057 -0.6809
vt 0.6732 0.3228 -0.6809
vt 0.6329 0.3068 -0.6809
vt 0.6279 0.3917 -0.6809
vt 0.5982 0.3603 -0.6809
vt 0.5644 0.4399 -0.6809
vt 0.5507 0.3988 -0.6809
vt 0.0420 0.1021 0.2633
vt 0.0005 0.0192 -0.2633
vt 0.0378 0.0005 0.2633
vt 0.0793 0.0834 0.2633
vt 0.1581 0.0005 -0.1317
vt 0.1943 0.0859 0.1317
vt 0.1559 0.1021 0.1317
vt 0.1197 0.0168 0.1317
vt 0.2750 0.2760 0.1317
vt 0.2366 0.2922 0.1317
vt 0.2999 0.3346 0.1317
vt 0.2615 0.3509 0.1317
vt 0.3237 0.3909 0.1317
vt 0.2853 0.4072 0.1317
vt 0.3460 0.4435 -0.1317
vt 0.3076 0.4598 0.1317
vt 0.3684 0.4960 0.1317
vt 0.3300 0.5123 0.1317
vt 0.3922 0.5523 0.1317
vt 0.3538 0.5686 0.1317
vt 0.4171 0.6110 0.1317
vt 0.3787 0.6273 0.1317
vt 0.4978 0.8010 0.1317
vt 0.4594 0.8173 0.1317
vt 0.5341 0.8864 0.1317
vt 0.4957 0.9027 0.1317
vt 0.4908 0.9995 0.2633
vt 0.4493 0.9166 0.2633
vt 0.4866 0.8979 0.2633
vt 0.5281 0.9808 0.2633
vt 0.3487 0.7155 0.2633
vt 0.3860 0.6969 0.2633
vt 0.3118 0.6417 0.2633
vt 0.3491 0.6231 0.2633
vt 0.2761 0.5704 0.2633
vt 0.3134 0.5518 0.2633
vt 0.2456 0.5094 -0.2633
vt 0.2829 0.4907 0.2633
vt 0.2151 0.4483 0.2633
vt 0.2524 0.4296 0.2633
vt 0.1794 0.3770 0.2633
vt 0.2167 0.3583 0.2633
vt 0.1425 0.3032 0.2633
vt 0.1798 0.2845 0.2633
# 66 texture coords

o arch_way
g arch_way
usemtl wire_115115115
s 1
f 1/1/1 2/2/2 3/3/3 4/4/4 
s off
f 1/1/1 4/4/4 5/5/5 6/6/6 
f 6/6/6 5/5/5 7/7/7 8/8/8 
f 8/8/8 7/7/7 9/9/9 10/10/10 
f 10/10/10 9/9/9 11/11/11 12/12/12 
s 1
f 13/13/13 14/14/14 15/15/2 16/16/3 
s off
f 13/13/13 17/17/15 18/18/16 14/14/14 
f 17/17/15 19/19/17 20/20/18 18/18/16 
f 19/19/17 21/21/19 22/22/20 20/20/18 
f 21/21/19 12/12/12 11/11/11 22/22/20 
f 23/23/21 24/24/22 2/25/2 1/26/1 
f 25/27/23 26/28/24 4/29/4 3/30/3 
f 26/28/24 27/31/25 5/32/5 4/29/4 
f 27/31/25 28/33/26 7/34/7 5/32/5 
f 28/33/26 29/35/27 9/36/9 7/34/7 
f 29/35/27 30/37/28 11/38/11 9/36/9 
f 30/37/28 31/39/29 22/40/20 11/38/11 
f 31/39/29 32/41/30 20/42/18 22/40/20 
f 32/41/30 33/43/31 18/44/16 20/42/18 
f 33/43/31 34/45/32 14/46/14 18/44/16 
f 34/45/32 35/47/22 15/48/2 14/46/14 
f 36/49/23 37/50/33 13/51/13 16/52/3 
f 37/50/33 38/53/34 17/54/15 13/51/13 
f 38/53/34 39/55/35 19/56/17 17/54/15 
f 39/55/35 40/57/36 21/58/19 19/56/17 
f 40/57/36 41/59/37 12/60/12 21/58/19 
f 41/59/37 42/61/38 10/62/10 12/60/12 
f 42/61/38 43/63/39 8/64/8 10/62/10 
f 43/63/39 44/65/40 6/66/6 8/64/8 
f 44/65/40 23/23/21 1/26/1 6/66/6 
# 30 polygons

