# 3ds Max Wavefront OBJ Exporter v0.97b - (c)2007 guruware
# File Created: 11.03.2018 17:20:00

mtllib Bullet hole.mtl

#
# object Bullet_hole
#

v  -2.8049 0.0000 2.8049
v  2.8049 0.0000 2.8049
v  2.8049 0.0000 -2.8049
v  -2.8049 0.0000 -2.8049
# 4 vertices

vn 0.0000 1.0000 -0.0000
# 1 vertex normals

vt 0.0005 0.0005 0.2500
vt 0.9995 0.0005 0.2500
vt 0.9995 0.9995 -0.2500
vt 0.0005 0.9995 -0.2500
# 4 texture coords

o Bullet_hole
g Bullet_hole
usemtl Material__25
s 1
f 1/1/1 2/2/1 3/3/1 4/4/1 
# 1 polygons

