# 3ds Max Wavefront OBJ Exporter v0.97b - (c)2007 guruware
# File Created: 23.03.2018 12:35:42

mtllib Paper Plate.mtl

#
# object Paper_Plate
#

v  -1.6707 -0.0351 2.9673
v  -2.8670 -0.0351 1.7711
v  -3.3049 -0.0351 0.1369
v  -0.0366 -0.0351 0.1369
v  3.9004 0.3634 0.1369
v  3.3730 0.3634 -1.8316
v  3.3730 0.4567 -1.8316
v  3.9004 0.4567 0.1369
v  1.9319 0.3634 -3.2727
v  1.9319 0.4567 -3.2727
v  -0.0366 0.3634 -3.8001
v  -0.0366 0.4567 -3.8001
v  -2.0051 0.3634 -3.2727
v  -2.0051 0.4567 -3.2727
v  -3.4461 0.3634 -1.8316
v  -3.4461 0.4567 -1.8316
v  -3.9736 0.3634 0.1369
v  -3.9736 0.4567 0.1369
v  -3.4461 0.3634 2.1054
v  -3.4461 0.4567 2.1054
v  -2.0051 0.3634 3.5464
v  -2.0051 0.4567 3.5464
v  -0.0366 0.3634 4.0739
v  -0.0366 0.4567 4.0739
v  1.9319 0.3634 3.5464
v  1.9319 0.4567 3.5464
v  3.3730 0.3634 2.1054
v  3.3730 0.4567 2.1054
v  2.9525 0.2788 1.8627
v  3.4149 0.2788 0.1369
v  2.9525 0.2788 -1.5889
v  -0.0366 0.2788 0.1369
v  -0.0366 0.2788 -3.3146
v  -1.7623 0.2788 -2.8522
v  -3.0257 0.2788 -1.5889
v  -3.0257 0.2788 1.8626
v  -1.7623 0.2788 3.1260
v  -0.0366 0.2788 3.5884
v  1.6892 0.2788 3.1260
v  1.6892 0.2788 -2.8522
v  -3.4881 0.2788 0.1369
v  1.5976 -0.0351 2.9673
v  -0.0366 -0.0351 3.4052
v  -1.6707 -0.0351 -2.6935
v  -0.0366 -0.0351 -3.1314
v  1.5976 -0.0351 -2.6935
v  3.2317 -0.0351 0.1369
v  2.7939 -0.0351 1.7711
v  -2.8670 -0.0351 -1.4973
v  2.7939 -0.0351 -1.4973
# 50 vertices

vn -0.1528 -0.9522 0.2646
vn -0.2646 -0.9522 0.1528
vn -0.3056 -0.9522 -0.0000
vn 0.0000 -1.0000 -0.0000
vn 0.8869 -0.4620 0.0000
vn 0.7681 -0.4620 -0.4434
vn 0.5639 0.7589 -0.3256
vn 0.6512 0.7589 0.0000
vn 0.4434 -0.4620 -0.7681
vn 0.3256 0.7589 -0.5639
vn -0.0000 -0.4620 -0.8869
vn -0.0000 0.7589 -0.6512
vn -0.4434 -0.4620 -0.7681
vn -0.3255 0.7590 -0.5639
vn -0.7681 -0.4620 -0.4434
vn -0.5639 0.7590 -0.3255
vn -0.8869 -0.4620 -0.0000
vn -0.6512 0.7589 -0.0000
vn -0.7681 -0.4620 0.4434
vn -0.5639 0.7589 0.3256
vn -0.4434 -0.4620 0.7680
vn -0.3256 0.7590 0.5639
vn -0.0000 -0.4620 0.8869
vn -0.0000 0.7590 0.6510
vn 0.4435 -0.4620 0.7681
vn 0.3256 0.7590 0.5639
vn 0.7681 -0.4620 0.4434
vn 0.5639 0.7589 0.3256
vn -0.1755 0.9792 -0.1013
vn -0.2027 0.9792 -0.0000
vn -0.1755 0.9792 0.1013
vn 0.0000 1.0000 -0.0000
vn 0.0000 0.9792 0.2027
vn 0.1013 0.9792 0.1755
vn 0.1755 0.9792 0.1013
vn 0.1755 0.9792 -0.1013
vn 0.1013 0.9792 -0.1755
vn 0.0000 0.9792 -0.2027
vn -0.1013 0.9792 -0.1755
vn -0.1013 0.9792 0.1755
vn 0.2027 0.9792 0.0000
vn 0.1528 -0.9522 0.2646
vn -0.0000 -0.9522 0.3056
vn -0.1528 -0.9522 -0.2646
vn 0.0000 -0.9522 -0.3056
vn 0.1528 -0.9522 -0.2646
vn 0.3056 -0.9522 0.0000
vn 0.2646 -0.9522 0.1528
vn -0.2646 -0.9522 -0.1528
vn 0.2646 -0.9522 -0.1528
# 50 vertex normals

vt 0.1610 0.9079 -0.2022
vt 0.0917 0.8383 -0.2022
vt 0.0664 0.7434 -0.2022
vt 0.2562 0.7437 -0.2022
vt 0.4942 0.2571 0.6205
vt 0.4625 0.3756 -0.6205
vt 0.4573 0.3727 -0.6205
vt 0.4883 0.2572 -0.6205
vt 0.3757 0.4624 -0.6205
vt 0.3726 0.4572 -0.6205
vt 0.2572 0.4941 -0.6205
vt 0.2571 0.4881 -0.6205
vt 0.1387 0.4624 -0.6205
vt 0.1416 0.4571 -0.6205
vt 0.0519 0.3756 -0.6205
vt 0.0570 0.3725 -0.6205
vt 0.0200 0.2571 0.6205
vt 0.0260 0.2570 -0.6205
vt 0.0519 0.1385 -0.6205
vt 0.0571 0.1415 -0.6205
vt 0.1387 0.0518 -0.6205
vt 0.1418 0.0569 -0.6205
vt 0.2572 0.0200 -0.6205
vt 0.2573 0.0260 -0.6205
vt 0.3758 0.0517 -0.6205
vt 0.3729 0.0569 -0.6205
vt 0.4625 0.1385 -0.6205
vt 0.4574 0.1416 -0.6205
vt 0.4304 0.1574 -0.6205
vt 0.4570 0.2573 -0.6205
vt 0.4301 0.3572 -0.6205
vt 0.2572 0.2571 -0.6205
vt 0.2569 0.4569 -0.6205
vt 0.1571 0.4300 -0.6205
vt 0.0840 0.3567 -0.6205
vt 0.0843 0.1570 -0.6205
vt 0.1575 0.0839 -0.6205
vt 0.2575 0.0573 -0.6205
vt 0.3574 0.0841 -0.6205
vt 0.3569 0.4302 -0.6205
vt 0.0573 0.2568 -0.6205
vt 0.3509 0.9084 -0.2022
vt 0.2559 0.9336 -0.2022
vt 0.1616 0.5792 -0.2022
vt 0.2566 0.5539 -0.2022
vt 0.3515 0.5795 -0.2022
vt 0.4462 0.7441 -0.2022
vt 0.4208 0.8391 -0.2022
vt 0.0920 0.6485 -0.2022
vt 0.4211 0.6490 -0.2022
vt 0.4611 0.6254 -0.2022
vt 0.4927 0.7437 0.2022
vt 0.4612 0.8621 -0.2022
vt 0.3743 0.9485 -0.2022
vt 0.2562 0.9800 -0.2022
vt 0.1381 0.9483 -0.2022
vt 0.0516 0.8618 -0.2022
vt 0.0200 0.7437 0.2022
vt 0.0516 0.6256 -0.2022
vt 0.1381 0.5392 -0.2022
vt 0.2562 0.5075 -0.2022
vt 0.3743 0.5390 -0.2022
# 62 texture coords

o Paper_Plate
g Paper_Plate
usemtl wire_115115115
s 1
f 1/1/1 2/2/2 3/3/3 4/4/4 
s 8
f 5/5/5 6/6/6 7/7/7 8/8/8 
f 6/6/6 9/9/9 10/10/10 7/7/7 
f 9/9/9 11/11/11 12/12/12 10/10/10 
f 11/11/11 13/13/13 14/14/14 12/12/12 
f 13/13/13 15/15/15 16/16/16 14/14/14 
f 15/15/15 17/17/17 18/18/18 16/16/16 
f 17/17/17 19/19/19 20/20/20 18/18/18 
f 19/19/19 21/21/21 22/22/22 20/20/20 
f 21/21/21 23/23/23 24/24/24 22/22/22 
f 23/23/23 25/25/25 26/26/26 24/24/24 
f 25/25/25 27/27/27 28/28/28 26/26/26 
f 27/27/27 5/5/5 8/8/8 28/28/28 
s 1
f 29/29/29 30/30/30 31/31/31 32/32/32 
f 33/33/33 34/34/34 35/35/35 32/32/32 
f 36/36/36 37/37/37 38/38/38 32/32/32 
f 32/32/32 38/38/38 39/39/39 29/29/29 
f 31/31/31 40/40/40 33/33/33 32/32/32 
f 32/32/32 35/35/35 41/41/41 36/36/36 
f 42/42/42 43/43/43 1/1/1 4/4/4 
f 44/44/44 45/45/45 46/46/46 4/4/4 
f 4/4/4 47/47/47 48/48/48 42/42/42 
f 3/3/3 49/49/49 44/44/44 4/4/4 
f 4/4/4 46/46/46 50/50/50 47/47/47 
s off
f 8/8/8 7/7/7 31/31/31 30/30/30 
f 7/7/7 10/10/10 40/40/40 31/31/31 
f 10/10/10 12/12/12 33/33/33 40/40/40 
f 12/12/12 14/14/14 34/34/34 33/33/33 
f 14/14/14 16/16/16 35/35/35 34/34/34 
f 16/16/16 18/18/18 41/41/41 35/35/35 
f 18/18/18 20/20/20 36/36/36 41/41/41 
f 20/20/20 22/22/22 37/37/37 36/36/36 
f 22/22/22 24/24/24 38/38/38 37/37/37 
f 24/24/24 26/26/26 39/39/39 38/38/38 
f 26/26/26 28/28/28 29/29/29 39/39/39 
f 28/28/28 8/8/8 30/30/30 29/29/29 
f 6/51/6 5/52/5 47/47/47 50/50/50 
f 5/52/5 27/53/27 48/48/48 47/47/47 
f 27/53/27 25/54/25 42/42/42 48/48/48 
f 25/54/25 23/55/23 43/43/43 42/42/42 
f 23/55/23 21/56/21 1/1/1 43/43/43 
f 21/56/21 19/57/19 2/2/2 1/1/1 
f 19/57/19 17/58/17 3/3/3 2/2/2 
f 17/58/17 15/59/15 49/49/49 3/3/3 
f 15/59/15 13/60/13 44/44/44 49/49/49 
f 13/60/13 11/61/11 45/45/45 44/44/44 
f 11/61/11 9/62/9 46/46/46 45/45/45 
f 9/62/9 6/51/6 50/50/50 46/46/46 
# 48 polygons

