# 3ds Max Wavefront OBJ Exporter v0.97b - (c)2007 guruware
# File Created: 02.04.2018 17:19:50

mtllib normal people door.mtl

#
# object Normal_People_Door
#

v  -35.7690 80.9688 -0.0654
v  -35.7690 0.5039 -0.0654
v  -24.5882 47.1701 -0.0654
v  -24.5882 72.3384 -0.0654
v  -0.0025 0.5039 -0.0654
v  -6.3874 47.1701 -0.0654
v  -0.0025 80.9688 -0.0654
v  -6.3874 72.3384 -0.0654
v  35.7640 80.9688 -0.0654
v  24.5832 72.3384 -0.0654
v  24.5832 47.1701 -0.0654
v  35.7640 0.5039 -0.0654
v  6.3824 47.1701 -0.0654
v  6.3824 72.3384 -0.0654
v  23.7531 46.2472 0.2355
v  7.2131 46.2472 0.2355
v  7.2131 46.2472 -0.3662
v  23.7531 46.2472 -0.3662
v  23.7531 73.5724 0.2355
v  23.7531 73.5724 -0.3662
v  7.2131 73.5724 -0.3662
v  7.2131 73.5724 0.2355
v  5.4249 48.6761 0.2355
v  5.4249 71.1435 0.2355
v  5.4249 71.1435 -0.3662
v  5.4249 48.6761 -0.3662
v  25.5412 48.6761 -0.3662
v  25.5412 71.1435 -0.3662
v  25.5412 71.1435 0.2355
v  25.5412 48.6761 0.2355
v  22.4120 48.0688 0.2355
v  8.5541 48.0688 0.2355
v  6.7660 50.4977 0.2355
v  6.7660 69.3218 0.2355
v  8.5541 71.7507 0.2355
v  22.4120 71.7507 0.2355
v  24.2001 69.3218 0.2355
v  24.2001 50.4977 0.2355
v  22.4120 71.7507 -0.3662
v  8.5541 71.7507 -0.3662
v  6.7660 69.3218 -0.3662
v  6.7660 50.4977 -0.3662
v  8.5541 48.0688 -0.3662
v  22.4120 48.0688 -0.3662
v  24.2001 50.4977 -0.3662
v  24.2001 69.3218 -0.3662
v  25.0942 46.8544 -0.3662
v  25.0942 46.8544 0.2355
v  5.8720 46.8544 0.2355
v  5.8720 46.8544 -0.3662
v  5.8720 72.9652 -0.3662
v  5.8720 72.9652 0.2355
v  25.0942 72.9652 0.2355
v  25.0942 72.9652 -0.3662
v  23.7531 48.6761 0.2355
v  7.2131 48.6761 0.2355
v  7.2131 71.1435 0.2355
v  23.7531 71.1435 0.2355
v  7.2131 71.1435 -0.3662
v  23.7531 71.1435 -0.3662
v  7.2131 48.6761 -0.3662
v  23.7531 48.6761 -0.3662
v  35.1135 77.4705 0.1952
v  32.3998 77.4705 0.1952
v  32.3998 77.4705 -0.1009
v  35.1135 77.4705 -0.1009
v  35.1135 80.1842 0.1952
v  35.1135 80.1842 -0.1009
v  32.3998 80.1842 -0.1009
v  32.3998 80.1842 0.1952
v  34.4479 78.1360 1.2227
v  34.4479 79.5186 1.2227
v  33.0653 79.5186 1.2227
v  33.0653 78.1360 1.2227
v  34.4479 78.1360 0.1944
v  33.0653 78.1360 0.1944
v  33.0653 79.5186 0.1944
v  34.4479 79.5186 0.1944
v  -35.1185 77.4705 0.1952
v  -35.1185 77.4705 -0.1009
v  -32.4047 77.4705 -0.1009
v  -32.4047 77.4705 0.1952
v  -35.1185 80.1842 0.1952
v  -32.4047 80.1842 0.1952
v  -32.4047 80.1842 -0.1009
v  -35.1185 80.1842 -0.1009
v  -34.4529 78.1360 1.2227
v  -33.0703 78.1360 1.2227
v  -33.0703 79.5186 1.2227
v  -34.4529 79.5186 1.2227
v  -33.0703 78.1360 0.1944
v  -34.4529 78.1360 0.1944
v  -33.0703 79.5186 0.1944
v  -34.4529 79.5186 0.1944
v  3.0093 0.9509 2.7484
v  33.5489 0.9509 0.2511
v  33.5489 36.2085 0.2511
v  3.0093 36.2085 2.7484
v  2.2234 36.2085 2.6417
v  2.2234 0.9509 2.6417
v  1.2480 0.9509 1.7767
v  1.2480 36.2085 1.7767
v  1.5515 36.2085 1.2746
v  1.5515 0.9509 1.2746
v  1.5672 0.9509 2.3209
v  1.5672 36.2085 2.3209
v  1.9776 36.2085 0.9733
v  1.9776 0.9509 0.9733
v  3.6851 0.9509 0.7724
v  3.6851 36.2085 0.7724
v  -3.0142 0.9509 2.7484
v  -3.0142 36.2085 2.7484
v  -33.5539 36.2085 0.2511
v  -33.5539 0.9509 0.2511
v  -2.2283 0.9509 2.6417
v  -2.2283 36.2085 2.6417
v  -1.2530 0.9509 1.7767
v  -1.5565 0.9509 1.2745
v  -1.5565 36.2085 1.2746
v  -1.2530 36.2085 1.7767
v  -1.5722 0.9509 2.3209
v  -1.5722 36.2085 2.3209
v  -1.9826 0.9509 0.9733
v  -1.9826 36.2085 0.9733
v  -3.6901 0.9509 0.7724
v  -3.6901 36.2085 0.7724
v  -23.7581 46.2472 0.2355
v  -23.7581 46.2472 -0.3662
v  -7.2180 46.2472 -0.3662
v  -7.2180 46.2472 0.2355
v  -23.7581 73.5724 0.2355
v  -7.2180 73.5724 0.2355
v  -7.2180 73.5724 -0.3662
v  -23.7581 73.5724 -0.3662
v  -5.4299 48.6761 0.2355
v  -5.4299 48.6761 -0.3662
v  -5.4299 71.1435 -0.3662
v  -5.4299 71.1435 0.2355
v  -25.5462 48.6761 -0.3662
v  -25.5462 48.6761 0.2355
v  -25.5462 71.1435 0.2355
v  -25.5462 71.1435 -0.3662
v  -8.5591 48.0688 0.2355
v  -22.4170 48.0688 0.2355
v  -6.7710 69.3218 0.2355
v  -6.7710 50.4977 0.2355
v  -22.4170 71.7507 0.2355
v  -8.5591 71.7507 0.2355
v  -24.2051 50.4977 0.2355
v  -24.2051 69.3218 0.2355
v  -22.4170 71.7507 -0.3662
v  -8.5591 71.7507 -0.3662
v  -6.7710 69.3218 -0.3662
v  -6.7710 50.4977 -0.3662
v  -8.5591 48.0688 -0.3662
v  -22.4170 48.0688 -0.3662
v  -24.2051 50.4977 -0.3662
v  -24.2051 69.3218 -0.3662
v  -25.0991 46.8544 0.2355
v  -25.0991 46.8544 -0.3662
v  -5.8770 46.8544 -0.3662
v  -5.8770 46.8544 0.2355
v  -5.8770 72.9652 0.2355
v  -5.8770 72.9652 -0.3662
v  -25.0991 72.9652 -0.3662
v  -25.0991 72.9652 0.2355
v  -23.7581 48.6761 0.2355
v  -7.2180 48.6761 0.2355
v  -7.2180 71.1435 0.2355
v  -23.7581 71.1435 0.2355
v  -7.2180 71.1435 -0.3662
v  -23.7581 71.1435 -0.3662
v  -7.2180 48.6761 -0.3662
v  -23.7581 48.6761 -0.3662
v  -35.7690 80.9688 -2.3847
v  -35.7690 0.5039 -2.3847
v  -0.0025 80.9688 -2.3847
v  35.7640 0.5039 -2.3847
v  35.7640 80.9688 -2.3847
# 179 vertices

vn -0.5774 0.5774 0.5773
vn -0.7071 -0.0000 0.7071
vn 0.0000 -0.0000 1.0000
vn -0.0000 -0.0000 1.0000
vn 0.0000 0.7071 0.7071
vn 0.5774 0.5774 0.5773
vn 0.7071 -0.0000 0.7071
vn 0.1580 -0.7321 0.6626
vn -0.1580 -0.7321 0.6626
vn -0.2110 -0.9775 -0.0000
vn 0.2110 -0.9775 -0.0000
vn 0.1580 0.7321 0.6626
vn 0.2110 0.9775 0.0000
vn -0.2110 0.9775 0.0000
vn -0.1580 0.7321 0.6626
vn -0.7269 -0.0879 0.6811
vn -0.7269 0.0879 0.6811
vn -0.9928 0.1200 0.0000
vn -0.9928 -0.1200 -0.0000
vn 0.9928 -0.1200 -0.0000
vn 0.9928 0.1200 0.0000
vn 0.7269 0.0879 0.6811
vn 0.7270 -0.0879 0.6810
vn -0.1377 0.6378 0.7578
vn 0.1377 0.6378 0.7578
vn 0.6730 0.0814 0.7351
vn 0.6730 -0.0814 0.7351
vn 0.1377 -0.6378 0.7578
vn -0.1377 -0.6378 0.7578
vn -0.6730 -0.0814 0.7351
vn -0.6730 0.0814 0.7351
vn 0.7693 -0.6389 -0.0000
vn 0.6031 -0.5010 0.6207
vn -0.6031 -0.5010 0.6207
vn -0.7692 -0.6389 -0.0000
vn -0.7692 0.6390 0.0000
vn -0.6032 0.5010 0.6206
vn 0.6031 0.5010 0.6207
vn 0.7692 0.6389 0.0000
vn -0.4403 0.3658 0.8199
vn 0.4404 0.3658 0.8199
vn 0.4404 -0.3658 0.8199
vn -0.4404 -0.3658 0.8199
vn 0.7692 -0.6389 -0.0000
vn -0.7693 0.6389 0.0000
vn 0.5772 -0.5772 0.5776
vn -0.5772 -0.5772 0.5776
vn -0.7071 -0.7071 -0.0000
vn 0.7071 -0.7071 -0.0000
vn 0.5772 0.5772 0.5776
vn 0.7071 0.7071 0.0000
vn -0.7071 0.7071 0.0000
vn -0.5772 0.5772 0.5776
vn 0.5774 -0.5774 0.5774
vn 0.5774 0.5774 0.5774
vn -0.5774 0.5774 0.5774
vn -0.5774 -0.5774 0.5774
vn 0.3010 -0.3010 0.9049
vn -0.3010 -0.3010 0.9049
vn -0.3010 0.3010 0.9049
vn 0.3010 0.3010 0.9049
vn -0.0267 -0.0000 0.9996
vn 0.0815 -0.0000 0.9967
vn -0.2906 -0.0000 0.9568
vn -1.0000 0.0000 -0.0066
vn -0.7320 0.0000 -0.6813
vn -0.6798 -0.0000 0.7334
vn -0.3582 0.0000 -0.9337
vn -0.3581 0.0000 -0.9337
vn -0.1168 0.0000 -0.9932
vn 0.0267 -0.0000 0.9996
vn -0.0815 -0.0000 0.9967
vn 0.2906 -0.0000 0.9568
vn 0.2906 -0.0000 0.9569
vn 1.0000 0.0000 -0.0066
vn 0.7320 0.0000 -0.6813
vn 0.6798 -0.0000 0.7334
vn 0.3581 0.0000 -0.9337
vn 0.1168 0.0000 -0.9932
vn 0.7269 -0.0879 0.6811
vn -0.7692 0.6389 0.0000
vn -0.6031 0.5010 0.6207
vn -0.4404 0.3658 0.8199
vn -0.7071 0.7071 -0.0000
vn -1.0000 0.0000 -0.0000
vn 0.0000 1.0000 -0.0000
vn 1.0000 0.0000 -0.0000
vn 0.7071 0.7071 -0.0000
# 88 vertex normals

vt 0.0211 0.7160 0.2481
vt 0.0211 0.0005 0.2481
vt 0.1205 0.4154 -0.2481
vt 0.1205 0.6392 -0.2481
vt 0.3391 0.0005 -0.2481
vt 0.2824 0.4154 -0.2481
vt 0.3391 0.7160 -0.2481
vt 0.2824 0.6392 -0.2481
vt 0.6572 0.7160 -0.2481
vt 0.5578 0.6392 -0.2481
vt 0.5578 0.4154 -0.2481
vt 0.6572 0.0005 -0.2481
vt 0.3959 0.4154 -0.2481
vt 0.3959 0.6392 -0.2481
vt 0.7599 0.7459 0.0291
vt 0.6128 0.7458 -0.0291
vt 0.6128 0.7404 -0.0291
vt 0.7599 0.7405 -0.0291
vt 0.7599 0.9888 0.0291
vt 0.7599 0.9942 -0.0291
vt 0.6128 0.9941 -0.0291
vt 0.6128 0.9888 -0.0291
vt 0.5969 0.7674 -0.0291
vt 0.5969 0.9672 -0.0291
vt 0.5916 0.9672 -0.0291
vt 0.5916 0.7674 -0.0291
vt 0.7811 0.7675 -0.0291
vt 0.7812 0.9672 -0.0291
vt 0.7758 0.9672 -0.0291
vt 0.7758 0.7675 -0.0291
vt 0.7480 0.7621 -0.0291
vt 0.6247 0.7620 -0.0291
vt 0.6088 0.7836 -0.0291
vt 0.6089 0.9510 -0.0291
vt 0.6248 0.9726 -0.0291
vt 0.7480 0.9726 -0.0291
vt 0.7639 0.9510 -0.0291
vt 0.7639 0.7837 -0.0291
vt 0.1863 0.7542 -0.0000
vt 0.1865 0.7595 -0.0000
vt 0.0635 0.7653 0.0768
vt 0.0632 0.7600 -0.0000
vt 0.0175 0.7606 0.0000
vt 0.0172 0.7552 0.0000
vt 0.1848 0.7473 0.0000
vt 0.1851 0.7527 0.0000
vt 0.2148 0.7514 0.0000
vt 0.2146 0.7460 0.0000
vt 0.3373 0.7410 0.0768
vt 0.3375 0.7463 0.0000
vt 0.3833 0.7457 -0.0000
vt 0.3835 0.7510 -0.0000
vt 0.2163 0.7582 -0.0000
vt 0.2160 0.7529 -0.0000
vt 0.7621 0.7410 -0.0291
vt 0.7740 0.7464 -0.0291
vt 0.7718 0.7513 -0.0291
vt 0.6106 0.7409 -0.0291
vt 0.6009 0.7512 -0.0291
vt 0.5987 0.7463 -0.0291
vt 0.6106 0.9936 -0.0291
vt 0.5987 0.9882 -0.0291
vt 0.6009 0.9834 -0.0291
vt 0.7621 0.9937 -0.0291
vt 0.7718 0.9834 -0.0291
vt 0.7740 0.9883 -0.0291
vt 0.7599 0.7675 -0.0291
vt 0.6128 0.7674 -0.0291
vt 0.6128 0.9672 -0.0291
vt 0.7599 0.9672 -0.0291
vt 0.0504 0.7659 -0.0000
vt 0.0501 0.7606 -0.0000
vt 0.1994 0.7536 -0.0000
vt 0.1996 0.7589 -0.0000
vt 0.2015 0.7466 0.0000
vt 0.2017 0.7519 0.0000
vt 0.3503 0.7404 0.0000
vt 0.3505 0.7458 0.0000
vt 0.7770 0.7500 -0.0291
vt 0.7810 0.7662 -0.0291
vt 0.5957 0.7499 -0.0291
vt 0.5917 0.7661 -0.0291
vt 0.5957 0.9846 -0.0291
vt 0.5917 0.9684 -0.0291
vt 0.7770 0.9847 -0.0291
vt 0.7810 0.9685 -0.0291
vt 0.0008 0.7614 -0.0768
vt 0.0005 0.7560 0.0000
vt 0.3999 0.7450 -0.0768
vt 0.4002 0.7503 -0.0000
vt 0.0273 0.7656 -0.0314
vt 0.0031 0.7656 -0.0314
vt 0.0031 0.7630 0.0314
vt 0.0273 0.7630 0.0314
vt 0.0273 0.7898 0.0314
vt 0.0273 0.7924 0.0314
vt 0.0031 0.7924 0.0314
vt 0.0031 0.7898 0.0314
vt 0.9521 0.9082 0.0467
vt 0.9513 0.9205 -0.0467
vt 0.9391 0.9198 0.0467
vt 0.9398 0.9075 -0.0467
vt 0.0005 0.7898 0.0314
vt 0.0005 0.7656 0.0314
vt 0.0299 0.7656 0.0314
vt 0.0299 0.7898 0.0314
vt 0.0213 0.7716 0.0314
vt 0.0091 0.7716 0.0314
vt 0.0091 0.7839 0.0314
vt 0.0213 0.7839 0.0314
vt 0.9526 0.8991 -0.0467
vt 0.9403 0.8984 -0.0467
vt 0.9307 0.9070 -0.0467
vt 0.9299 0.9192 -0.0467
vt 0.9385 0.9289 -0.0467
vt 0.9508 0.9296 -0.0467
vt 0.9605 0.9210 -0.0467
vt 0.9612 0.9088 -0.0467
vt 0.0031 0.8214 0.1202
vt 0.0005 0.8214 -0.1202
vt 0.0005 0.7972 -0.1202
vt 0.0031 0.7972 -0.1202
vt 0.0273 0.8214 0.1202
vt 0.0273 0.7972 -0.1202
vt 0.0299 0.7972 -0.1202
vt 0.0299 0.8214 -0.1202
vt 0.8985 0.9082 0.0601
vt 0.9107 0.9075 -0.0601
vt 0.9115 0.9198 0.0601
vt 0.8992 0.9205 -0.0601
vt 0.0031 0.7946 -0.1202
vt 0.0273 0.7946 -0.1202
vt 0.0031 0.8240 -0.1202
vt 0.0273 0.8240 -0.1202
vt 0.0091 0.8031 -0.1202
vt 0.0091 0.8154 -0.1202
vt 0.0213 0.8031 -0.1202
vt 0.0213 0.8154 -0.1202
vt 0.8979 0.8991 -0.0601
vt 0.9102 0.8984 -0.0601
vt 0.9199 0.9070 -0.0601
vt 0.9206 0.9192 -0.0601
vt 0.9120 0.9289 -0.0601
vt 0.8997 0.9296 -0.0601
vt 0.8901 0.9210 -0.0601
vt 0.8893 0.9088 -0.0601
vt 0.7272 0.3254 0.1206
vt 0.9995 0.3254 -0.1206
vt 0.9995 0.6387 -0.1206
vt 0.7272 0.6387 0.1206
vt 0.7201 0.6387 0.1206
vt 0.7201 0.3254 0.1206
vt 0.7080 0.3254 0.1206
vt 0.7080 0.6387 0.1206
vt 0.7025 0.6387 0.1206
vt 0.7025 0.3254 0.1206
vt 0.7136 0.3254 0.1206
vt 0.7136 0.6387 0.1206
vt 0.6971 0.6387 0.1206
vt 0.6971 0.3254 0.1206
vt 0.6818 0.3254 0.1206
vt 0.6818 0.6387 0.1206
vt 0.9541 0.0005 0.1206
vt 0.9541 0.3139 0.1206
vt 0.6818 0.3139 -0.1206
vt 0.6818 0.0005 -0.1206
vt 0.9612 0.0005 0.1206
vt 0.9612 0.3139 0.1206
vt 0.9733 0.0005 0.1206
vt 0.9787 0.0005 0.1206
vt 0.9788 0.3139 0.1206
vt 0.9733 0.3139 0.1206
vt 0.9677 0.0005 0.1206
vt 0.9677 0.3139 0.1206
vt 0.9842 0.0005 0.1206
vt 0.9842 0.3139 0.1206
vt 0.9995 0.0005 0.1206
vt 0.9995 0.3139 0.1206
vt 0.8158 0.6465 0.0291
vt 0.8158 0.6412 -0.0291
vt 0.9630 0.6412 -0.0291
vt 0.9629 0.6466 -0.0291
vt 0.8158 0.8894 0.0291
vt 0.9629 0.8896 -0.0291
vt 0.9629 0.8949 -0.0291
vt 0.8158 0.8948 -0.0291
vt 0.9789 0.6682 -0.0291
vt 0.9842 0.6682 -0.0291
vt 0.9841 0.8680 -0.0291
vt 0.9788 0.8680 -0.0291
vt 0.7946 0.6681 -0.0291
vt 0.7999 0.6681 -0.0291
vt 0.8000 0.8678 -0.0291
vt 0.7946 0.8678 -0.0291
vt 0.9510 0.6628 -0.0291
vt 0.8278 0.6627 -0.0291
vt 0.9669 0.8518 -0.0291
vt 0.9669 0.6844 -0.0291
vt 0.8278 0.8733 -0.0291
vt 0.9510 0.8734 -0.0291
vt 0.8119 0.6843 -0.0291
vt 0.8119 0.8516 -0.0291
vt 0.8278 0.8679 -0.0291
vt 0.9510 0.8680 -0.0291
vt 0.9615 0.8518 -0.0291
vt 0.9616 0.6844 -0.0291
vt 0.9510 0.6681 -0.0291
vt 0.8278 0.6681 -0.0291
vt 0.8172 0.6843 -0.0291
vt 0.8172 0.8516 -0.0291
vt 0.8039 0.6519 -0.0291
vt 0.8017 0.6471 -0.0291
vt 0.8136 0.6417 -0.0291
vt 0.9652 0.6417 -0.0291
vt 0.9771 0.6471 -0.0291
vt 0.9749 0.6520 -0.0291
vt 0.9748 0.8842 -0.0291
vt 0.9770 0.8891 -0.0291
vt 0.9651 0.8945 -0.0291
vt 0.8136 0.8943 -0.0291
vt 0.8017 0.8889 -0.0291
vt 0.8039 0.8840 -0.0291
vt 0.8158 0.6681 -0.0291
vt 0.9629 0.6682 -0.0291
vt 0.9629 0.8680 -0.0291
vt 0.8159 0.8678 -0.0291
vt 0.9488 0.8685 -0.0291
vt 0.9607 0.8631 -0.0291
vt 0.8181 0.8630 -0.0291
vt 0.8300 0.8684 -0.0291
vt 0.9617 0.6856 -0.0291
vt 0.9577 0.6694 -0.0291
vt 0.8300 0.6676 -0.0291
vt 0.8180 0.6730 -0.0291
vt 0.7947 0.6669 -0.0291
vt 0.7987 0.6507 -0.0291
vt 0.9801 0.6507 -0.0291
vt 0.9840 0.6669 -0.0291
vt 0.9840 0.8693 -0.0291
vt 0.9800 0.8855 -0.0291
vt 0.7987 0.8853 -0.0291
vt 0.7948 0.8691 -0.0291
vt 0.9577 0.8667 -0.0291
vt 0.9617 0.8505 -0.0291
vt 0.8171 0.8504 -0.0291
vt 0.8210 0.8666 -0.0291
vt 0.9607 0.6730 -0.0291
vt 0.9488 0.6676 -0.0291
vt 0.8210 0.6694 -0.0291
vt 0.8171 0.6856 -0.0291
vt 0.0005 0.7160 -0.2481
vt 0.0005 0.0005 -0.2481
vt 0.3391 0.7366 -0.2481
vt 0.0211 0.7366 -0.2481
vt 0.6778 0.0005 -0.2481
vt 0.6778 0.7160 -0.2481
vt 0.6572 0.7366 -0.2481
# 257 texture coords

o Normal_People_Door
g Normal_People_Door
usemtl wire_115115115
s off
f 1/1/1 2/2/2 3/3/3 4/4/4 
f 2/2/2 5/5/4 6/6/4 3/3/3 
f 5/5/4 7/7/5 8/8/3 6/6/4 
f 7/7/5 1/1/1 4/4/4 8/8/3 
f 9/9/6 10/10/3 11/11/4 12/12/7 
f 12/12/7 11/11/4 13/13/3 5/5/4 
f 5/5/4 13/13/3 14/14/4 7/7/5 
f 7/7/5 14/14/4 10/10/3 9/9/6 
s 1
f 15/15/8 16/16/9 17/17/10 18/18/11 
f 19/19/12 20/20/13 21/21/14 22/22/15 
s 2
f 23/23/16 24/24/17 25/25/18 26/26/19 
f 27/27/20 28/28/21 29/29/22 30/30/23 
s 4
f 15/15/8 31/31/24 32/32/25 16/16/9 
f 23/23/16 33/33/26 34/34/27 24/24/17 
f 22/22/15 35/35/28 36/36/29 19/19/12 
f 29/29/22 37/37/30 38/38/31 30/30/23 
s 1
f 39/39/10 36/40/29 35/41/28 40/42/11 
s 2
f 41/43/20 34/44/27 33/45/26 42/46/21 
s 1
f 43/47/13 32/48/25 31/49/24 44/50/14 
s 2
f 45/51/18 38/52/31 37/53/30 46/54/19 
s 1
f 15/15/8 18/55/11 47/56/32 48/57/33 
f 17/58/10 16/16/9 49/59/34 50/60/35 
f 22/22/15 21/61/14 51/62/36 52/63/37 
f 20/64/13 19/19/12 53/65/38 54/66/39 
s 4
f 30/30/23 38/38/31 55/67/40 48/57/33 
f 16/16/9 32/32/25 56/68/41 49/59/34 
f 24/24/17 34/34/27 57/69/42 52/63/37 
f 19/19/12 36/36/29 58/70/43 53/65/38 
s 1
f 40/42/11 35/41/28 57/71/42 59/72/44 
f 36/40/29 39/39/10 60/73/35 58/74/43 
s 2
f 42/46/21 33/45/26 56/75/41 61/76/39 
s 1
f 44/50/14 31/49/24 55/77/40 62/78/45 
s 2
f 48/57/33 47/79/32 27/80/20 30/30/23 
f 50/81/35 49/59/34 23/23/16 26/82/19 
f 52/63/37 51/83/36 25/84/18 24/24/17 
f 54/85/39 53/65/38 29/29/22 28/86/21 
s 4
f 48/57/33 55/67/40 31/31/24 15/15/8 
f 49/59/34 56/68/41 33/33/26 23/23/16 
f 52/63/37 57/69/42 35/35/28 22/22/15 
f 53/65/38 58/70/43 37/37/30 29/29/22 
s 2
f 59/87/44 57/88/42 34/44/27 41/43/20 
f 58/74/43 60/73/35 46/54/19 37/53/30 
s 1
f 61/76/39 56/75/41 32/48/25 43/47/13 
s 2
f 62/89/45 55/90/40 38/52/31 45/51/18 
f 63/91/46 64/92/47 65/93/48 66/94/49 
s 4
f 67/95/50 68/96/51 69/97/52 70/98/53 
s 8
f 71/99/54 72/100/55 73/101/56 74/102/57 
s 16
f 64/92/47 70/98/53 69/103/52 65/104/48 
s 64
f 66/105/49 68/106/51 67/95/50 63/91/46 
s off
f 63/91/46 75/107/58 76/108/59 64/92/47 
f 64/92/47 76/108/59 77/109/60 70/98/53 
f 70/98/53 77/109/60 78/110/61 67/95/50 
f 67/95/50 78/110/61 75/107/58 63/91/46 
f 75/111/58 71/99/54 74/102/57 76/112/59 
f 76/113/59 74/102/57 73/101/56 77/114/60 
f 77/115/60 73/101/56 72/100/55 78/116/61 
f 78/117/61 72/100/55 71/99/54 75/118/58 
s 2
f 79/119/47 80/120/48 81/121/49 82/122/46 
s 4
f 83/123/53 84/124/50 85/125/51 86/126/52 
s 8
f 87/127/57 88/128/54 89/129/55 90/130/56 
s 16
f 82/122/46 81/131/49 85/132/51 84/124/50 
s 64
f 80/133/48 79/119/47 83/123/53 86/134/52 
s off
f 79/119/47 82/122/46 91/135/58 92/136/59 
f 82/122/46 84/124/50 93/137/61 91/135/58 
f 84/124/50 83/123/53 94/138/60 93/137/61 
f 83/123/53 79/119/47 92/136/59 94/138/60 
f 92/139/59 91/140/58 88/128/54 87/127/57 
f 91/141/58 93/142/61 89/129/55 88/128/54 
f 93/143/61 94/144/60 90/130/56 89/129/55 
f 94/145/60 92/146/59 87/127/57 90/130/56 
s 2
f 95/147/62 96/148/63 97/149/63 98/150/62 
f 95/147/62 98/150/62 99/151/64 100/152/64 
f 101/153/65 102/154/65 103/155/66 104/156/66 
f 105/157/67 106/158/67 102/154/65 101/153/65 
f 104/156/66 103/155/66 107/159/68 108/160/69 
f 109/161/70 108/160/69 107/159/68 110/162/70 
f 100/152/64 99/151/64 106/158/67 105/157/67 
f 111/163/71 112/164/71 113/165/72 114/166/72 
f 111/163/71 115/167/73 116/168/74 112/164/71 
f 117/169/75 118/170/76 119/171/76 120/172/75 
f 121/173/77 117/169/75 120/172/75 122/174/77 
f 118/170/76 123/175/78 124/176/78 119/171/76 
f 125/177/79 126/178/79 124/176/78 123/175/78 
f 115/167/73 121/173/77 122/174/77 116/168/74 
s 1
f 127/179/9 128/180/10 129/181/11 130/182/8 
f 131/183/15 132/184/12 133/185/13 134/186/14 
s 2
f 135/187/80 136/188/20 137/189/21 138/190/22 
f 139/191/19 140/192/16 141/193/17 142/194/18 
s 4
f 127/179/9 130/182/8 143/195/24 144/196/25 
f 135/187/80 138/190/22 145/197/30 146/198/31 
f 132/184/12 131/183/15 147/199/28 148/200/29 
f 141/193/17 140/192/16 149/201/26 150/202/27 
s 1
f 151/203/11 152/204/10 148/200/29 147/199/28 
s 2
f 153/205/19 154/206/18 146/198/31 145/197/30 
s 1
f 155/207/14 156/208/13 144/196/25 143/195/24 
s 2
f 157/209/21 158/210/20 150/202/27 149/201/26 
s 1
f 127/179/9 159/211/34 160/212/35 128/213/10 
f 129/214/11 161/215/44 162/216/33 130/182/8 
f 132/184/12 163/217/38 164/218/39 133/219/13 
f 134/220/14 165/221/81 166/222/82 131/183/15 
s 4
f 140/192/16 159/211/34 167/223/41 149/201/26 
f 130/182/8 162/216/33 168/224/83 143/195/24 
f 138/190/22 163/217/38 169/225/43 145/197/30 
f 131/183/15 166/222/82 170/226/42 147/199/28 
s 1
f 152/227/10 171/228/35 169/225/43 148/200/29 
f 147/199/28 170/226/42 172/229/44 151/230/11 
s 2
f 154/231/18 173/232/81 168/224/83 146/198/31 
s 1
f 156/233/13 174/234/39 167/223/41 144/196/25 
s 2
f 159/211/34 140/192/16 139/235/19 160/236/35 
f 161/237/44 136/238/20 135/187/80 162/216/33 
f 163/217/38 138/190/22 137/239/21 164/240/39 
f 165/241/81 142/242/18 141/193/17 166/222/82 
s 4
f 159/211/34 127/179/9 144/196/25 167/223/41 
f 162/216/33 135/187/80 146/198/31 168/224/83 
f 163/217/38 132/184/12 148/200/29 169/225/43 
f 166/222/82 141/193/17 150/202/27 170/226/42 
s 2
f 171/243/35 153/244/19 145/197/30 169/225/43 
f 170/226/42 150/202/27 158/245/20 172/246/44 
s 1
f 173/247/81 155/248/14 143/195/24 168/224/83 
s 2
f 174/249/39 157/250/21 149/201/26 167/223/41 
s off
f 10/10/3 14/14/4 13/13/3 11/11/4 
f 3/3/3 6/6/4 8/8/3 4/4/4 
f 2/2/2 1/1/1 175/251/84 176/252/85 
f 1/1/1 7/7/5 177/253/86 175/254/84 
f 9/9/6 12/12/7 178/255/87 179/256/88 
f 7/7/5 9/9/6 179/257/88 177/253/86 
# 126 polygons

