# 3ds Max Wavefront OBJ Exporter v0.97b - (c)2007 guruware
# File Created: 21.03.2018 22:27:47

mtllib Lab Flask.mtl

#
# object Lab_Flask
#

v  0.4564 0.0000 -0.0054
v  0.3953 0.0000 -0.2336
v  0.3953 2.9155 -0.2336
v  0.4564 2.9155 -0.0054
v  0.2282 0.0000 -0.4007
v  0.2282 2.9155 -0.4007
v  -0.0000 0.0000 -0.4619
v  -0.0000 2.9155 -0.4619
v  -0.2282 0.0000 -0.4007
v  -0.2282 2.9155 -0.4007
v  -0.3953 0.0000 -0.2336
v  -0.3953 2.9155 -0.2336
v  -0.4564 0.0000 -0.0054
v  -0.4564 2.9155 -0.0054
v  -0.3953 0.0000 0.2228
v  -0.3953 2.9155 0.2228
v  -0.2282 0.0000 0.3899
v  -0.2282 2.9155 0.3899
v  -0.0000 0.0000 0.4510
v  -0.0000 2.9155 0.4510
v  0.2282 0.0000 0.3899
v  0.2282 2.9155 0.3899
v  0.3953 0.0000 0.2228
v  0.3953 2.9155 0.2228
v  0.1577 3.9928 -0.0054
v  0.1366 3.9928 -0.0843
v  0.0789 3.9928 -0.1420
v  0.0000 3.9928 -0.1632
v  0.2525 3.1060 -0.1512
v  0.2915 3.1060 -0.0054
v  0.1458 3.1060 -0.2579
v  -0.0000 3.1060 -0.2969
v  -0.1458 3.1060 -0.2579
v  -0.2525 3.1060 -0.1512
v  -0.2915 3.1060 -0.0054
v  -0.2525 3.1060 0.1404
v  -0.1458 3.1060 0.2471
v  -0.0000 3.1060 0.2861
v  0.1458 3.1060 0.2471
v  0.2525 3.1060 0.1404
v  0.2525 3.4209 -0.1512
v  0.2915 3.4209 -0.0054
v  0.1458 3.4209 -0.2579
v  -0.0000 3.4209 -0.2969
v  -0.1458 3.4209 -0.2579
v  -0.2525 3.4209 -0.1512
v  -0.2915 3.4209 -0.0054
v  -0.2525 3.4209 0.1404
v  -0.1458 3.4209 0.2471
v  -0.0000 3.4209 0.2861
v  0.1458 3.4209 0.2471
v  0.2525 3.4209 0.1404
v  0.3765 3.4209 -0.0054
v  0.3260 3.4209 -0.1936
v  0.3260 3.5760 -0.1936
v  0.3765 3.5760 -0.0054
v  0.1882 3.4209 -0.3314
v  0.1882 3.5760 -0.3314
v  -0.0000 3.4209 -0.3819
v  0.0000 3.5760 -0.3819
v  -0.1882 3.4209 -0.3314
v  -0.1882 3.5760 -0.3314
v  -0.3260 3.4209 -0.1936
v  -0.3260 3.5760 -0.1936
v  -0.3765 3.4209 -0.0054
v  -0.3765 3.5760 -0.0054
v  -0.3260 3.4209 0.1828
v  -0.3260 3.5760 0.1828
v  -0.1882 3.4209 0.3206
v  -0.1882 3.5760 0.3206
v  -0.0000 3.4209 0.3710
v  -0.0000 3.5760 0.3710
v  0.1882 3.4209 0.3206
v  0.1882 3.5760 0.3206
v  0.3260 3.4209 0.1828
v  0.3260 3.5760 0.1828
v  0.2037 3.9928 -0.0054
v  0.1764 3.9928 -0.1073
v  0.1366 3.9928 0.0735
v  0.1764 3.9928 0.0964
v  0.0789 3.9928 0.1312
v  0.1019 3.9928 0.1710
v  0.0000 3.9928 0.1523
v  0.0000 3.9928 0.1983
v  -0.0789 3.9928 0.1312
v  -0.1019 3.9928 0.1710
v  -0.1366 3.9928 0.0735
v  -0.1764 3.9928 0.0964
v  -0.1577 3.9928 -0.0054
v  -0.2037 3.9928 -0.0054
v  -0.1366 3.9928 -0.0843
v  -0.1764 3.9928 -0.1073
v  -0.0789 3.9928 -0.1420
v  -0.1019 3.9928 -0.1818
v  0.0000 3.9928 -0.2091
v  0.1019 3.9928 -0.1818
v  0.3260 3.6246 -0.1936
v  0.3765 3.6246 -0.0054
v  0.1882 3.6246 -0.3314
v  0.0000 3.6246 -0.3819
v  -0.1882 3.6246 -0.3314
v  -0.3260 3.6246 -0.1936
v  -0.3765 3.6246 -0.0054
v  -0.3260 3.6246 0.1828
v  -0.1882 3.6246 0.3206
v  -0.0000 3.6246 0.3710
v  0.1882 3.6246 0.3206
v  0.3260 3.6246 0.1828
v  0.4234 3.6246 -0.0054
v  0.3666 3.6246 -0.2171
v  0.2700 3.8360 -0.1613
v  0.3118 3.8360 -0.0054
v  0.2117 3.6246 -0.3720
v  0.1559 3.8360 -0.2754
v  0.0000 3.6246 -0.4288
v  0.0000 3.8360 -0.3172
v  -0.2117 3.6246 -0.3720
v  -0.1559 3.8360 -0.2754
v  -0.3666 3.6246 -0.2171
v  -0.2700 3.8360 -0.1613
v  -0.4234 3.6246 -0.0054
v  -0.3118 3.8360 -0.0054
v  -0.3666 3.6246 0.2063
v  -0.2700 3.8360 0.1505
v  -0.2117 3.6246 0.3612
v  -0.1559 3.8360 0.2646
v  -0.0000 3.6246 0.4179
v  -0.0000 3.8360 0.3064
v  0.2117 3.6246 0.3612
v  0.1559 3.8360 0.2646
v  0.3666 3.6246 0.2063
v  0.2700 3.8360 0.1505
v  0.8170 -0.6995 -0.0054
v  0.7075 -0.6995 -0.4139
v  0.4085 -0.6995 -0.7130
v  -0.0000 -0.6995 -0.8224
v  -0.4085 -0.6995 -0.7130
v  -0.7075 -0.6995 -0.4139
v  -0.8170 -0.6995 -0.0054
v  -0.7075 -0.6995 0.4031
v  -0.4085 -0.6995 0.7021
v  -0.0000 -0.6995 0.8116
v  0.4085 -0.6995 0.7021
v  0.7075 -0.6995 0.4031
v  1.2051 -1.4864 -0.0054
v  1.0436 -1.4864 -0.6080
v  0.6025 -1.4864 -1.0490
v  -0.0000 -1.4864 -1.2105
v  -0.6025 -1.4864 -1.0490
v  -1.0436 -1.4864 -0.6080
v  -1.2051 -1.4864 -0.0054
v  -1.0436 -1.4864 0.5971
v  -0.6025 -1.4864 1.0382
v  -0.0000 -1.4864 1.1997
v  0.6025 -1.4864 1.0382
v  1.0436 -1.4864 0.5971
v  1.5046 -2.3295 -0.0054
v  1.3030 -2.3295 -0.7577
v  0.7523 -2.3295 -1.3084
v  -0.0000 -2.3295 -1.5100
v  -0.7523 -2.3295 -1.3084
v  -1.3030 -2.3295 -0.7577
v  -1.5046 -2.3295 -0.0054
v  -1.3030 -2.3295 0.7469
v  -0.7523 -2.3295 1.2976
v  -0.0000 -2.3295 1.4992
v  0.7523 -2.3295 1.2976
v  1.3030 -2.3295 0.7469
v  1.7440 -3.5158 -0.0054
v  1.5103 -3.5158 -0.8774
v  0.8720 -3.5158 -1.5157
v  0.0000 -3.5158 -1.7494
v  -0.8720 -3.5158 -1.5157
v  -1.5103 -3.5158 -0.8774
v  -1.7440 -3.5158 -0.0054
v  -1.5103 -3.5158 0.8666
v  -0.8720 -3.5158 1.5049
v  -0.0000 -3.5158 1.7386
v  0.8720 -3.5158 1.5049
v  1.5103 -3.5158 0.8666
v  1.4106 -4.0156 -0.0054
v  1.2216 -4.0156 -0.7107
v  0.7053 -4.0156 -1.2270
v  -0.0000 -4.0156 -1.4160
v  -0.7053 -4.0156 -1.2270
v  -1.2216 -4.0156 -0.7107
v  -1.4106 -4.0156 -0.0054
v  -1.2216 -4.0156 0.6999
v  -0.7053 -4.0156 1.2162
v  -0.0000 -4.0156 1.4052
v  0.7053 -4.0156 1.2162
v  1.2216 -4.0156 0.6999
# 192 vertices

vn 0.9695 0.2452 -0.0000
vn 0.8396 0.2452 -0.4847
vn 0.8170 0.3317 -0.4717
vn 0.9434 0.3317 0.0000
vn 0.4848 0.2452 -0.8396
vn 0.4717 0.3317 -0.8170
vn -0.0000 0.2452 -0.9695
vn -0.0000 0.3317 -0.9434
vn -0.4847 0.2452 -0.8396
vn -0.4717 0.3317 -0.8170
vn -0.8396 0.2452 -0.4847
vn -0.8170 0.3317 -0.4717
vn -0.9695 0.2452 -0.0000
vn -0.9434 0.3317 -0.0000
vn -0.8396 0.2452 0.4847
vn -0.8170 0.3317 0.4717
vn -0.4847 0.2452 0.8396
vn -0.4717 0.3317 0.8170
vn -0.0000 0.2452 0.9695
vn -0.0000 0.3317 0.9434
vn 0.4848 0.2452 0.8396
vn 0.4717 0.3317 0.8170
vn 0.8396 0.2452 0.4848
vn 0.8170 0.3317 0.4717
vn 0.0000 1.0000 -0.0000
vn 0.8047 0.3696 -0.4646
vn 0.9292 0.3696 -0.0000
vn 0.4646 0.3697 -0.8047
vn -0.0000 0.3697 -0.9292
vn -0.4646 0.3697 -0.8047
vn -0.8047 0.3697 -0.4646
vn -0.9292 0.3697 -0.0000
vn -0.8047 0.3697 0.4646
vn -0.4646 0.3696 0.8047
vn -0.0000 0.3696 0.9292
vn 0.4646 0.3696 0.8047
vn 0.8047 0.3696 0.4646
vn 0.5523 -0.7703 -0.3189
vn 0.6377 -0.7703 -0.0000
vn 0.3189 -0.7703 -0.5522
vn -0.0000 -0.7703 -0.6377
vn -0.3188 -0.7703 -0.5523
vn -0.5523 -0.7703 -0.3188
vn -0.6378 -0.7702 0.0000
vn -0.5522 -0.7703 0.3189
vn -0.3189 -0.7703 0.5523
vn -0.0000 -0.7703 0.6377
vn 0.3189 -0.7703 0.5523
vn 0.5523 -0.7703 0.3189
vn 0.7572 -0.6532 0.0000
vn 0.6557 -0.6532 -0.3786
vn 0.8660 0.0000 -0.5000
vn 1.0000 -0.0000 0.0000
vn 0.3786 -0.6532 -0.6557
vn 0.5000 0.0000 -0.8660
vn -0.0000 -0.6532 -0.7572
vn 0.0000 -0.0000 -1.0000
vn -0.3785 -0.6533 -0.6557
vn -0.5000 0.0000 -0.8660
vn -0.6557 -0.6533 -0.3785
vn -0.8660 0.0000 -0.5000
vn -0.7571 -0.6533 -0.0000
vn -1.0000 -0.0000 0.0000
vn -0.6557 -0.6533 0.3785
vn -0.8660 0.0000 0.5000
vn -0.3785 -0.6533 0.6557
vn -0.5000 0.0000 0.8660
vn -0.0000 -0.6533 0.7571
vn -0.0000 -0.0000 1.0000
vn 0.3785 -0.6533 0.6557
vn 0.5000 0.0000 0.8660
vn 0.6557 -0.6533 0.3785
vn 0.8660 0.0000 0.5000
vn 0.5213 0.8534 0.0000
vn 0.4515 0.8534 -0.2607
vn 0.4515 0.8534 0.2607
vn 0.2607 0.8534 0.4515
vn 0.0000 0.8534 0.5213
vn -0.2607 0.8534 0.4515
vn -0.4515 0.8534 0.2607
vn -0.5213 0.8534 0.0000
vn -0.4515 0.8534 -0.2607
vn -0.2607 0.8534 -0.4515
vn 0.0000 0.8534 -0.5213
vn 0.2607 0.8534 -0.4515
vn 0.6377 -0.7703 0.0000
vn 0.3189 -0.7703 -0.5523
vn 0.0000 -0.7703 -0.6377
vn -0.6377 -0.7703 0.0000
vn -0.5523 -0.7703 0.3188
vn -0.3188 -0.7703 0.5523
vn 0.3188 -0.7703 0.5522
vn 0.5523 -0.7703 0.3188
vn 0.8866 -0.4625 -0.0000
vn 0.7678 -0.4625 -0.4433
vn 0.7430 0.5137 -0.4290
vn 0.8580 0.5137 -0.0000
vn 0.4433 -0.4625 -0.7678
vn 0.4290 0.5137 -0.7430
vn 0.0000 -0.4625 -0.8866
vn 0.0000 0.5137 -0.8580
vn -0.4433 -0.4625 -0.7679
vn -0.4290 0.5137 -0.7430
vn -0.7679 -0.4625 -0.4433
vn -0.7430 0.5137 -0.4290
vn -0.8866 -0.4625 0.0000
vn -0.8580 0.5137 0.0000
vn -0.7678 -0.4625 0.4433
vn -0.7430 0.5137 0.4290
vn -0.4433 -0.4625 0.7678
vn -0.4290 0.5137 0.7430
vn -0.0000 -0.4625 0.8866
vn -0.0000 0.5137 0.8580
vn 0.4433 -0.4625 0.7678
vn 0.4290 0.5137 0.7430
vn 0.7678 -0.4625 0.4433
vn 0.7430 0.5137 0.4290
vn 0.8932 0.4497 0.0000
vn 0.7735 0.4497 -0.4466
vn 0.4466 0.4497 -0.7735
vn -0.0000 0.4497 -0.8932
vn -0.4466 0.4497 -0.7735
vn -0.7735 0.4497 -0.4466
vn -0.8932 0.4497 -0.0000
vn -0.7735 0.4497 0.4466
vn -0.4466 0.4497 0.7735
vn -0.0000 0.4497 0.8932
vn 0.4466 0.4497 0.7735
vn 0.7735 0.4497 0.4466
vn 0.9226 0.3858 0.0000
vn 0.7990 0.3858 -0.4613
vn 0.4613 0.3858 -0.7990
vn 0.0000 0.3858 -0.9226
vn -0.4613 0.3858 -0.7990
vn -0.7990 0.3858 -0.4613
vn -0.9226 0.3858 -0.0000
vn -0.7990 0.3858 0.4613
vn -0.4613 0.3858 0.7990
vn -0.0000 0.3858 0.9226
vn 0.4613 0.3858 0.7990
vn 0.7990 0.3858 0.4613
vn 0.9645 0.2640 0.0000
vn 0.8353 0.2640 -0.4823
vn 0.4823 0.2640 -0.8353
vn 0.0000 0.2640 -0.9645
vn -0.4823 0.2640 -0.8353
vn -0.8353 0.2640 -0.4823
vn -0.9645 0.2640 -0.0000
vn -0.8353 0.2640 0.4823
vn -0.4823 0.2640 0.8353
vn -0.0000 0.2640 0.9645
vn 0.4823 0.2640 0.8353
vn 0.8353 0.2640 0.4823
vn 0.9832 -0.1823 0.0000
vn 0.8515 -0.1823 -0.4916
vn 0.4916 -0.1823 -0.8515
vn 0.0000 -0.1823 -0.9832
vn -0.4916 -0.1823 -0.8515
vn -0.8515 -0.1823 -0.4916
vn -0.9832 -0.1823 -0.0000
vn -0.8515 -0.1823 0.4916
vn -0.4916 -0.1823 0.8515
vn -0.0000 -0.1823 0.9832
vn 0.4916 -0.1823 0.8515
vn 0.8515 -0.1823 0.4916
vn 0.5283 -0.8491 0.0000
vn 0.4575 -0.8491 -0.2642
vn 0.2642 -0.8491 -0.4575
vn 0.0000 -0.8491 -0.5283
vn -0.2642 -0.8491 -0.4575
vn -0.4575 -0.8491 -0.2642
vn -0.5283 -0.8491 -0.0000
vn -0.4575 -0.8491 0.2642
vn -0.2642 -0.8491 0.4575
vn -0.0000 -0.8491 0.5283
vn 0.2642 -0.8491 0.4575
vn 0.4575 -0.8491 0.2642
# 177 vertex normals

vt 0.1978 0.4376 -2.6356
vt 0.2253 0.4269 -2.6356
vt 0.2670 0.7863 -2.6356
vt 0.2368 0.7939 -2.6356
vt 0.2560 0.4173 -2.6356
vt 0.2951 0.7814 -2.6356
vt 0.2886 0.4094 -2.6356
vt 0.3222 0.7779 -2.6356
vt 0.3225 0.4034 -2.6356
vt 0.3490 0.7752 -2.6356
vt 0.3571 0.3994 -2.6356
vt 0.3757 0.7732 -2.6356
vt 0.3922 0.3976 -2.6356
vt 0.4022 0.7719 -2.6356
vt 0.4271 0.3980 -2.6356
vt 0.4287 0.7713 -2.6356
vt 0.4616 0.4005 -2.6356
vt 0.4551 0.7714 -2.6356
vt 0.4951 0.4050 -2.6356
vt 0.4814 0.7724 -2.6356
vt 0.5273 0.4114 -2.6356
vt 0.5078 0.7742 -2.6356
vt 0.5577 0.4193 -2.6356
vt 0.5342 0.7775 -2.6356
vt 0.5858 0.4286 -2.6356
vt 0.5621 0.7832 -2.6356
vt 0.1447 0.3896 0.0000
vt 0.1424 0.3982 0.0000
vt 0.1361 0.4045 0.0000
vt 0.1275 0.4068 0.0000
vt 0.2757 0.8233 -2.6356
vt 0.2523 0.8289 -2.6356
vt 0.3003 0.8188 -2.6356
vt 0.3256 0.8152 -2.6356
vt 0.3512 0.8123 -2.6356
vt 0.3768 0.8101 -2.6356
vt 0.4023 0.8086 -2.6356
vt 0.4278 0.8078 -2.6356
vt 0.4532 0.8076 -2.6356
vt 0.4785 0.8080 -2.6356
vt 0.5033 0.8089 -2.6356
vt 0.5274 0.8105 -2.6356
vt 0.5494 0.8135 -2.6356
vt 0.2817 0.8751 -2.6356
vt 0.2581 0.8758 -2.6356
vt 0.3063 0.8738 -2.6356
vt 0.3308 0.8696 -2.6356
vt 0.3553 0.8662 -2.6356
vt 0.3794 0.8638 -2.6356
vt 0.4036 0.8622 -2.6356
vt 0.4277 0.8613 -2.6356
vt 0.4516 0.8610 -2.6356
vt 0.4758 0.8615 -2.6356
vt 0.5001 0.8623 -2.6356
vt 0.5247 0.8625 -2.6356
vt 0.5492 0.8606 -2.6356
vt 0.2548 0.8875 -2.6356
vt 0.2822 0.8880 -2.6356
vt 0.2844 0.9093 -2.6356
vt 0.2555 0.9118 -2.6356
vt 0.3076 0.8852 -2.6356
vt 0.3104 0.9051 -2.6356
vt 0.3322 0.8815 -2.6356
vt 0.3349 0.9008 -2.6356
vt 0.3563 0.8781 -2.6356
vt 0.3589 0.8976 -2.6356
vt 0.3800 0.8758 -2.6356
vt 0.3820 0.8947 -2.6356
vt 0.4038 0.8740 -2.6356
vt 0.4054 0.8926 -2.6356
vt 0.4275 0.8732 -2.6356
vt 0.4285 0.8920 -2.6356
vt 0.4511 0.8729 -2.6356
vt 0.4512 0.8918 -2.6356
vt 0.4750 0.8734 -2.6356
vt 0.4747 0.8924 -2.6356
vt 0.4993 0.8746 -2.6356
vt 0.4987 0.8945 -2.6356
vt 0.5246 0.8756 -2.6356
vt 0.5242 0.8965 -2.6356
vt 0.5538 0.8742 -2.6356
vt 0.5530 0.8984 -2.6356
vt 0.1497 0.3896 0.0000
vt 0.1468 0.4007 0.0000
vt 0.1424 0.3810 0.0000
vt 0.1468 0.3785 0.0000
vt 0.1361 0.3747 0.0000
vt 0.1386 0.3704 0.0000
vt 0.1275 0.3724 0.0000
vt 0.1275 0.3674 0.0000
vt 0.1189 0.3747 0.0000
vt 0.1164 0.3704 0.0000
vt 0.1126 0.3810 0.0000
vt 0.1083 0.3785 0.0000
vt 0.1103 0.3896 0.0000
vt 0.1053 0.3896 0.0000
vt 0.1126 0.3982 0.0000
vt 0.1083 0.4007 0.0000
vt 0.1189 0.4045 0.0000
vt 0.1164 0.4088 0.0000
vt 0.1275 0.4118 0.0000
vt 0.1386 0.4088 0.0000
vt 0.2853 0.9161 -2.6356
vt 0.2562 0.9192 -2.6356
vt 0.3113 0.9113 -2.6356
vt 0.3359 0.9065 -2.6356
vt 0.3596 0.9033 -2.6356
vt 0.3825 0.9003 -2.6356
vt 0.4056 0.8981 -2.6356
vt 0.4285 0.8976 -2.6356
vt 0.4510 0.8973 -2.6356
vt 0.4744 0.8980 -2.6356
vt 0.4981 0.9005 -2.6356
vt 0.5236 0.9030 -2.6356
vt 0.5525 0.9053 -2.6356
vt 0.2551 0.9258 -2.6356
vt 0.2861 0.9220 -2.6356
vt 0.2971 0.9558 -2.6356
vt 0.2702 0.9684 -2.6356
vt 0.3123 0.9170 -2.6356
vt 0.3210 0.9475 -2.6356
vt 0.3369 0.9125 -2.6356
vt 0.3436 0.9414 -2.6356
vt 0.3603 0.9080 -2.6356
vt 0.3655 0.9368 -2.6356
vt 0.3829 0.9055 -2.6356
vt 0.3869 0.9337 -2.6356
vt 0.4060 0.9038 -2.6356
vt 0.4084 0.9316 -2.6356
vt 0.4286 0.9022 -2.6356
vt 0.4299 0.9304 -2.6356
vt 0.4509 0.9025 -2.6356
vt 0.4511 0.9303 -2.6356
vt 0.4740 0.9038 -2.6356
vt 0.4724 0.9314 -2.6356
vt 0.4976 0.9054 -2.6356
vt 0.4938 0.9342 -2.6356
vt 0.5227 0.9094 -2.6356
vt 0.5158 0.9396 -2.6356
vt 0.5538 0.9131 -2.6356
vt 0.5388 0.9488 -2.6356
vt 0.3129 0.9881 2.6431
vt 0.2948 0.9995 -2.6356
vt 0.5205 0.9764 -2.6356
vt 0.5046 0.9682 -2.6356
vt 0.4875 0.9628 -2.6356
vt 0.4692 0.9610 -2.6356
vt 0.4503 0.9609 -2.6356
vt 0.4307 0.9620 -2.6356
vt 0.4106 0.9642 -2.6356
vt 0.3904 0.9645 -2.6356
vt 0.3711 0.9683 -2.6356
vt 0.3515 0.9732 -2.6356
vt 0.3320 0.9797 -2.6356
vt 0.1406 0.3675 -2.6356
vt 0.1797 0.3410 -2.6356
vt 0.2210 0.3216 -2.6356
vt 0.2636 0.3076 -2.6356
vt 0.3070 0.2981 -2.6356
vt 0.3509 0.2927 -2.6356
vt 0.3949 0.2911 -2.6356
vt 0.4386 0.2933 -2.6356
vt 0.4817 0.2993 -2.6356
vt 0.5236 0.3092 -2.6356
vt 0.5638 0.3233 -2.6356
vt 0.6014 0.3421 -2.6356
vt 0.6348 0.3659 -2.6356
vt 0.0807 0.2936 -2.6356
vt 0.1356 0.2619 -2.6356
vt 0.1891 0.2397 -2.6356
vt 0.2416 0.2241 -2.6356
vt 0.2938 0.2138 -2.6356
vt 0.3456 0.2083 -2.6356
vt 0.3972 0.2072 -2.6356
vt 0.4484 0.2106 -2.6356
vt 0.4992 0.2185 -2.6356
vt 0.5493 0.2313 -2.6356
vt 0.5985 0.2496 -2.6356
vt 0.6463 0.2746 -2.6356
vt 0.6914 0.3080 -2.6356
vt 0.0347 0.2135 -2.6356
vt 0.1032 0.1865 -2.6356
vt 0.1656 0.1669 -2.6356
vt 0.2252 0.1526 -2.6356
vt 0.2836 0.1429 -2.6356
vt 0.3414 0.1377 -2.6356
vt 0.3989 0.1370 -2.6356
vt 0.4561 0.1408 -2.6356
vt 0.5131 0.1494 -2.6356
vt 0.5700 0.1631 -2.6356
vt 0.6270 0.1823 -2.6356
vt 0.6851 0.2085 -2.6356
vt 0.7445 0.2444 -2.6356
vt 0.0005 0.1024 -2.6356
vt 0.0762 0.0908 -2.6356
vt 0.1430 0.0775 -2.6356
vt 0.2076 0.0654 -2.6356
vt 0.2716 0.0563 -2.6356
vt 0.3356 0.0512 -2.6356
vt 0.3995 0.0505 -2.6356
vt 0.4634 0.0544 -2.6356
vt 0.5271 0.0631 -2.6356
vt 0.5910 0.0764 -2.6356
vt 0.6556 0.0945 -2.6356
vt 0.7231 0.1174 -2.6356
vt 0.8020 0.1447 -2.6356
vt 0.0029 0.0481 -2.6356
vt 0.0685 0.0415 -2.6431
vt 0.1337 0.0286 -2.6356
vt 0.1996 0.0161 -2.6356
vt 0.2663 0.0066 -2.6356
vt 0.3336 0.0012 -2.6356
vt 0.4010 0.0005 -2.6356
vt 0.4684 0.0045 -2.6356
vt 0.5357 0.0131 -2.6356
vt 0.6029 0.0263 -2.6356
vt 0.6704 0.0435 -2.6356
vt 0.7392 0.0636 -2.6356
vt 0.8117 0.0823 -2.6356
vt 0.5532 0.8357 0.0000
vt 0.5738 0.7588 0.0000
vt 0.6301 0.9689 0.0000
vt 0.5738 0.9126 0.0000
vt 0.8402 0.9126 0.0000
vt 0.7839 0.9689 0.0000
vt 0.7070 0.9895 0.0000
vt 0.7839 0.7025 0.0000
vt 0.8402 0.7588 0.0000
vt 0.8608 0.8357 0.0000
vt 0.6301 0.7025 0.0000
vt 0.7070 0.6819 -0.0000
# 231 texture coords

o Lab_Flask
g Lab_Flask
usemtl wire_115115115
s 8
f 1/1/1 2/2/2 3/3/3 4/4/4 
f 2/2/2 5/5/5 6/6/6 3/3/3 
f 5/5/5 7/7/7 8/8/8 6/6/6 
f 7/7/7 9/9/9 10/10/10 8/8/8 
f 9/9/9 11/11/11 12/12/12 10/10/10 
f 11/11/11 13/13/13 14/14/14 12/12/12 
f 13/13/13 15/15/15 16/16/16 14/14/14 
f 15/15/15 17/17/17 18/18/18 16/16/16 
f 17/17/17 19/19/19 20/20/20 18/18/18 
f 19/19/19 21/21/21 22/22/22 20/20/20 
f 21/21/21 23/23/23 24/24/24 22/22/22 
f 23/23/23 1/25/1 4/26/4 24/24/24 
s 1
f 25/27/25 26/28/25 27/29/25 28/30/25 
s off
f 4/4/4 3/3/3 29/31/26 30/32/27 
f 3/3/3 6/6/6 31/33/28 29/31/26 
f 6/6/6 8/8/8 32/34/29 31/33/28 
f 8/8/8 10/10/10 33/35/30 32/34/29 
f 10/10/10 12/12/12 34/36/31 33/35/30 
f 12/12/12 14/14/14 35/37/32 34/36/31 
f 14/14/14 16/16/16 36/38/33 35/37/32 
f 16/16/16 18/18/18 37/39/34 36/38/33 
f 18/18/18 20/20/20 38/40/35 37/39/34 
f 20/20/20 22/22/22 39/41/36 38/40/35 
f 22/22/22 24/24/24 40/42/37 39/41/36 
f 24/24/24 4/26/4 30/43/27 40/42/37 
f 30/32/27 29/31/26 41/44/38 42/45/39 
f 29/31/26 31/33/28 43/46/40 41/44/38 
f 31/33/28 32/34/29 44/47/41 43/46/40 
f 32/34/29 33/35/30 45/48/42 44/47/41 
f 33/35/30 34/36/31 46/49/43 45/48/42 
f 34/36/31 35/37/32 47/50/44 46/49/43 
f 35/37/32 36/38/33 48/51/45 47/50/44 
f 36/38/33 37/39/34 49/52/46 48/51/45 
f 37/39/34 38/40/35 50/53/47 49/52/46 
f 38/40/35 39/41/36 51/54/48 50/53/47 
f 39/41/36 40/42/37 52/55/49 51/54/48 
f 40/42/37 30/43/27 42/56/39 52/55/49 
f 53/57/50 54/58/51 55/59/52 56/60/53 
f 54/58/51 57/61/54 58/62/55 55/59/52 
f 57/61/54 59/63/56 60/64/57 58/62/55 
f 59/63/56 61/65/58 62/66/59 60/64/57 
f 61/65/58 63/67/60 64/68/61 62/66/59 
f 63/67/60 65/69/62 66/70/63 64/68/61 
f 65/69/62 67/71/64 68/72/65 66/70/63 
f 67/71/64 69/73/66 70/74/67 68/72/65 
f 69/73/66 71/75/68 72/76/69 70/74/67 
f 71/75/68 73/77/70 74/78/71 72/76/69 
f 73/77/70 75/79/72 76/80/73 74/78/71 
f 75/79/72 53/81/50 56/82/53 76/80/73 
f 42/45/39 41/44/38 54/58/51 53/57/50 
f 41/44/38 43/46/40 57/61/54 54/58/51 
f 43/46/40 44/47/41 59/63/56 57/61/54 
f 44/47/41 45/48/42 61/65/58 59/63/56 
f 45/48/42 46/49/43 63/67/60 61/65/58 
f 46/49/43 47/50/44 65/69/62 63/67/60 
f 47/50/44 48/51/45 67/71/64 65/69/62 
f 48/51/45 49/52/46 69/73/66 67/71/64 
f 49/52/46 50/53/47 71/75/68 69/73/66 
f 50/53/47 51/54/48 73/77/70 71/75/68 
f 51/54/48 52/55/49 75/79/72 73/77/70 
f 52/55/49 42/56/39 53/81/50 75/79/72 
f 26/28/25 25/27/25 77/83/74 78/84/75 
f 25/27/25 79/85/25 80/86/76 77/83/74 
f 79/85/25 81/87/25 82/88/77 80/86/76 
f 81/87/25 83/89/25 84/90/78 82/88/77 
f 83/89/25 85/91/25 86/92/79 84/90/78 
f 85/91/25 87/93/25 88/94/80 86/92/79 
f 87/93/25 89/95/25 90/96/81 88/94/80 
f 89/95/25 91/97/25 92/98/82 90/96/81 
f 91/97/25 93/99/25 94/100/83 92/98/82 
f 93/99/25 28/30/25 95/101/84 94/100/83 
f 28/30/25 27/29/25 96/102/85 95/101/84 
f 27/29/25 26/28/25 78/84/75 96/102/85 
f 56/60/53 55/59/52 97/103/38 98/104/86 
f 55/59/52 58/62/55 99/105/87 97/103/38 
f 58/62/55 60/64/57 100/106/88 99/105/87 
f 60/64/57 62/66/59 101/107/42 100/106/88 
f 62/66/59 64/68/61 102/108/43 101/107/42 
f 64/68/61 66/70/63 103/109/89 102/108/43 
f 66/70/63 68/72/65 104/110/90 103/109/89 
f 68/72/65 70/74/67 105/111/91 104/110/90 
f 70/74/67 72/76/69 106/112/47 105/111/91 
f 72/76/69 74/78/71 107/113/92 106/112/47 
f 74/78/71 76/80/73 108/114/93 107/113/92 
f 76/80/73 56/82/53 98/115/86 108/114/93 
f 109/116/94 110/117/95 111/118/96 112/119/97 
f 110/117/95 113/120/98 114/121/99 111/118/96 
f 113/120/98 115/122/100 116/123/101 114/121/99 
f 115/122/100 117/124/102 118/125/103 116/123/101 
f 117/124/102 119/126/104 120/127/105 118/125/103 
f 119/126/104 121/128/106 122/129/107 120/127/105 
f 121/128/106 123/130/108 124/131/109 122/129/107 
f 123/130/108 125/132/110 126/133/111 124/131/109 
f 125/132/110 127/134/112 128/135/113 126/133/111 
f 127/134/112 129/136/114 130/137/115 128/135/113 
f 129/136/114 131/138/116 132/139/117 130/137/115 
f 131/138/116 109/140/94 112/141/97 132/139/117 
f 98/104/86 97/103/38 110/117/95 109/116/94 
f 97/103/38 99/105/87 113/120/98 110/117/95 
f 99/105/87 100/106/88 115/122/100 113/120/98 
f 100/106/88 101/107/42 117/124/102 115/122/100 
f 101/107/42 102/108/43 119/126/104 117/124/102 
f 102/108/43 103/109/89 121/128/106 119/126/104 
f 103/109/89 104/110/90 123/130/108 121/128/106 
f 104/110/90 105/111/91 125/132/110 123/130/108 
f 105/111/91 106/112/47 127/134/112 125/132/110 
f 106/112/47 107/113/92 129/136/114 127/134/112 
f 107/113/92 108/114/93 131/138/116 129/136/114 
f 108/114/93 98/115/86 109/140/94 131/138/116 
f 78/142/75 77/143/74 112/119/97 111/118/96 
f 77/144/74 80/145/76 132/139/117 112/141/97 
f 80/145/76 82/146/77 130/137/115 132/139/117 
f 82/146/77 84/147/78 128/135/113 130/137/115 
f 84/147/78 86/148/79 126/133/111 128/135/113 
f 86/148/79 88/149/80 124/131/109 126/133/111 
f 88/149/80 90/150/81 122/129/107 124/131/109 
f 90/150/81 92/151/82 120/127/105 122/129/107 
f 92/151/82 94/152/83 118/125/103 120/127/105 
f 94/152/83 95/153/84 116/123/101 118/125/103 
f 95/153/84 96/154/85 114/121/99 116/123/101 
f 96/154/85 78/142/75 111/118/96 114/121/99 
s 1
f 83/89/25 81/87/25 79/85/25 25/27/25 
f 89/95/25 87/93/25 85/91/25 83/89/25 
f 28/30/25 93/99/25 91/97/25 89/95/25 
f 89/95/25 83/89/25 25/27/25 28/30/25 
s off
f 2/2/2 1/1/1 133/155/118 134/156/119 
f 5/5/5 2/2/2 134/156/119 135/157/120 
f 7/7/7 5/5/5 135/157/120 136/158/121 
f 9/9/9 7/7/7 136/158/121 137/159/122 
f 11/11/11 9/9/9 137/159/122 138/160/123 
f 13/13/13 11/11/11 138/160/123 139/161/124 
f 15/15/15 13/13/13 139/161/124 140/162/125 
f 17/17/17 15/15/15 140/162/125 141/163/126 
f 19/19/19 17/17/17 141/163/126 142/164/127 
f 21/21/21 19/19/19 142/164/127 143/165/128 
f 23/23/23 21/21/21 143/165/128 144/166/129 
f 1/25/1 23/23/23 144/166/129 133/167/118 
f 134/156/119 133/155/118 145/168/130 146/169/131 
f 135/157/120 134/156/119 146/169/131 147/170/132 
f 136/158/121 135/157/120 147/170/132 148/171/133 
f 137/159/122 136/158/121 148/171/133 149/172/134 
f 138/160/123 137/159/122 149/172/134 150/173/135 
f 139/161/124 138/160/123 150/173/135 151/174/136 
f 140/162/125 139/161/124 151/174/136 152/175/137 
f 141/163/126 140/162/125 152/175/137 153/176/138 
f 142/164/127 141/163/126 153/176/138 154/177/139 
f 143/165/128 142/164/127 154/177/139 155/178/140 
f 144/166/129 143/165/128 155/178/140 156/179/141 
f 133/167/118 144/166/129 156/179/141 145/180/130 
f 146/169/131 145/168/130 157/181/142 158/182/143 
f 147/170/132 146/169/131 158/182/143 159/183/144 
f 148/171/133 147/170/132 159/183/144 160/184/145 
f 149/172/134 148/171/133 160/184/145 161/185/146 
f 150/173/135 149/172/134 161/185/146 162/186/147 
f 151/174/136 150/173/135 162/186/147 163/187/148 
f 152/175/137 151/174/136 163/187/148 164/188/149 
f 153/176/138 152/175/137 164/188/149 165/189/150 
f 154/177/139 153/176/138 165/189/150 166/190/151 
f 155/178/140 154/177/139 166/190/151 167/191/152 
f 156/179/141 155/178/140 167/191/152 168/192/153 
f 145/180/130 156/179/141 168/192/153 157/193/142 
f 158/182/143 157/181/142 169/194/154 170/195/155 
f 159/183/144 158/182/143 170/195/155 171/196/156 
f 160/184/145 159/183/144 171/196/156 172/197/157 
f 161/185/146 160/184/145 172/197/157 173/198/158 
f 162/186/147 161/185/146 173/198/158 174/199/159 
f 163/187/148 162/186/147 174/199/159 175/200/160 
f 164/188/149 163/187/148 175/200/160 176/201/161 
f 165/189/150 164/188/149 176/201/161 177/202/162 
f 166/190/151 165/189/150 177/202/162 178/203/163 
f 167/191/152 166/190/151 178/203/163 179/204/164 
f 168/192/153 167/191/152 179/204/164 180/205/165 
f 157/193/142 168/192/153 180/205/165 169/206/154 
f 170/195/155 169/194/154 181/207/166 182/208/167 
f 171/196/156 170/195/155 182/208/167 183/209/168 
f 172/197/157 171/196/156 183/209/168 184/210/169 
f 173/198/158 172/197/157 184/210/169 185/211/170 
f 174/199/159 173/198/158 185/211/170 186/212/171 
f 175/200/160 174/199/159 186/212/171 187/213/172 
f 176/201/161 175/200/160 187/213/172 188/214/173 
f 177/202/162 176/201/161 188/214/173 189/215/174 
f 178/203/163 177/202/162 189/215/174 190/216/175 
f 179/204/164 178/203/163 190/216/175 191/217/176 
f 180/205/165 179/204/164 191/217/176 192/218/177 
f 169/206/154 180/205/165 192/218/177 181/219/166 
f 181/220/166 192/221/177 183/222/168 182/223/167 
f 186/224/171 185/225/170 184/226/169 183/222/168 
f 189/227/174 188/228/173 187/229/172 186/224/171 
f 192/221/177 191/230/176 190/231/175 189/227/174 
f 189/227/174 186/224/171 183/222/168 192/221/177 
# 190 polygons

