# 3ds Max Wavefront OBJ Exporter v0.97b - (c)2007 guruware
# File Created: 25.02.2018 16:46:32

mtllib Dumpster.mtl

#
# object Dumpster
#

v  -36.0000 0.0000 8.2144
v  -36.0000 0.0000 -15.2552
v  -0.3759 0.0000 -15.2552
v  -0.3759 0.0000 8.2144
v  -37.8013 27.9048 7.2144
v  -37.8013 30.6442 -14.2552
v  -37.8013 20.5281 -14.2552
v  -37.8013 18.8382 7.2144
v  -37.0633 36.6708 -18.9731
v  -36.9611 41.7449 -19.0742
v  -0.3759 41.7449 -19.0742
v  -0.3759 36.6708 -18.9731
v  -37.0396 37.3720 8.6266
v  -36.9694 41.2871 -16.1738
v  -37.0561 36.2683 -16.0728
v  -36.9943 32.8261 8.7272
v  -36.0101 39.0560 8.4391
v  -36.0101 42.9711 -15.0305
v  -36.9794 42.7107 -15.9490
v  -37.0496 38.7957 8.8513
v  -36.0101 44.9375 -17.7753
v  -0.3759 44.9375 -17.7753
v  -0.3759 44.6771 -18.8494
v  -36.9712 44.6771 -18.8494
v  -36.0000 31.6513 18.0000
v  -0.3759 31.6513 18.0000
v  -0.3759 31.3909 19.0675
v  -36.9685 31.3909 19.0675
v  -36.0000 36.5287 -15.2552
v  -36.0000 33.0865 8.2144
v  -36.0000 19.8197 -18.0000
v  -36.0000 32.1301 -18.0000
v  -0.3759 32.1301 -18.0000
v  -0.3759 19.8197 -18.0000
v  -36.0000 16.9862 18.0000
v  -36.0000 0.0000 18.0000
v  -0.3759 0.0000 18.0000
v  -0.3759 16.9862 18.0000
v  -36.0000 31.7799 -15.2552
v  -36.0000 28.7853 8.2144
v  -36.0000 17.7564 8.2144
v  -36.0000 19.6037 -15.2552
v  -36.0000 36.9312 -18.0000
v  -0.3759 36.9312 -18.0000
v  -36.0000 0.0000 -18.0000
v  -0.3759 0.0000 -18.0000
v  -36.0101 37.7463 16.7663
v  -0.3759 37.7463 16.7663
v  -0.3759 39.0560 8.4391
v  -36.0000 27.5367 18.0000
v  -37.0688 35.7396 18.9671
v  -37.0789 37.4859 17.7334
v  -0.3759 35.7396 18.9671
v  -0.3759 37.4859 17.7334
v  -0.3759 42.9711 -15.0305
v  -0.3759 27.5367 18.0000
v  35.2483 0.0000 8.2144
v  35.2483 0.0000 -15.2552
v  37.0496 27.9048 7.2144
v  37.0496 18.8382 7.2144
v  37.0496 20.5281 -14.2552
v  37.0496 30.6442 -14.2552
v  36.3116 36.6708 -18.9731
v  36.2094 41.7449 -19.0742
v  36.2878 37.3720 8.6266
v  36.2426 32.8261 8.7272
v  36.3044 36.2683 -16.0728
v  36.2176 41.2871 -16.1738
v  35.2583 39.0560 8.4391
v  36.2979 38.7957 8.8513
v  36.2277 42.7107 -15.9490
v  35.2583 42.9711 -15.0305
v  35.2583 44.9375 -17.7753
v  36.2195 44.6771 -18.8494
v  35.2483 31.6513 18.0000
v  36.2168 31.3909 19.0675
v  35.2483 36.5287 -15.2552
v  35.2483 33.0865 8.2144
v  35.2483 19.8197 -18.0000
v  35.2483 32.1301 -18.0000
v  35.2483 16.9862 18.0000
v  35.2483 0.0000 18.0000
v  35.2483 28.7853 8.2144
v  35.2483 31.7799 -15.2552
v  35.2483 19.6037 -15.2552
v  35.2483 17.7564 8.2144
v  35.2483 36.9312 -18.0000
v  35.2483 0.0000 -18.0000
v  35.2583 37.7463 16.7663
v  35.2483 27.5367 18.0000
v  36.3171 35.7396 18.9671
v  36.3272 37.4859 17.7334
# 92 vertices

vn -0.7071 -0.7071 -0.0000
vn 0.0000 -1.0000 -0.0000
vn -0.8127 0.3851 0.4373
vn -0.8218 0.4276 -0.3765
vn -0.8139 -0.3944 -0.4267
vn -0.8195 -0.4209 0.3890
vn -0.5558 -0.6049 -0.5703
vn -0.6930 0.0254 -0.7204
vn 0.0000 0.0283 -0.9996
vn 0.0000 -0.7993 -0.6010
vn -1.0000 -0.0083 -0.0041
vn -1.0000 0.0054 -0.0020
vn -0.5855 -0.8032 -0.1100
vn -0.6346 -0.7657 -0.1047
vn -0.0905 0.9830 0.1599
vn -0.2531 0.9094 0.3300
vn -0.9087 0.3769 0.1798
vn -0.7730 0.6276 0.0926
vn -0.2668 0.9303 0.2516
vn 0.0000 0.9816 0.1907
vn -0.0000 0.6478 -0.7618
vn -0.6382 0.5936 -0.4903
vn -0.2997 -0.9438 0.1392
vn 0.0000 -0.7864 0.6177
vn 0.0000 -0.7793 0.6266
vn -0.5510 -0.6393 0.5364
vn -0.5764 -0.8085 -0.1186
vn -0.6398 -0.7604 -0.1115
vn -0.7071 0.0000 -0.7071
vn 0.0000 0.0000 -1.0000
vn -0.7071 0.0000 0.7071
vn -0.5774 -0.5774 0.5774
vn 0.0000 -0.7071 0.7071
vn 0.0000 0.0000 1.0000
vn -0.9787 0.1542 -0.1357
vn -0.9660 0.1710 0.1942
vn -0.9765 -0.1583 0.1463
vn -0.9686 -0.1687 -0.1825
vn -0.1374 -0.9520 -0.2734
vn 0.0000 -0.7932 -0.6089
vn -0.5774 -0.5774 -0.5774
vn 0.0000 -0.7071 -0.7071
vn -0.0369 0.9800 0.1954
vn 0.0000 0.9781 0.2080
vn 0.0000 0.9871 0.1600
vn -0.6527 0.2297 0.7219
vn -0.6423 0.6412 0.4199
vn 0.0000 0.3137 0.9495
vn 0.0000 0.8200 0.5724
vn 0.0000 0.9236 0.3834
vn 0.7071 -0.7071 -0.0000
vn 0.8127 0.3851 0.4373
vn 0.8195 -0.4209 0.3890
vn 0.8139 -0.3944 -0.4267
vn 0.8218 0.4276 -0.3765
vn 0.5558 -0.6049 -0.5703
vn 0.6930 0.0254 -0.7204
vn 1.0000 -0.0083 -0.0041
vn 0.6346 -0.7657 -0.1047
vn 0.5855 -0.8032 -0.1100
vn 1.0000 0.0054 -0.0020
vn 0.0905 0.9830 0.1599
vn 0.7730 0.6276 0.0926
vn 0.9087 0.3769 0.1798
vn 0.2531 0.9094 0.3300
vn 0.2668 0.9303 0.2516
vn 0.6382 0.5936 -0.4903
vn 0.2997 -0.9438 0.1392
vn 0.5510 -0.6393 0.5364
vn 0.5764 -0.8085 -0.1186
vn 0.6398 -0.7604 -0.1115
vn 0.7071 0.0000 -0.7071
vn 0.7071 0.0000 0.7071
vn 0.5774 -0.5774 0.5774
vn 0.9660 0.1710 0.1942
vn 0.9787 0.1542 -0.1357
vn 0.9686 -0.1687 -0.1825
vn 0.9765 -0.1583 0.1463
vn 0.1374 -0.9520 -0.2734
vn 0.5774 -0.5774 -0.5774
vn 0.0369 0.9800 0.1954
vn 0.6527 0.2297 0.7219
vn 0.6423 0.6412 0.4199
# 83 vertex normals

vt 0.0320 0.4572 0.0000
vt 0.0606 0.3893 0.0000
vt 0.1637 0.4328 0.0000
vt 0.1350 0.5007 0.0000
vt 0.1245 0.2031 0.0088
vt 0.1574 0.2552 0.0088
vt 0.1298 0.2669 0.0088
vt 0.0994 0.2136 0.0088
vt 0.3962 0.3980 -0.7806
vt 0.3958 0.4139 -0.7806
vt 0.2809 0.4139 -0.7806
vt 0.2809 0.3980 -0.7806
vt 0.4829 0.4002 -0.7806
vt 0.4049 0.4125 -0.7806
vt 0.4053 0.3967 -0.7806
vt 0.4832 0.3859 -0.7806
vt 0.0657 0.1823 0.0642
vt 0.0337 0.2592 0.0642
vt 0.0293 0.2605 0.0642
vt 0.0630 0.1796 0.0642
vt 0.0319 0.2701 0.0642
vt 0.0593 0.3659 0.0642
vt 0.0563 0.3668 0.0642
vt 0.0284 0.2700 0.0642
vt 0.3784 0.2738 -0.2468
vt 0.4903 0.2735 -0.2468
vt 0.4903 0.2770 -0.2468
vt 0.3753 0.2773 -0.2468
vt 0.3773 0.1681 -0.2468
vt 0.3781 0.2427 -0.2468
vt 0.3749 0.2445 -0.2468
vt 0.3738 0.1657 -0.2468
vt 0.1319 0.0822 -0.1768
vt 0.1319 0.1209 -0.1768
vt 0.0200 0.1209 -0.1768
vt 0.0200 0.0822 -0.1768
vt 0.2449 0.0733 -0.1768
vt 0.2449 0.0200 -0.1768
vt 0.3568 0.0200 -0.1768
vt 0.3568 0.0733 -0.1768
vt 0.2142 0.1239 -0.1768
vt 0.1405 0.1347 -0.1768
vt 0.1405 0.1198 -0.1768
vt 0.2142 0.1104 -0.1768
vt 0.1405 0.0200 -0.1768
vt 0.2142 0.0200 -0.1768
vt 0.2142 0.0758 -0.1768
vt 0.1405 0.0816 -0.1768
vt 0.1319 0.1360 -0.1768
vt 0.0200 0.1360 -0.1768
vt 0.0640 0.3814 0.0000
vt 0.1670 0.4249 0.0000
vt 0.7043 0.0465 0.0348
vt 0.7043 0.0200 -0.0348
vt 0.8162 0.0200 0.0348
vt 0.8162 0.0465 0.0348
vt 0.2449 0.1065 -0.1768
vt 0.5156 0.3814 -0.7806
vt 0.5153 0.3950 0.7806
vt 0.0733 0.1538 0.0642
vt 0.0757 0.1570 0.0642
vt 0.3737 0.1565 0.2468
vt 0.3773 0.1594 -0.2468
vt 0.2449 0.1194 0.1768
vt 0.1319 0.0200 -0.1768
vt 0.1270 0.1937 0.0703
vt 0.1663 0.2580 0.0088
vt 0.1270 0.2763 -0.0703
vt 0.0907 0.2106 0.0088
vt 0.0584 0.1776 0.0642
vt 0.0713 0.1468 -0.0642
vt 0.1912 0.1468 0.0642
vt 0.1912 0.1538 0.0642
vt 0.0200 0.2683 0.0642
vt 0.0245 0.2585 0.0642
vt 0.8162 0.1212 0.0348
vt 0.7043 0.1212 0.0348
vt 0.3568 0.1065 -0.1768
vt 0.6306 0.3950 -0.7806
vt 0.6306 0.3814 -0.7806
vt 0.1912 0.1570 0.0642
vt 0.4889 0.1500 -0.2468
vt 0.4886 0.1468 -0.2468
vt 0.3568 0.1194 -0.1768
vt 0.0200 0.0200 -0.1768
vt 0.1230 0.5290 0.0000
vt 0.0200 0.4855 0.0000
vt 0.8162 0.1318 0.0348
vt 0.7043 0.1318 0.0348
vt 0.0482 0.3691 0.0642
vt 0.2380 0.5443 0.0000
vt 0.2667 0.4764 0.0000
vt 0.4569 0.1802 0.0088
vt 0.4820 0.1907 0.0088
vt 0.4517 0.2440 0.0088
vt 0.4240 0.2323 0.0088
vt 0.8649 0.3980 -0.7806
vt 0.9800 0.3980 -0.7806
vt 0.9800 0.4139 -0.7806
vt 0.8652 0.4139 -0.7806
vt 0.7783 0.4002 -0.7806
vt 0.7779 0.3859 -0.7806
vt 0.8558 0.3967 -0.7806
vt 0.8561 0.4124 -0.7806
vt 0.3168 0.1824 0.0642
vt 0.3195 0.1797 0.0642
vt 0.3534 0.2612 0.0642
vt 0.3490 0.2598 0.0642
vt 0.3509 0.2708 0.0642
vt 0.3544 0.2707 0.0642
vt 0.3262 0.3683 0.0642
vt 0.3232 0.3674 0.0642
vt 0.6022 0.2734 -0.2468
vt 0.6053 0.2769 -0.2468
vt 0.6030 0.1681 -0.2468
vt 0.6065 0.1657 -0.2468
vt 0.6056 0.2441 -0.2468
vt 0.6024 0.2424 -0.2468
vt 0.5817 0.0822 -0.1768
vt 0.6935 0.0822 -0.1768
vt 0.6935 0.1209 -0.1768
vt 0.5817 0.1209 -0.1768
vt 0.4686 0.0733 -0.1768
vt 0.4686 0.0200 -0.1768
vt 0.4993 0.1239 -0.1768
vt 0.4993 0.1104 -0.1768
vt 0.5730 0.1198 -0.1768
vt 0.5730 0.1347 -0.1768
vt 0.5730 0.0200 -0.1768
vt 0.5730 0.0816 -0.1768
vt 0.4993 0.0758 -0.1768
vt 0.4993 0.0200 -0.1768
vt 0.6935 0.1360 -0.1768
vt 0.5817 0.1360 -0.1768
vt 0.2701 0.4684 0.0000
vt 0.9281 0.0465 0.0348
vt 0.9281 0.0200 -0.0348
vt 0.4686 0.1065 -0.1768
vt 0.7458 0.3950 0.7806
vt 0.7455 0.3814 -0.7806
vt 0.3068 0.1570 0.0642
vt 0.3092 0.1538 0.0642
vt 0.6030 0.1594 -0.2468
vt 0.6066 0.1565 0.2468
vt 0.4686 0.1194 0.1768
vt 0.5816 0.0200 -0.1768
vt 0.4545 0.1708 0.0703
vt 0.4151 0.2351 0.0088
vt 0.4545 0.2534 -0.0703
vt 0.4907 0.1877 0.0088
vt 0.3242 0.1777 0.0642
vt 0.3113 0.1468 -0.0642
vt 0.3628 0.2690 0.0642
vt 0.3582 0.2591 0.0642
vt 0.9281 0.1212 0.0348
vt 0.4918 0.1502 -0.2468
vt 0.4921 0.1471 -0.2468
vt 0.6935 0.0200 -0.1768
vt 0.2261 0.5726 0.0000
vt 0.9281 0.1318 0.0348
vt 0.3344 0.3705 0.0642
# 161 texture coords

o Dumpster
g Dumpster
usemtl wire_135110008
s 2
f 1/1/1 2/2/1 3/3/2 4/4/2 
s 64
f 5/5/3 6/6/4 7/7/5 8/8/6 
s 32
f 9/9/7 10/10/8 11/11/9 12/12/10 
s 64
f 13/13/11 14/14/12 15/15/13 16/16/14 
s off
f 17/17/15 18/18/16 19/19/17 20/20/18 
f 21/21/19 22/22/20 23/23/21 24/24/22 
f 25/25/23 26/26/24 27/27/25 28/28/26 
f 29/29/27 30/30/28 16/31/14 15/32/13 
s 32
f 31/33/29 32/34/29 33/35/30 34/36/30 
s 8
f 35/37/31 36/38/32 37/39/33 38/40/34 
s 64
f 30/41/28 29/42/27 39/43/35 40/44/36 
f 2/45/1 1/46/1 41/47/37 42/48/38 
s 32
f 32/34/29 43/49/39 44/50/40 33/35/30 
s 2
f 2/2/1 45/51/41 46/52/42 3/3/2 
s 4
f 17/53/15 47/54/43 48/55/44 49/56/45 
s 64
f 39/43/35 32/34/29 31/33/29 42/48/38 
f 41/47/37 35/37/31 50/57/31 40/44/36 
f 14/14/12 10/10/8 9/9/7 15/15/13 
f 16/16/14 28/58/26 51/59/46 13/13/11 
s off
f 18/18/16 21/21/19 24/24/22 19/19/17 
f 20/20/18 52/60/47 47/61/43 17/17/15 
f 30/30/28 25/25/23 28/28/26 16/31/14 
f 15/32/13 9/62/7 43/63/39 29/29/27 
s 64
f 29/42/27 43/49/39 32/34/29 39/43/35 
f 40/44/36 50/57/31 25/64/23 30/41/28 
f 1/46/1 36/38/32 35/37/31 41/47/37 
f 42/48/38 31/33/29 45/65/41 2/45/1 
s off
f 40/66/36 39/67/35 6/6/4 5/5/3 
f 39/67/35 42/68/38 7/7/5 6/6/4 
f 42/68/38 41/69/37 8/8/6 7/7/5 
f 41/69/37 40/66/36 5/5/3 8/8/6 
f 13/70/11 51/71/46 52/60/47 20/20/18 
f 51/71/46 53/72/48 54/73/49 52/60/47 
f 10/74/8 14/75/12 19/19/17 24/24/22 
f 14/75/12 13/70/11 20/20/18 19/19/17 
s 4
f 55/76/50 18/77/16 17/53/15 49/56/45 
s 8
f 56/78/34 50/57/31 35/37/31 38/40/34 
f 53/79/48 51/59/46 28/58/26 27/80/25 
s off
f 48/81/44 47/61/43 52/60/47 54/73/49 
f 44/82/40 43/63/39 9/62/7 12/83/10 
s 8
f 26/84/24 25/64/23 50/57/31 56/78/34 
s 32
f 46/85/42 45/65/41 31/33/29 34/36/30 
s 2
f 37/86/33 36/87/32 1/1/1 4/4/2 
s 4
f 22/88/20 21/89/19 18/77/16 55/76/50 
s off
f 11/90/9 10/74/8 24/24/22 23/23/21 
s 2
f 57/91/51 4/4/2 3/3/2 58/92/51 
s 64
f 59/93/52 60/94/53 61/95/54 62/96/55 
s 32
f 63/97/56 12/98/10 11/99/9 64/100/57 
s 64
f 65/101/58 66/102/59 67/103/60 68/104/61 
s off
f 69/105/62 70/106/63 71/107/64 72/108/65 
f 73/109/66 74/110/67 23/111/21 22/112/20 
f 75/113/68 76/114/69 27/27/25 26/26/24 
f 77/115/70 67/116/60 66/117/59 78/118/71 
s 32
f 79/119/72 34/120/30 33/121/30 80/122/72 
s 8
f 81/123/73 38/40/34 37/39/33 82/124/74 
s 64
f 78/125/71 83/126/75 84/127/76 77/128/70 
f 58/129/51 85/130/77 86/131/78 57/132/51 
s 32
f 80/122/72 33/121/30 44/133/40 87/134/79 
s 2
f 58/92/51 3/3/2 46/52/42 88/135/80 
s 4
f 69/136/62 49/56/45 48/55/44 89/137/81 
s 64
f 84/127/76 85/130/77 79/119/72 80/122/72 
f 86/131/78 83/126/75 90/138/73 81/123/73 
f 68/104/61 67/103/60 63/97/56 64/100/57 
f 66/102/59 65/101/58 91/139/82 76/140/69 
s off
f 72/108/65 71/107/64 74/110/67 73/109/66 
f 70/106/63 69/105/62 89/141/81 92/142/83 
f 78/118/71 66/117/59 76/114/69 75/113/68 
f 67/116/60 77/115/70 87/143/79 63/144/56 
s 64
f 77/128/70 84/127/76 80/122/72 87/134/79 
f 83/126/75 78/125/71 75/145/68 90/138/73 
f 57/132/51 86/131/78 81/123/73 82/124/74 
f 85/130/77 58/129/51 88/146/80 79/119/72 
s off
f 83/147/75 59/93/52 62/96/55 84/148/76 
f 84/148/76 62/96/55 61/95/54 85/149/77 
f 85/149/77 61/95/54 60/94/53 86/150/78 
f 86/150/78 60/94/53 59/93/52 83/147/75 
f 65/151/58 70/106/63 92/142/83 91/152/82 
f 91/152/82 92/142/83 54/73/49 53/72/48 
f 64/153/57 74/110/67 71/107/64 68/154/61 
f 68/154/61 71/107/64 70/106/63 65/151/58 
s 4
f 55/76/50 49/56/45 69/136/62 72/155/65 
s 8
f 56/78/34 38/40/34 81/123/73 90/138/73 
f 53/79/48 27/80/25 76/140/69 91/139/82 
s off
f 48/81/44 54/73/49 92/142/83 89/141/81 
f 44/156/40 12/157/10 63/144/56 87/143/79 
s 8
f 26/84/24 56/78/34 90/138/73 75/145/68 
s 32
f 46/158/42 34/120/30 79/119/72 88/146/80 
s 2
f 37/86/33 4/4/2 57/91/51 82/159/74 
s 4
f 22/88/20 55/76/50 72/155/65 73/160/66 
s off
f 11/161/9 23/111/21 74/110/67 64/153/57 
# 90 polygons

