# 3ds Max Wavefront OBJ Exporter v0.97b - (c)2007 guruware
# File Created: 22.03.2018 23:52:47

mtllib Fan Blades.mtl

#
# object FinHolder
#

v  1.8492 39.8656 -6.0794
v  1.3537 40.7238 -6.0794
v  1.3537 40.7237 -1.7273
v  1.8492 39.8655 -1.7273
v  0.4954 41.2193 -6.0794
v  0.4956 41.2192 -1.7273
v  -0.4956 41.2192 -6.0794
v  -0.4955 41.2192 -1.7273
v  -1.3537 40.7237 -6.0794
v  -1.3537 40.7238 -1.7273
v  -1.8491 39.8657 -6.0794
v  -1.8492 39.8656 -1.7273
v  -1.8492 38.8747 -6.0794
v  -1.8492 38.8746 -1.7273
v  -1.3537 38.0165 -6.0794
v  -1.3537 38.0164 -1.7273
v  -0.4956 37.5210 -6.0794
v  -0.4955 37.5209 -1.7273
v  0.4954 37.5209 -6.0794
v  0.4955 37.5209 -1.7273
v  1.3536 38.0163 -6.0794
v  1.3537 38.0164 -1.7273
v  1.8492 38.8747 -6.0794
v  1.8491 38.8745 -1.7273
v  -2.5295 36.8406 4.1528
v  -3.2268 36.1432 3.1232
v  -1.1811 34.9621 3.1232
v  -1.0051 36.3548 4.4023
v  1.1811 34.9621 3.1232
v  1.0051 36.3548 4.4023
v  3.2268 36.1432 3.1232
v  2.5295 36.8406 4.1528
v  -2.5295 41.8995 4.1528
v  -1.0051 42.3854 4.4023
v  -1.1811 43.7780 3.1232
v  -3.2268 42.5969 3.1232
v  1.0051 42.3854 4.4023
v  1.1811 43.7780 3.1232
v  2.5295 41.8995 4.1528
v  3.2268 42.5969 3.1232
v  -1.3210 38.0491 4.8890
v  -3.0153 38.3650 4.4023
v  1.3210 38.0491 4.8890
v  3.0153 38.3650 4.4023
v  -1.3210 40.6910 4.8890
v  -3.0153 40.3752 4.4023
v  1.3210 40.6910 4.8890
v  3.0153 40.3752 4.4023
v  4.4079 38.1890 3.1232
v  4.4079 40.5512 3.1232
v  -4.4079 38.1890 3.1232
v  -4.4079 40.5512 3.1232
v  3.2268 42.5969 -0.9876
v  4.4079 40.5512 -0.9876
v  1.1811 43.7780 -0.9876
v  -1.1811 43.7780 -0.9876
v  -3.2268 42.5969 -0.9876
v  -4.4079 40.5512 -0.9876
v  -4.4079 38.1890 -0.9876
v  -3.2268 36.1432 -0.9876
v  -1.1811 34.9621 -0.9876
v  1.1811 34.9621 -0.9876
v  3.2268 36.1432 -0.9876
v  4.4079 38.1890 -0.9876
v  2.7619 42.1319 -1.7273
v  3.7728 40.3810 -1.7273
v  3.7728 38.3591 -1.7273
v  2.7619 36.6082 -1.7273
v  1.0109 35.5973 -1.7273
v  -1.0109 35.5973 -1.7273
v  -2.7619 36.6082 -1.7273
v  -3.7728 38.3592 -1.7273
v  -3.7728 40.3810 -1.7273
v  -2.7619 42.1320 -1.7273
v  -1.0109 43.1429 -1.7273
v  1.0110 43.1429 -1.7273
v  -1.5742 34.2227 -0.0821
v  -1.6681 34.3854 -0.5982
v  -3.4565 37.4829 0.7036
v  -3.3626 37.3202 1.2197
v  -24.2160 22.4860 0.3389
v  -27.8120 23.2044 1.2197
v  -27.9059 23.3670 0.7036
v  -24.3099 22.6487 -0.1772
v  -21.7621 26.6973 1.2197
v  -19.9737 23.5997 -0.0821
v  -23.6444 29.9575 2.0054
v  -23.5504 29.7948 2.5215
v  -5.1510 40.4178 2.5215
v  -5.2449 40.5805 2.0054
v  -21.8560 26.8600 0.7036
v  -20.0676 23.7624 -0.5982
v  -30.6341 25.7051 2.5215
v  -30.7280 25.8678 2.0054
v  -3.6707 43.3071 -0.0821
v  -3.4828 43.3071 -0.5982
v  0.0939 43.3071 0.7036
v  -0.0939 43.3071 1.2197
v  -2.5140 68.7838 0.3389
v  -0.0939 71.5388 1.2197
v  0.0939 71.5388 0.7036
v  -2.3262 68.7838 -0.1772
v  -0.0939 64.5530 1.2197
v  -3.6707 64.5530 -0.0821
v  3.6707 64.5530 2.0054
v  3.4828 64.5530 2.5215
v  3.4828 43.3071 2.5215
v  3.6707 43.3071 2.0054
v  0.0939 64.5530 0.7036
v  -3.4828 64.5530 -0.5982
v  3.4828 72.7325 2.5215
v  3.6707 72.7325 2.0054
v  5.2449 40.5805 -1.4307
v  5.1510 40.4178 -1.9468
v  3.3626 37.3202 -0.6449
v  3.4565 37.4829 -0.1288
v  26.7300 26.8404 -1.0097
v  27.9059 23.3670 -0.1288
v  27.8120 23.2044 -0.6449
v  26.6361 26.6777 -1.5258
v  21.8560 26.8600 -0.1288
v  23.6444 29.9575 -1.4307
v  19.9737 23.5997 0.6569
v  20.0676 23.7624 1.1730
v  1.6681 34.3854 1.1730
v  1.5742 34.2227 0.6569
v  21.7621 26.6973 -0.6449
v  23.5504 29.7948 -1.9468
v  27.1513 19.6727 1.1730
v  27.0574 19.5100 0.6569
# 130 vertices

vn 0.9659 0.2588 -0.0000
vn 0.7071 0.7071 -0.0000
vn 0.4510 0.4509 -0.7702
vn 0.6160 0.1650 -0.7703
vn 0.2588 0.9659 0.0000
vn 0.1651 0.6160 -0.7703
vn -0.2589 0.9659 0.0000
vn -0.1650 0.6160 -0.7703
vn -0.7071 0.7071 0.0000
vn -0.4510 0.4510 -0.7702
vn -0.9659 0.2589 0.0000
vn -0.6160 0.1651 -0.7703
vn -0.9659 -0.2588 0.0000
vn -0.6160 -0.1651 -0.7703
vn -0.7071 -0.7071 -0.0000
vn -0.4509 -0.4509 -0.7703
vn -0.2589 -0.9659 0.0000
vn -0.1650 -0.6160 -0.7702
vn 0.2588 -0.9659 0.0000
vn 0.1651 -0.6160 -0.7703
vn 0.7071 -0.7071 -0.0000
vn 0.4509 -0.4509 -0.7703
vn 0.9659 -0.2588 -0.0000
vn 0.6160 -0.1651 -0.7703
vn -0.6390 -0.6390 0.4281
vn -0.6996 -0.6996 0.1457
vn -0.2522 -0.9537 0.1635
vn -0.2252 -0.8094 0.5423
vn 0.2522 -0.9538 0.1635
vn 0.2252 -0.8094 0.5423
vn 0.6996 -0.6995 0.1457
vn 0.6390 -0.6390 0.4281
vn -0.6390 0.6390 0.4281
vn -0.2252 0.8094 0.5423
vn -0.2522 0.9538 0.1635
vn -0.6996 0.6996 0.1457
vn 0.2252 0.8094 0.5423
vn 0.2522 0.9538 0.1635
vn 0.6390 0.6390 0.4281
vn 0.6996 0.6996 0.1457
vn -0.3442 -0.3442 0.8735
vn -0.8094 -0.2252 0.5423
vn 0.3442 -0.3442 0.8735
vn 0.8094 -0.2252 0.5423
vn -0.3442 0.3442 0.8735
vn -0.8094 0.2252 0.5423
vn 0.3442 0.3442 0.8735
vn 0.8094 0.2252 0.5423
vn 0.9538 -0.2522 0.1635
vn 0.9538 0.2522 0.1635
vn -0.9538 -0.2522 0.1635
vn -0.9538 0.2522 0.1635
vn 0.7005 0.7005 -0.1361
vn 0.9569 0.2564 -0.1361
vn 0.2564 0.9569 -0.1361
vn -0.2564 0.9569 -0.1361
vn -0.7005 0.7005 -0.1361
vn -0.9569 0.2564 -0.1361
vn -0.9569 -0.2564 -0.1361
vn -0.7005 -0.7005 -0.1361
vn -0.2564 -0.9569 -0.1361
vn 0.2564 -0.9569 -0.1361
vn 0.7005 -0.7005 -0.1361
vn 0.9569 -0.2564 -0.1361
vn 0.4656 0.4656 -0.7526
vn 0.6361 0.1704 -0.7526
vn 0.6361 -0.1704 -0.7526
vn 0.4656 -0.4656 -0.7526
vn 0.1704 -0.6361 -0.7526
vn -0.1704 -0.6361 -0.7526
vn -0.4656 -0.4656 -0.7526
vn -0.6361 -0.1704 -0.7526
vn -0.6361 0.1704 -0.7526
vn -0.4656 0.4656 -0.7526
vn -0.1704 0.6361 -0.7526
vn 0.1704 0.6361 -0.7526
vn 0.9140 -0.3317 0.2336
vn 0.6001 0.0574 -0.7979
vn 0.3477 0.8119 -0.4689
vn 0.8770 -0.1048 0.4689
vn 0.1371 -0.9538 0.2674
vn -0.1712 -0.9228 0.3453
vn -0.6988 -0.2982 -0.6502
vn -0.3434 -0.4347 -0.8325
vn 0.3743 -0.6482 0.6631
vn 0.3971 -0.8807 0.2581
vn -0.4771 0.8263 -0.2994
vn -0.1497 0.2593 0.9541
vn 0.3497 0.4910 0.7979
vn 0.1697 0.9574 -0.2336
vn -0.3743 0.6482 -0.6631
vn 0.0172 -0.3639 -0.9313
vn -0.6327 -0.1098 0.7666
vn -0.9460 0.1915 -0.2615
vn -0.7443 -0.6257 0.2336
vn -0.2504 -0.5484 -0.7979
vn 0.5293 -0.7071 -0.4689
vn -0.5293 -0.7071 0.4689
vn -0.8945 0.3582 0.2674
vn -0.7135 0.6096 0.3453
vn 0.0912 0.7543 -0.6502
vn -0.2048 0.5148 -0.8325
vn -0.7485 0.0000 0.6631
vn -0.9613 0.0964 0.2581
vn 0.9541 0.0000 -0.2994
vn 0.2994 0.0000 0.9541
vn 0.2504 -0.5484 0.7979
vn 0.7443 -0.6257 -0.2336
vn 0.7485 -0.0000 -0.6631
vn -0.3238 0.1670 -0.9313
vn 0.2213 0.6028 0.7666
vn 0.6388 0.7235 -0.2615
vn -0.1697 0.9574 0.2336
vn -0.3497 0.4910 -0.7979
vn -0.8770 -0.1049 -0.4689
vn -0.3478 0.8119 0.4689
vn 0.7575 0.5956 0.2674
vn 0.8847 0.3131 0.3453
vn 0.6076 -0.4561 -0.6502
vn 0.5482 -0.0800 -0.8325
vn 0.3743 0.6482 0.6631
vn 0.5642 0.7843 0.2581
vn -0.4771 -0.8263 -0.2994
vn -0.1497 -0.2593 0.9541
vn -0.6001 0.0574 0.7979
vn -0.9140 -0.3318 -0.2336
vn -0.3743 -0.6482 -0.6631
vn 0.3064 0.1967 -0.9314
vn 0.4114 -0.4931 0.7666
vn 0.3072 -0.9150 -0.2615
# 130 vertex normals

vt 0.4385 0.3806 -3.4373
vt 0.4276 0.3907 -4.5502
vt 0.2738 0.2240 -3.4373
vt 0.2873 0.2126 -3.4373
vt 0.4168 0.4009 -3.4373
vt 0.2606 0.2359 -3.4373
vt 0.4061 0.4113 -3.4373
vt 0.2478 0.2484 -3.4373
vt 0.3955 0.4218 -3.4373
vt 0.2357 0.2616 -3.4373
vt 0.3850 0.4323 -3.4373
vt 0.2244 0.2755 -3.4373
vt 0.3746 0.4429 -3.4373
vt 0.2114 0.2875 -3.4373
vt 0.3644 0.4537 -3.4373
vt 0.2024 0.3018 -3.4373
vt 0.3542 0.4644 -3.4373
vt 0.1952 0.3157 -3.4373
vt 0.4835 0.3406 -3.4373
vt 0.4715 0.3510 -3.4373
vt 0.3277 0.1835 -3.4373
vt 0.3411 0.1769 -3.4373
vt 0.4604 0.3607 -3.4373
vt 0.3143 0.1922 -3.4373
vt 0.4494 0.3706 -3.4373
vt 0.3008 0.2020 -3.4373
vt 0.1673 0.7557 0.0000
vt 0.1527 0.7412 0.0000
vt 0.1926 0.7206 0.0000
vt 0.1966 0.7487 0.0000
vt 0.2383 0.7206 0.0000
vt 0.2345 0.7487 0.0000
vt 0.2781 0.7412 0.0000
vt 0.2637 0.7557 0.0000
vt 0.1674 0.8520 0.0000
vt 0.1966 0.8590 0.0000
vt 0.1926 0.8874 0.0000
vt 0.1527 0.8667 0.0000
vt 0.2345 0.8590 0.0000
vt 0.2383 0.8874 0.0000
vt 0.2637 0.8521 0.0000
vt 0.2782 0.8667 0.0000
vt 0.1925 0.7807 0.0000
vt 0.1604 0.7849 0.0000
vt 0.2387 0.7807 0.0000
vt 0.2707 0.7849 0.0000
vt 0.1925 0.8269 0.0000
vt 0.1604 0.8228 0.0000
vt 0.2387 0.8269 0.0000
vt 0.2707 0.8228 0.0000
vt 0.2988 0.7811 0.0000
vt 0.2988 0.8268 0.0000
vt 0.1320 0.7811 0.0000
vt 0.1320 0.8268 0.0000
vt 0.2433 0.1830 -3.4373
vt 0.1713 0.0903 -3.4373
vt 0.1901 0.0765 -3.4373
vt 0.2591 0.1710 -3.4373
vt 0.2278 0.1958 -3.4373
vt 0.1527 0.1046 -3.4373
vt 0.2127 0.2091 -3.4373
vt 0.1343 0.1195 -3.4373
vt 0.1980 0.2237 -3.4373
vt 0.1160 0.1350 -3.4373
vt 0.1836 0.2392 -3.4373
vt 0.0979 0.1511 -3.4373
vt 0.1694 0.2559 -3.4373
vt 0.0799 0.1679 -3.4373
vt 0.1552 0.2746 -3.4373
vt 0.0621 0.1852 4.5502
vt 0.1405 0.2967 -3.4373
vt 0.0443 0.2031 -3.4373
vt 0.3121 0.1388 -3.4373
vt 0.2478 0.0378 -3.4373
vt 0.2670 0.0255 -3.4373
vt 0.3332 0.1294 -3.4373
vt 0.2932 0.1490 -3.4373
vt 0.2284 0.0504 -3.4373
vt 0.2756 0.1596 -3.4373
vt 0.2092 0.0633 -3.4373
vt 0.2569 0.1995 -3.4373
vt 0.2718 0.1879 -3.4373
vt 0.2873 0.1773 -3.4373
vt 0.3033 0.1680 -3.4373
vt 0.3204 0.1598 -3.4373
vt 0.3407 0.1540 -3.4373
vt 0.1665 0.3104 -3.4373
vt 0.1767 0.2879 -3.4373
vt 0.1881 0.2702 -3.4373
vt 0.2005 0.2543 -3.4373
vt 0.2141 0.2392 -3.4373
vt 0.2279 0.2251 -3.4373
vt 0.2423 0.2118 -3.4373
vt 0.5478 0.0717 -0.1038
vt 0.5517 0.0518 0.1038
vt 0.5928 0.1060 0.1038
vt 0.5889 0.1259 0.1038
vt 0.2275 0.0241 0.1038
vt 0.1738 0.0448 0.1038
vt 0.1777 0.0249 0.0525
vt 0.2314 0.0042 0.1038
vt 0.4682 0.1570 0.0000
vt 0.5090 0.1026 0.0000
vt 0.7233 0.2633 0.0000
vt 0.6825 0.3177 0.0000
vt 0.8971 0.2116 0.1038
vt 0.8932 0.2315 0.1038
vt 0.6300 0.1801 0.1038
vt 0.6339 0.1602 0.1038
vt 0.4832 0.8902 0.0511
vt 0.4613 0.8259 0.0511
vt 0.7148 0.7394 0.0511
vt 0.7368 0.8037 0.0511
vt 0.2850 0.0204 0.1038
vt 0.2889 0.0005 0.1038
vt 0.1132 0.0791 0.1038
vt 0.1171 0.0592 0.1038
vt 0.4274 0.2114 0.0000
vt 0.6417 0.3722 0.0000
vt 0.5052 0.9546 0.0511
vt 0.7587 0.8681 -0.2578
vt 0.3977 0.1041 0.0000
vt 0.4531 0.0882 0.0000
vt 0.9984 0.2313 0.1038
vt 0.9945 0.2513 0.1038
vt 0.3999 0.9187 0.0511
vt 0.3637 0.8591 0.2578
vt 0.3449 0.1495 0.0000
vt 0.4476 0.9510 0.0511
vt 0.0205 0.5941 -0.1356
vt 0.0005 0.5978 -0.1356
vt 0.0357 0.5396 -0.1356
vt 0.0557 0.5359 -0.1356
vt 0.0946 0.9097 -0.1356
vt 0.1337 0.9521 -0.0685
vt 0.1137 0.9558 -0.1356
vt 0.0746 0.9134 -0.1356
vt 0.8760 0.9093 -0.0639
vt 0.8105 0.9273 -0.0639
vt 0.7394 0.6690 -0.0639
vt 0.8049 0.6510 -0.0639
vt 0.0218 0.2183 -0.1356
vt 0.0417 0.2145 -0.1356
vt 0.0909 0.4777 -0.1356
vt 0.0709 0.4814 0.1356
vt 0.2123 0.6087 -0.0512
vt 0.1467 0.6267 -0.0512
vt 0.0756 0.3685 0.0512
vt 0.1412 0.3504 -0.0512
vt 0.0699 0.8575 -0.1356
vt 0.0499 0.8613 -0.1356
vt 0.1880 0.9958 -0.1356
vt 0.1680 0.9995 -0.1356
vt 0.9416 0.8912 -0.0639
vt 0.8705 0.6329 0.0639
vt 0.2779 0.5907 -0.0512
vt 0.2068 0.3324 -0.0512
vt 0.8994 0.9942 -0.0639
vt 0.8458 0.9729 -0.0639
vt 0.0028 0.1169 -0.1356
vt 0.0228 0.1132 -0.1356
vt 0.2357 0.6936 -0.0512
vt 0.1741 0.7262 0.0512
vt 0.9690 0.9906 0.0639
vt 0.2708 0.6479 -0.0512
vt 0.6034 0.7489 -0.1333
vt 0.6164 0.7645 -0.1333
vt 0.5485 0.7620 -0.1333
vt 0.5355 0.7464 -0.1333
vt 0.8432 0.5309 -0.1333
vt 0.8612 0.4761 -0.0674
vt 0.8742 0.4918 -0.1333
vt 0.8562 0.5466 -0.1333
vt 0.7985 0.3492 0.0000
vt 0.8403 0.4029 0.0000
vt 0.6287 0.5672 -0.2629
vt 0.5870 0.5135 0.0000
vt 0.2744 0.9308 -0.1333
vt 0.2614 0.9151 -0.1333
vt 0.4675 0.7440 -0.1333
vt 0.4805 0.7596 0.1333
vt 0.4792 0.4381 0.0521
vt 0.5457 0.4521 0.0521
vt 0.4905 0.7142 0.0521
vt 0.4240 0.7002 0.0521
vt 0.8096 0.5778 -0.1333
vt 0.8226 0.5935 -0.1333
vt 0.8730 0.4075 -0.1333
vt 0.8860 0.4231 -0.1333
vt 0.7568 0.2955 0.0000
vt 0.5453 0.4598 0.0000
vt 0.4126 0.4241 0.0521
vt 0.3574 0.6862 -0.2629
vt 0.8681 0.2951 0.0000
vt 0.8689 0.3528 0.0000
vt 0.1951 0.9967 -0.1333
vt 0.1821 0.9810 -0.1333
vt 0.4973 0.3519 0.0521
vt 0.5670 0.3512 0.2629
vt 0.8383 0.2322 0.2629
vt 0.4451 0.3764 0.0521
# 201 texture coords

o FinHolder
g FinHolder
usemtl wire_115115115
s 1
f 1/1/1 2/2/2 3/3/3 4/4/4 
f 2/2/2 5/5/5 6/6/6 3/3/3 
f 5/5/5 7/7/7 8/8/8 6/6/6 
f 7/7/7 9/9/9 10/10/10 8/8/8 
f 9/9/9 11/11/11 12/12/12 10/10/10 
f 11/11/11 13/13/13 14/14/14 12/12/12 
f 13/13/13 15/15/15 16/16/16 14/14/14 
f 15/15/15 17/17/17 18/18/18 16/16/16 
f 17/19/17 19/20/19 20/21/20 18/22/18 
f 19/20/19 21/23/21 22/24/22 20/21/20 
f 21/23/21 23/25/23 24/26/24 22/24/22 
f 23/25/23 1/1/1 4/4/4 24/26/24 
f 25/27/25 26/28/26 27/29/27 28/30/28 
f 28/30/28 27/29/27 29/31/29 30/32/30 
f 30/32/30 29/31/29 31/33/31 32/34/32 
f 33/35/33 34/36/34 35/37/35 36/38/36 
f 34/36/34 37/39/37 38/40/38 35/37/35 
f 37/39/37 39/41/39 40/42/40 38/40/38 
f 25/27/25 28/30/28 41/43/41 42/44/42 
f 28/30/28 30/32/30 43/45/43 41/43/41 
f 30/32/30 32/34/32 44/46/44 43/45/43 
f 42/44/42 41/43/41 45/47/45 46/48/46 
f 41/43/41 43/45/43 47/49/47 45/47/45 
f 43/45/43 44/46/44 48/50/48 47/49/47 
f 46/48/46 45/47/45 34/36/34 33/35/33 
f 45/47/45 47/49/47 37/39/37 34/36/34 
f 47/49/47 48/50/48 39/41/39 37/39/37 
f 32/34/32 31/33/31 49/51/49 44/46/44 
f 44/46/44 49/51/49 50/52/50 48/50/48 
f 48/50/48 50/52/50 40/42/40 39/41/39 
f 26/28/26 25/27/25 42/44/42 51/53/51 
f 51/53/51 42/44/42 46/48/46 52/54/52 
f 52/54/52 46/48/46 33/35/33 36/38/36 
s 2
f 53/55/53 40/56/40 50/57/50 54/58/54 
f 55/59/55 38/60/38 40/56/40 53/55/53 
f 56/61/56 35/62/35 38/60/38 55/59/55 
f 57/63/57 36/64/36 35/62/35 56/61/56 
f 58/65/58 52/66/52 36/64/36 57/63/57 
f 59/67/59 51/68/51 52/66/52 58/65/58 
f 60/69/60 26/70/26 51/68/51 59/67/59 
f 61/71/61 27/72/27 26/70/26 60/69/60 
f 62/73/62 29/74/29 27/75/27 61/76/61 
f 63/77/63 31/78/31 29/74/29 62/73/62 
f 64/79/64 49/80/49 31/78/31 63/77/63 
f 54/58/54 50/57/50 49/80/49 64/79/64 
s 8
f 65/81/65 66/82/66 4/4/4 3/3/3 
f 66/82/66 67/83/67 24/26/24 4/4/4 
f 67/83/67 68/84/68 22/24/22 24/26/24 
f 68/84/68 69/85/69 20/21/20 22/24/22 
f 69/85/69 70/86/70 18/22/18 20/21/20 
f 70/87/70 71/88/71 16/16/16 18/18/18 
f 71/88/71 72/89/72 14/14/14 16/16/16 
f 72/89/72 73/90/73 12/12/12 14/14/14 
f 73/90/73 74/91/74 10/10/10 12/12/12 
f 74/91/74 75/92/75 8/8/8 10/10/10 
f 75/92/75 76/93/76 6/6/6 8/8/8 
f 76/93/76 65/81/65 3/3/3 6/6/6 
s 2
f 65/81/65 53/55/53 54/58/54 66/82/66 
f 76/93/76 55/59/55 53/55/53 65/81/65 
f 75/92/75 56/61/56 55/59/55 76/93/76 
f 74/91/74 57/63/57 56/61/56 75/92/75 
f 73/90/73 58/65/58 57/63/57 74/91/74 
f 72/89/72 59/67/59 58/65/58 73/90/73 
f 71/88/71 60/69/60 59/67/59 72/89/72 
f 70/87/70 61/71/61 60/69/60 71/88/71 
f 69/85/69 62/73/62 61/76/61 70/86/70 
f 68/84/68 63/77/63 62/73/62 69/85/69 
f 67/83/67 64/79/64 63/77/63 68/84/68 
f 66/82/66 54/58/54 64/79/64 67/83/67 
f 77/94/77 78/95/78 79/96/79 80/97/80 
s 4
f 81/98/81 82/99/82 83/100/83 84/101/84 
s 8
f 85/102/85 86/103/86 77/104/77 80/105/80 
s 16
f 87/106/87 88/107/88 89/108/89 90/109/90 
s 32
f 91/110/91 87/111/87 90/112/90 79/113/79 
s 64
f 86/114/86 92/115/92 78/95/78 77/94/77 
s 2
f 79/96/79 90/109/90 89/108/89 80/97/80 
s 4
f 82/99/82 93/116/93 94/117/94 83/100/83 
s 8
f 88/118/88 85/102/85 80/105/80 89/119/89 
s 32
f 92/120/92 91/110/91 79/113/79 78/121/78 
s 8
f 85/102/85 82/122/82 81/123/81 86/103/86 
s 16
f 87/106/87 94/124/94 93/125/93 88/107/88 
s 32
f 91/110/91 83/126/83 94/127/94 87/111/87 
s 64
f 86/114/86 81/98/81 84/101/84 92/115/92 
s 8
f 88/118/88 93/128/93 82/122/82 85/102/85 
s 32
f 92/120/92 84/129/84 83/126/83 91/110/91 
s 2
f 95/130/95 96/131/96 97/132/97 98/133/98 
s 4
f 99/134/99 100/135/100 101/136/101 102/137/102 
s 8
f 103/138/103 104/139/104 95/140/95 98/141/98 
s 16
f 105/142/105 106/143/106 107/144/107 108/145/108 
s 32
f 109/146/109 105/147/105 108/148/108 97/149/97 
s 64
f 104/150/104 110/151/110 96/131/96 95/130/95 
s 2
f 97/132/97 108/145/108 107/144/107 98/133/98 
s 4
f 100/135/100 111/152/111 112/153/112 101/136/101 
s 8
f 106/154/106 103/138/103 98/141/98 107/155/107 
s 32
f 110/156/110 109/146/109 97/149/97 96/157/96 
s 8
f 103/138/103 100/158/100 99/159/99 104/139/104 
s 16
f 105/142/105 112/160/112 111/161/111 106/143/106 
s 32
f 109/146/109 101/162/101 112/163/112 105/147/105 
s 64
f 104/150/104 99/134/99 102/137/102 110/151/110 
s 8
f 106/154/106 111/164/111 100/158/100 103/138/103 
s 32
f 110/156/110 102/165/102 101/162/101 109/146/109 
s 2
f 113/166/113 114/167/114 115/168/115 116/169/116 
s 4
f 117/170/117 118/171/118 119/172/119 120/173/120 
s 8
f 121/174/121 122/175/122 113/176/113 116/177/116 
s 16
f 123/178/123 124/179/124 125/180/125 126/181/126 
s 32
f 127/182/127 123/183/123 126/184/126 115/185/115 
s 64
f 122/186/122 128/187/128 114/167/114 113/166/113 
s 2
f 115/168/115 126/181/126 125/180/125 116/169/116 
s 4
f 118/171/118 129/188/129 130/189/130 119/172/119 
s 8
f 124/190/124 121/174/121 116/177/116 125/191/125 
s 32
f 128/192/128 127/182/127 115/185/115 114/193/114 
s 8
f 121/174/121 118/194/118 117/195/117 122/175/122 
s 16
f 123/178/123 130/196/130 129/197/129 124/179/124 
s 32
f 127/182/127 119/198/119 130/199/130 123/183/123 
s 64
f 122/186/122 117/170/117 120/173/120 128/187/128 
s 8
f 124/190/124 129/200/129 118/194/118 121/174/121 
s 32
f 128/192/128 120/201/120 119/198/119 127/182/127 
# 117 polygons

