# 3ds Max Wavefront OBJ Exporter v0.97b - (c)2007 guruware
# File Created: 10.02.2018 15:06:49

mtllib Hedge.mtl

#
# object Hedge
#

v  -196.7052 52.4013 -62.7070
v  -176.3402 56.7853 -62.7070
v  -176.3402 56.7853 -63.9355
v  -196.7052 52.4013 -63.9355
v  -196.7052 29.3736 -63.6387
v  -174.7905 29.3736 -63.6387
v  -174.7905 31.2346 -63.6387
v  -196.7052 31.2346 -63.6387
v  -18.4536 29.3736 -62.7070
v  -18.4536 29.3736 -63.9355
v  -18.4536 31.2346 -63.9355
v  -18.4536 31.2346 -62.7070
v  -18.4536 29.3736 -75.0738
v  -22.0939 29.3736 -75.0738
v  -22.0939 31.2346 -75.0738
v  -18.4536 31.2346 -75.0738
v  -196.7052 29.3736 -75.0738
v  -196.7052 29.3736 -73.7741
v  -196.7052 31.2346 -73.7741
v  -196.7052 31.2346 -75.0738
v  -47.4246 56.5472 -62.7070
v  -18.4536 52.4013 -62.7070
v  -18.4536 52.4013 -63.9355
v  -47.4246 56.5472 -63.9355
v  -22.0939 29.3736 -62.7070
v  -22.0939 31.2346 -62.7070
v  -105.0232 29.3736 -75.0738
v  -105.0232 31.2346 -75.0738
v  -114.0565 52.4412 -62.7070
v  -114.0565 52.4412 -63.9355
v  -105.0232 29.3736 -62.7070
v  -105.0232 31.2346 -62.7070
v  -174.7905 29.3736 -75.0738
v  -174.7905 31.2346 -75.0738
v  -176.3402 56.7853 -73.7741
v  -176.3402 56.7853 -75.0738
v  -196.7052 52.4013 -75.0738
v  -196.7052 52.4013 -73.7741
v  -18.4536 29.3736 -73.7741
v  -18.4536 31.2346 -73.7741
v  -196.7052 29.3736 -64.8672
v  -196.7052 31.2346 -64.8672
v  -18.4536 52.4013 -73.7741
v  -18.4536 52.4013 -75.0738
v  -47.4246 56.5472 -75.0738
v  -47.4246 56.5472 -73.7741
v  -114.0565 52.4412 -75.0738
v  -114.0565 52.4412 -73.7741
v  -170.3926 50.8646 -62.7070
v  -196.7052 50.1334 -62.7070
v  -18.4536 50.1334 -63.9355
v  -18.4536 50.1334 -62.7070
v  -47.4246 54.2793 -75.0738
v  -18.4536 50.1334 -75.0738
v  -196.7052 50.1334 -73.7741
v  -196.7052 50.1334 -75.0738
v  -47.4246 54.2793 -62.7070
v  -170.3926 50.8646 -75.0738
v  -114.0565 50.1732 -75.0738
v  -114.0565 50.1732 -62.7070
v  -18.4536 50.1334 -73.7741
v  -196.7052 50.1334 -63.9355
v  -172.4343 41.7517 -60.7915
v  -196.7052 41.3599 -62.7070
v  -18.4536 41.3599 -63.9355
v  -18.4536 41.3599 -60.4908
v  -35.6653 43.5812 -78.2354
v  -18.4536 41.3599 -76.0055
v  -196.7052 41.3599 -75.0858
v  -196.7052 41.3599 -76.3854
v  -35.6653 43.5812 -60.4550
v  -172.4343 41.7517 -77.9148
v  -109.8629 41.3813 -78.9137
v  -109.8629 41.3813 -60.2887
v  -18.4536 41.3599 -74.7058
v  -196.7052 41.3599 -63.9355
v  19.5584 52.4013 -62.7070
v  39.9234 56.7853 -62.7070
v  39.9234 56.7853 -63.9355
v  19.5584 52.4013 -63.9355
v  19.5584 29.3736 -63.6387
v  41.4731 29.3736 -63.6387
v  41.4731 31.2346 -63.6387
v  19.5584 31.2346 -63.6387
v  197.8100 29.3736 -62.7070
v  197.8100 29.3736 -63.9355
v  197.8100 31.2346 -63.9355
v  197.8100 31.2346 -62.7070
v  197.8100 29.3736 -75.0738
v  194.1697 29.3736 -75.0738
v  194.1697 31.2346 -75.0738
v  197.8100 31.2346 -75.0738
v  19.5584 29.3736 -75.0738
v  19.5584 29.3736 -73.7741
v  19.5584 31.2346 -73.7741
v  19.5584 31.2346 -75.0738
v  168.8390 56.5472 -62.7070
v  197.8100 52.4013 -62.7070
v  197.8100 52.4013 -63.9355
v  168.8390 56.5472 -63.9355
v  194.1697 29.3736 -62.7070
v  194.1697 31.2346 -62.7070
v  111.2404 29.3736 -75.0738
v  111.2404 31.2346 -75.0738
v  102.2071 52.4412 -62.7070
v  102.2071 52.4412 -63.9355
v  111.2404 29.3736 -62.7070
v  111.2404 31.2346 -62.7070
v  41.4731 29.3736 -75.0738
v  41.4731 31.2346 -75.0738
v  39.9234 56.7853 -73.7741
v  39.9234 56.7853 -75.0738
v  19.5584 52.4013 -75.0738
v  19.5584 52.4013 -73.7741
v  197.8100 29.3736 -73.7741
v  197.8100 31.2346 -73.7741
v  19.5584 29.3736 -64.8672
v  19.5584 31.2346 -64.8672
v  197.8100 52.4013 -73.7741
v  197.8100 52.4013 -75.0738
v  168.8390 56.5472 -75.0738
v  168.8390 56.5472 -73.7741
v  102.2071 52.4412 -75.0738
v  102.2071 52.4412 -73.7741
v  45.8710 50.8646 -62.7070
v  19.5584 50.1334 -62.7070
v  197.8100 50.1334 -63.9355
v  197.8100 50.1334 -62.7070
v  168.8390 54.2793 -75.0738
v  197.8100 50.1334 -75.0738
v  19.5584 50.1334 -73.7741
v  19.5584 50.1334 -75.0738
v  168.8390 54.2793 -62.7070
v  45.8710 50.8646 -75.0738
v  102.2071 50.1732 -75.0738
v  102.2071 50.1732 -62.7070
v  197.8100 50.1334 -73.7741
v  19.5584 50.1334 -63.9355
v  43.8294 41.7517 -60.7915
v  20.2004 41.3599 -62.7070
v  197.8100 41.3599 -63.9355
v  197.8100 41.3599 -60.4908
v  180.5983 43.5812 -78.2354
v  197.8100 41.3599 -76.0055
v  18.4362 41.3599 -75.0858
v  18.4362 41.3599 -76.3854
v  180.5983 43.5812 -60.4550
v  43.8294 41.7517 -77.9148
v  106.4007 41.3813 -78.9137
v  106.4007 41.3813 -60.2887
v  197.8100 41.3599 -74.7058
v  20.2004 41.3599 -63.9355
# 152 vertices

vn -0.6285 0.5076 0.5893
vn -0.0524 0.7343 0.6768
vn -0.0711 0.9975 -0.0000
vn -0.7780 0.6283 -0.0000
vn -0.7071 0.0000 0.7071
vn -0.0067 0.0000 1.0000
vn -0.0062 -0.1311 0.9913
vn -0.7176 -0.0319 0.6957
vn 0.7071 0.0000 0.7071
vn 1.0000 0.0000 -0.0000
vn 0.7321 -0.0732 0.6772
vn 0.7071 0.0000 -0.7071
vn 0.0000 0.0000 -1.0000
vn 0.0000 -0.1250 -0.9922
vn 0.7176 -0.0319 -0.6957
vn -0.7071 0.0000 -0.7071
vn -1.0000 0.0000 -0.0000
vn -0.7219 -0.0445 -0.6906
vn 0.0294 0.7280 0.6849
vn 0.6127 0.5312 0.5852
vn 0.7555 0.6551 -0.0000
vn 0.0403 0.9992 -0.0000
vn -0.0000 0.0000 1.0000
vn -0.0000 -0.0901 0.9959
vn 0.0000 -0.1799 -0.9837
vn 0.0028 0.6917 0.7222
vn 0.0040 1.0000 -0.0000
vn -0.0057 -0.1179 0.9930
vn 0.0000 -0.1315 -0.9913
vn -0.0524 0.7343 -0.6768
vn -0.6285 0.5076 -0.5893
vn 0.6127 0.5312 -0.5852
vn 0.0294 0.7280 -0.6849
vn 0.0028 0.6917 -0.7222
vn -0.0005 0.1022 0.9948
vn 0.7424 0.0900 0.6639
vn -0.0014 0.1326 -0.9912
vn 0.7221 0.0399 -0.6907
vn -0.7249 0.0520 -0.6869
vn -0.0011 0.0958 0.9954
vn -0.0007 0.1488 -0.9889
vn -0.0032 0.2077 -0.9782
vn -0.0020 0.1360 0.9907
vn -0.0436 -0.0177 0.9989
vn -0.7243 -0.0320 0.6887
vn 0.6595 -0.0021 0.7517
vn 0.0895 0.1188 -0.9889
vn 0.7310 -0.0007 -0.6824
vn -0.7001 0.0060 -0.7140
vn 0.0134 0.0373 0.9992
vn -0.0398 0.0292 -0.9988
vn -0.0056 0.0184 -0.9998
vn -0.0043 0.0125 0.9999
vn -0.7245 -0.0074 0.6892
vn -0.9985 -0.0552 -0.0000
vn -0.7068 -0.0874 -0.7020
vn 0.0293 0.7280 0.6850
vn 0.6127 0.5311 0.5852
vn -0.9995 0.0317 0.0000
vn 0.6127 0.5311 -0.5852
vn 0.0294 0.7281 -0.6849
vn -0.7147 -0.0261 0.6990
vn -0.9980 0.0636 -0.0000
vn -0.7071 0.1021 -0.6997
vn -0.9993 -0.0365 -0.0000
vn -0.0446 -0.0174 0.9989
vn -0.7106 -0.0374 0.7026
vn -0.9974 0.0077 0.0711
vn -0.7228 0.0109 -0.6910
vn -0.0384 0.0288 -0.9988
vn -0.9971 -0.0082 0.0758
# 71 vertex normals

vt 0.0352 0.7168 -5.5781
vt 0.1192 0.7192 -5.5781
vt 0.1195 0.7241 -5.5781
vt 0.0351 0.7220 -5.5781
vt 0.0200 0.6203 5.5781
vt 0.1109 0.6064 -5.5781
vt 0.1119 0.6141 -5.5781
vt 0.0212 0.6280 -5.5781
vt 0.7839 0.0201 0.0000
vt 0.7890 0.0201 0.0000
vt 0.7890 0.0278 0.0000
vt 0.7839 0.0278 0.0000
vt 0.7612 0.8847 -9.4680
vt 0.7462 0.8867 1.8025
vt 0.7452 0.8791 1.8025
vt 0.7602 0.8770 1.8025
vt 0.8269 0.8831 0.0000
vt 0.8215 0.8829 0.0000
vt 0.8219 0.8752 0.0000
vt 0.8272 0.8754 0.0000
vt 0.6455 0.6630 -5.5781
vt 0.7628 0.6387 -5.5781
vt 0.7638 0.6436 -5.5781
vt 0.6462 0.6680 -5.5781
vt 0.7385 0.5407 -5.5781
vt 0.7537 0.5391 5.5781
vt 0.7545 0.5468 -5.5781
vt 0.7393 0.5484 -5.5781
vt 0.4079 0.9330 1.8025
vt 0.4069 0.9254 1.8025
vt 0.3726 0.6830 -5.5781
vt 0.3732 0.6881 -5.5781
vt 0.3997 0.5808 -5.5781
vt 0.4005 0.5884 -5.5781
vt 0.1225 0.9691 1.8025
vt 0.0324 0.9800 1.8025
vt 0.0315 0.9724 1.8025
vt 0.1215 0.9615 1.8025
vt 0.1217 0.7638 -5.5781
vt 0.1220 0.7692 -5.5781
vt 0.0350 0.7694 -5.5781
vt 0.0350 0.7640 -5.5781
vt 0.8295 0.0200 0.0000
vt 0.8349 0.0200 0.0000
vt 0.8349 0.0277 0.0000
vt 0.8295 0.0277 0.0000
vt 0.7849 0.8814 0.0000
vt 0.7852 0.8737 0.0000
vt 0.7720 0.6845 -5.5781
vt 0.7730 0.6899 -5.5781
vt 0.6524 0.7128 -5.5781
vt 0.6517 0.7074 -5.5781
vt 0.3781 0.7346 -5.5781
vt 0.3775 0.7292 -5.5781
vt 0.7798 0.8812 -10.9582
vt 0.7801 0.8735 0.0000
vt 0.1394 0.6936 -5.5781
vt 0.0335 0.7072 -5.5781
vt 0.7892 0.1057 0.0000
vt 0.7892 0.1150 0.0000
vt 0.7841 0.1150 0.0000
vt 0.7841 0.1057 0.0000
vt 0.6294 0.7955 1.8025
vt 0.6282 0.7862 1.8025
vt 0.7487 0.7892 1.8025
vt 0.7498 0.7985 1.8025
vt 0.8250 0.7974 0.0000
vt 0.8254 0.7880 0.0000
vt 0.8307 0.7882 0.0000
vt 0.8304 0.7976 0.0000
vt 0.7622 0.6293 -5.5781
vt 0.6446 0.6539 -5.5781
vt 0.1286 0.8756 1.8025
vt 0.1008 0.8548 1.8025
vt 0.3576 0.8374 1.8025
vt 0.3589 0.8467 1.8025
vt 0.3716 0.6737 -5.5781
vt 0.0213 0.8940 1.8025
vt 0.0200 0.8847 9.4680
vt 0.8351 0.1056 0.0000
vt 0.8351 0.1149 0.0000
vt 0.8297 0.1149 0.0000
vt 0.8297 0.1056 0.0000
vt 0.7845 0.7957 0.0000
vt 0.7849 0.7864 0.0000
vt 0.7794 0.7955 0.0000
vt 0.7798 0.7862 10.9582
vt 0.1272 0.6573 -5.5781
vt 0.0277 0.6706 -5.5781
vt 0.7891 0.0695 0.0000
vt 0.7749 0.0695 0.0000
vt 0.6824 0.8353 1.8025
vt 0.7543 0.8350 1.8025
vt 0.8289 0.8337 0.0000
vt 0.8343 0.8339 0.0000
vt 0.7590 0.5906 -5.5781
vt 0.6880 0.6057 -5.5781
vt 0.1257 0.9157 1.8025
vt 0.3813 0.8836 1.8025
vt 0.3851 0.6337 -5.5781
vt 0.0264 0.9304 1.8025
vt 0.8388 0.0694 0.0000
vt 0.8335 0.0694 0.0000
vt 0.7830 0.8319 0.0000
vt 0.7780 0.8317 0.0000
vt 0.0352 0.4697 5.5782
vt 0.1193 0.4720 5.5782
vt 0.1195 0.4770 5.5782
vt 0.0351 0.4749 5.5782
vt 0.0200 0.3731 -5.5782
vt 0.1110 0.3593 5.5782
vt 0.1119 0.3670 5.5782
vt 0.0212 0.3809 5.5782
vt 0.7988 0.2920 0.0000
vt 0.8039 0.2920 0.0000
vt 0.8039 0.2997 0.0000
vt 0.7988 0.2997 0.0000
vt 0.7581 0.1139 -5.5311
vt 0.7434 0.1173 5.5311
vt 0.7417 0.1098 5.5311
vt 0.7564 0.1064 5.5311
vt 0.8388 0.6362 0.0000
vt 0.8334 0.6360 0.0000
vt 0.8337 0.6283 0.0000
vt 0.8391 0.6285 0.0000
vt 0.6455 0.4158 5.5782
vt 0.7628 0.3915 5.5782
vt 0.7639 0.3965 5.5782
vt 0.6462 0.4208 5.5782
vt 0.7385 0.2936 5.5782
vt 0.7537 0.2919 -5.5782
vt 0.7546 0.2997 5.5782
vt 0.7394 0.3013 5.5782
vt 0.4107 0.1942 5.5311
vt 0.4090 0.1867 5.5311
vt 0.3726 0.4359 5.5782
vt 0.3732 0.4410 5.5782
vt 0.3997 0.3336 5.5782
vt 0.4005 0.3413 5.5782
vt 0.1297 0.2561 5.5311
vt 0.0411 0.2752 5.5311
vt 0.0395 0.2676 5.5311
vt 0.1281 0.2486 5.5311
vt 0.1217 0.5167 5.5782
vt 0.1221 0.5221 5.5782
vt 0.0350 0.5223 5.5782
vt 0.0350 0.5169 5.5782
vt 0.8444 0.2919 0.0000
vt 0.8498 0.2919 0.0000
vt 0.8498 0.2996 0.0000
vt 0.8444 0.2996 0.0000
vt 0.7967 0.6344 0.0000
vt 0.7970 0.6268 0.0000
vt 0.7720 0.4374 5.5782
vt 0.7730 0.4427 5.5782
vt 0.6524 0.4656 5.5782
vt 0.6517 0.4603 5.5782
vt 0.3781 0.4874 5.5782
vt 0.3776 0.4821 5.5782
vt 0.7916 0.6342 -10.9813
vt 0.7919 0.6266 0.0000
vt 0.1394 0.4465 5.5782
vt 0.0335 0.4601 5.5782
vt 0.8041 0.3776 0.0000
vt 0.8041 0.3869 0.0000
vt 0.7990 0.3869 0.0000
vt 0.7990 0.3776 0.0000
vt 0.6187 0.0371 5.5311
vt 0.6168 0.0279 5.5311
vt 0.7370 0.0200 5.5311
vt 0.7390 0.0291 5.5311
vt 0.8369 0.5502 0.0000
vt 0.8372 0.5408 0.0000
vt 0.8426 0.5410 0.0000
vt 0.8423 0.5504 0.0000
vt 0.7622 0.3821 5.5782
vt 0.6446 0.4068 5.5782
vt 0.1273 0.1624 5.5311
vt 0.0978 0.1442 5.5311
vt 0.3520 0.1035 5.5311
vt 0.3540 0.1126 5.5311
vt 0.3717 0.4265 5.5782
vt 0.0222 0.1904 5.5311
vt 0.0200 0.1813 5.5311
vt 0.8500 0.3775 0.0000
vt 0.8500 0.3868 0.0000
vt 0.8446 0.3868 0.0000
vt 0.8446 0.3775 0.0000
vt 0.7963 0.5486 0.0000
vt 0.7967 0.5393 0.0000
vt 0.7912 0.5484 0.0000
vt 0.7916 0.5391 10.9813
vt 0.1272 0.4102 5.5782
vt 0.0304 0.4231 5.5782
vt 0.8040 0.3414 0.0000
vt 0.7898 0.3415 0.0000
vt 0.6752 0.0719 5.5311
vt 0.7467 0.0651 5.5311
vt 0.8412 0.5867 0.0000
vt 0.8465 0.5869 0.0000
vt 0.7590 0.3435 5.5782
vt 0.6880 0.3586 5.5782
vt 0.1281 0.2026 5.5311
vt 0.3797 0.1473 5.5311
vt 0.3851 0.3866 5.5782
vt 0.0260 0.2273 4.1433
vt 0.8537 0.3413 0.0000
vt 0.8484 0.3413 0.0000
vt 0.7948 0.5848 0.0000
vt 0.7898 0.5846 0.0000
# 210 texture coords

o Hedge
g Hedge
usemtl wire_115115115
s 4
f 1/1/1 2/2/2 3/3/3 4/4/4 
s 8
f 5/5/5 6/6/6 7/7/7 8/8/8 
s 16
f 9/9/9 10/10/10 11/11/10 12/12/11 
s 32
f 13/13/12 14/14/13 15/15/14 16/16/15 
s 64
f 17/17/16 18/18/17 19/19/17 20/20/18 
s 4
f 21/21/19 22/22/20 23/23/21 24/24/22 
s 8
f 25/25/23 9/26/9 12/27/11 26/28/24 
s 32
f 14/14/13 27/29/13 28/30/25 15/15/14 
s 4
f 2/2/2 29/31/26 30/32/27 3/3/3 
s 8
f 6/6/6 31/33/6 32/34/28 7/7/7 
s 32
f 33/35/13 17/36/16 20/37/18 34/38/29 
s 4
f 35/39/3 36/40/30 37/41/31 38/42/4 
s 16
f 39/43/10 13/44/12 16/45/15 40/46/10 
s 64
f 18/18/17 41/47/17 42/48/17 19/19/17 
s 4
f 43/49/21 44/50/32 45/51/33 46/52/22 
f 46/52/22 45/51/33 47/53/34 48/54/27 
f 3/3/3 35/39/3 38/42/4 4/4/4 
s 16
f 10/10/10 39/43/10 40/46/10 11/11/10 
s 4
f 23/23/21 43/49/21 46/52/22 24/24/22 
f 24/24/22 46/52/22 48/54/27 30/32/27 
s 64
f 41/47/17 5/55/5 8/56/8 42/48/17 
s 8
f 49/57/35 2/2/2 1/1/1 50/58/5 
s 16
f 51/59/10 23/60/21 22/61/20 52/62/36 
s 32
f 53/63/37 45/64/33 44/65/32 54/66/38 
s 64
f 55/67/17 38/68/4 37/69/31 56/70/39 
s 8
f 52/71/36 22/22/20 21/21/19 57/72/40 
s 32
f 58/73/41 36/74/30 47/75/34 59/76/42 
s 8
f 57/72/40 21/21/19 29/31/26 60/77/43 
s 32
f 56/78/39 37/79/31 36/74/30 58/73/41 
s 16
f 54/80/38 44/81/32 43/82/21 61/83/10 
s 64
f 62/84/17 4/85/4 38/68/4 55/67/17 
s 16
f 61/83/10 43/82/21 23/60/21 51/59/10 
s 64
f 50/86/5 1/87/1 4/85/4 62/84/17 
s 8
f 7/7/7 63/88/44 64/89/45 8/8/8 
s 16
f 11/11/10 65/90/10 66/91/46 12/12/11 
s 32
f 15/15/14 67/92/47 68/93/48 16/16/15 
s 64
f 19/19/17 69/94/17 70/95/49 20/20/18 
s 8
f 12/27/11 66/96/46 71/97/50 26/28/24 
s 32
f 34/38/29 72/98/51 73/99/52 28/30/25 
s 8
f 26/28/24 71/97/50 74/100/53 32/34/28 
s 32
f 20/37/18 70/101/49 72/98/51 34/38/29 
s 16
f 16/45/15 68/102/48 75/103/10 40/46/10 
s 64
f 42/48/17 76/104/17 69/94/17 19/19/17 
s 16
f 40/46/10 75/103/10 65/90/10 11/11/10 
s 64
f 8/56/8 64/105/45 76/104/17 42/48/17 
s 32
f 27/29/13 33/35/13 34/38/29 28/30/25 
s 4
f 29/31/26 21/21/19 24/24/22 30/32/27 
s 8
f 31/33/6 25/25/23 26/28/24 32/34/28 
s 4
f 47/53/34 36/40/30 35/39/3 48/54/27 
f 48/54/27 35/39/3 3/3/3 30/32/27 
s 32
f 47/75/34 45/64/33 53/63/37 59/76/42 
s 8
f 29/31/26 2/2/2 49/57/35 60/77/43 
s 32
f 59/76/42 53/63/37 67/92/47 73/99/52 
s 8
f 60/77/43 49/57/35 63/88/44 74/100/53 
f 63/88/44 49/57/35 50/58/5 64/89/45 
s 16
f 65/90/10 51/59/10 52/62/36 66/91/46 
s 32
f 67/92/47 53/63/37 54/66/38 68/93/48 
s 64
f 69/94/17 55/67/17 56/70/39 70/95/49 
s 8
f 66/96/46 52/71/36 57/72/40 71/97/50 
s 32
f 72/98/51 58/73/41 59/76/42 73/99/52 
s 8
f 71/97/50 57/72/40 60/77/43 74/100/53 
s 32
f 70/101/49 56/78/39 58/73/41 72/98/51 
s 16
f 68/102/48 54/80/38 61/83/10 75/103/10 
s 64
f 76/104/17 62/84/17 55/67/17 69/94/17 
s 16
f 75/103/10 61/83/10 51/59/10 65/90/10 
s 64
f 64/105/45 50/86/5 62/84/17 76/104/17 
s 32
f 67/92/47 15/15/14 28/30/25 73/99/52 
s 8
f 63/88/44 7/7/7 32/34/28 74/100/53 
s 4
f 77/106/1 78/107/2 79/108/3 80/109/4 
s 8
f 81/110/5 82/111/6 83/112/7 84/113/54 
s 16
f 85/114/9 86/115/10 87/116/10 88/117/11 
s 32
f 89/118/12 90/119/13 91/120/14 92/121/15 
s 64
f 93/122/16 94/123/17 95/124/55 96/125/56 
s 4
f 97/126/57 98/127/58 99/128/21 100/129/22 
s 8
f 101/130/23 85/131/9 88/132/11 102/133/24 
s 32
f 90/119/13 103/134/13 104/135/25 91/120/14 
s 4
f 78/107/2 105/136/26 106/137/27 79/108/3 
s 8
f 82/111/6 107/138/6 108/139/28 83/112/7 
s 32
f 109/140/13 93/141/16 96/142/56 110/143/29 
s 4
f 111/144/3 112/145/30 113/146/31 114/147/4 
s 16
f 115/148/10 89/149/12 92/150/15 116/151/10 
s 64
f 94/123/17 117/152/17 118/153/59 95/124/55 
s 4
f 119/154/21 120/155/60 121/156/61 122/157/22 
f 122/157/22 121/156/61 123/158/34 124/159/27 
f 79/108/3 111/144/3 114/147/4 80/109/4 
s 16
f 86/115/10 115/148/10 116/151/10 87/116/10 
s 4
f 99/128/21 119/154/21 122/157/22 100/129/22 
f 100/129/22 122/157/22 124/159/27 106/137/27 
s 64
f 117/152/17 81/160/5 84/161/54 118/153/59 
s 8
f 125/162/35 78/107/2 77/106/1 126/163/62 
s 16
f 127/164/10 99/165/21 98/166/58 128/167/36 
s 32
f 129/168/37 121/169/61 120/170/60 130/171/38 
s 64
f 131/172/63 114/173/4 113/174/31 132/175/64 
s 8
f 128/176/36 98/127/58 97/126/57 133/177/40 
s 32
f 134/178/41 112/179/30 123/180/34 135/181/42 
s 8
f 133/177/40 97/126/57 105/136/26 136/182/43 
s 32
f 132/183/64 113/184/31 112/179/30 134/178/41 
s 16
f 130/185/38 120/186/60 119/187/21 137/188/10 
s 64
f 138/189/65 80/190/4 114/173/4 131/172/63 
s 16
f 137/188/10 119/187/21 99/165/21 127/164/10 
s 64
f 126/191/62 77/192/1 80/190/4 138/189/65 
s 8
f 83/112/7 139/193/66 140/194/67 84/113/54 
s 16
f 87/116/10 141/195/10 142/196/46 88/117/11 
s 32
f 91/120/14 143/197/47 144/198/48 92/121/15 
s 64
f 95/124/55 145/199/68 146/200/69 96/125/56 
s 8
f 88/132/11 142/201/46 147/202/50 102/133/24 
s 32
f 110/143/29 148/203/70 149/204/52 104/135/25 
s 8
f 102/133/24 147/202/50 150/205/53 108/139/28 
s 32
f 96/142/56 146/206/69 148/203/70 110/143/29 
s 16
f 92/150/15 144/207/48 151/208/10 116/151/10 
s 64
f 118/153/59 152/209/71 145/199/68 95/124/55 
s 16
f 116/151/10 151/208/10 141/195/10 87/116/10 
s 64
f 84/161/54 140/210/67 152/209/71 118/153/59 
s 32
f 103/134/13 109/140/13 110/143/29 104/135/25 
s 4
f 105/136/26 97/126/57 100/129/22 106/137/27 
s 8
f 107/138/6 101/130/23 102/133/24 108/139/28 
s 4
f 123/158/34 112/145/30 111/144/3 124/159/27 
f 124/159/27 111/144/3 79/108/3 106/137/27 
s 32
f 123/180/34 121/169/61 129/168/37 135/181/42 
s 8
f 105/136/26 78/107/2 125/162/35 136/182/43 
s 32
f 135/181/42 129/168/37 143/197/47 149/204/52 
s 8
f 136/182/43 125/162/35 139/193/66 150/205/53 
f 139/193/66 125/162/35 126/163/62 140/194/67 
s 16
f 141/195/10 127/164/10 128/167/36 142/196/46 
s 32
f 143/197/47 129/168/37 130/171/38 144/198/48 
s 64
f 145/199/68 131/172/63 132/175/64 146/200/69 
s 8
f 142/201/46 128/176/36 133/177/40 147/202/50 
s 32
f 148/203/70 134/178/41 135/181/42 149/204/52 
s 8
f 147/202/50 133/177/40 136/182/43 150/205/53 
s 32
f 146/206/69 132/183/64 134/178/41 148/203/70 
s 16
f 144/207/48 130/185/38 137/188/10 151/208/10 
s 64
f 152/209/71 138/189/65 131/172/63 145/199/68 
s 16
f 151/208/10 137/188/10 127/164/10 141/195/10 
s 64
f 140/210/67 126/191/62 138/189/65 152/209/71 
s 32
f 143/197/47 91/120/14 104/135/25 149/204/52 
s 8
f 139/193/66 83/112/7 108/139/28 150/205/53 
# 136 polygons

