# 3ds Max Wavefront OBJ Exporter v0.97b - (c)2007 guruware
# File Created: 18.03.2018 19:12:01

mtllib Blood.mtl

#
# object blood_plane
#

v  -19.6954 0.0000 19.8856
v  19.6747 0.0000 19.8856
v  19.6747 0.0000 -19.4845
v  -19.6954 0.0000 -19.4845
# 4 vertices

vn 0.0000 1.0000 -0.0000
# 1 vertex normals

vt 0.0000 0.0000 0.0000
vt 1.0000 0.0000 0.0000
vt 1.0000 1.0000 0.0000
vt 0.0000 1.0000 0.0000
# 4 texture coords

o blood_plane
g blood_plane
usemtl wire_148177027
s 1
f 1/1/1 2/2/1 3/3/1 4/4/1 
# 1 polygons

