# 3ds Max Wavefront OBJ Exporter v0.97b - (c)2007 guruware
# File Created: 10.02.2018 14:28:02

mtllib Oil drum.mtl

#
# object oil_drum
#

v  13.0585 8.1278 -7.5393
v  13.0585 10.4501 -7.5393
v  15.0786 10.4501 0.0000
v  15.0786 8.1278 0.0000
v  7.5393 8.1278 -13.0585
v  7.5393 10.4501 -13.0585
v  -0.0000 8.1278 -15.0786
v  -0.0000 10.4501 -15.0786
v  -7.5393 8.1278 -13.0585
v  -7.5393 10.4501 -13.0585
v  -13.0585 8.1278 -7.5393
v  -13.0585 10.4501 -7.5393
v  -15.0786 8.1278 -0.0000
v  -15.0786 10.4501 -0.0000
v  -13.0585 8.1278 7.5393
v  -13.0585 10.4501 7.5393
v  -7.5393 8.1278 13.0585
v  -7.5393 10.4501 13.0585
v  -0.0000 8.1278 15.0786
v  -0.0000 10.4501 15.0786
v  7.5393 8.1278 13.0585
v  7.5393 10.4501 13.0585
v  13.0585 8.1278 7.5393
v  13.0585 10.4501 7.5393
v  7.3276 37.1559 -12.6917
v  -12.6917 37.1559 -7.3276
v  -7.3276 37.1559 12.6917
v  12.6917 37.1559 7.3276
v  -0.0000 37.1559 14.6551
v  7.3276 37.1559 12.6917
v  14.6551 37.1559 -0.0000
v  12.6917 37.1559 -7.3276
v  -0.0000 37.1559 -14.6551
v  -7.3276 37.1559 -12.6917
v  -14.6551 37.1559 -0.0000
v  -12.6917 37.1559 7.3276
v  13.0585 26.7058 -7.5393
v  13.0585 29.0280 -7.5393
v  15.0786 29.0280 0.0000
v  15.0786 26.7058 0.0000
v  7.5393 26.7058 -13.0585
v  7.5393 29.0280 -13.0585
v  -0.0000 26.7058 -15.0786
v  -0.0000 29.0280 -15.0786
v  -7.5393 26.7058 -13.0585
v  -7.5393 29.0280 -13.0585
v  -13.0585 26.7058 -7.5393
v  -13.0585 29.0280 -7.5393
v  -15.0786 26.7058 -0.0000
v  -15.0786 29.0280 -0.0000
v  -13.0585 26.7058 7.5393
v  -13.0585 29.0280 7.5393
v  -7.5393 26.7058 13.0585
v  -7.5393 29.0280 13.0585
v  -0.0000 26.7058 15.0786
v  -0.0000 29.0280 15.0786
v  7.5393 26.7058 13.0585
v  7.5393 29.0280 13.0585
v  13.0585 26.7058 7.5393
v  13.0585 29.0280 7.5393
v  12.6917 10.4501 -7.3276
v  12.6917 26.7058 -7.3276
v  14.6551 26.7058 -0.0000
v  14.6551 10.4501 -0.0000
v  14.6551 8.1278 -0.0000
v  14.6551 0.0000 -0.0000
v  12.6917 0.0000 -7.3276
v  12.6917 8.1278 -7.3276
v  7.3276 10.4501 -12.6917
v  7.3276 26.7058 -12.6917
v  7.3276 0.0000 -12.6917
v  7.3276 8.1278 -12.6917
v  -0.0000 10.4501 -14.6551
v  -0.0000 26.7058 -14.6551
v  -0.0000 0.0000 -14.6551
v  -0.0000 8.1278 -14.6551
v  -7.3276 10.4501 -12.6917
v  -7.3276 26.7058 -12.6917
v  -7.3276 0.0000 -12.6917
v  -7.3276 8.1278 -12.6917
v  -12.6917 10.4501 -7.3276
v  -12.6917 26.7058 -7.3276
v  -12.6917 0.0000 -7.3276
v  -12.6917 8.1278 -7.3276
v  -14.6551 10.4501 -0.0000
v  -14.6551 26.7058 -0.0000
v  -14.6551 0.0000 -0.0000
v  -14.6551 8.1278 -0.0000
v  -12.6917 10.4501 7.3276
v  -12.6917 26.7058 7.3276
v  -12.6917 0.0000 7.3276
v  -12.6917 8.1278 7.3276
v  -7.3276 10.4501 12.6917
v  -7.3276 26.7058 12.6917
v  -7.3276 0.0000 12.6917
v  -7.3276 8.1278 12.6917
v  -0.0000 10.4501 14.6551
v  -0.0000 26.7058 14.6551
v  -0.0000 0.0000 14.6551
v  -0.0000 8.1278 14.6551
v  7.3276 10.4501 12.6917
v  7.3276 26.7058 12.6917
v  7.3276 0.0000 12.6917
v  7.3276 8.1278 12.6917
v  12.6917 10.4501 7.3276
v  12.6917 26.7058 7.3276
v  12.6917 0.0000 7.3276
v  12.6917 8.1278 7.3276
v  12.6917 29.0280 -7.3276
v  14.6551 29.0280 -0.0000
v  7.3276 29.0280 -12.6917
v  -0.0000 29.0280 -14.6551
v  -7.3276 29.0280 -12.6917
v  -12.6917 29.0280 -7.3276
v  -14.6551 29.0280 -0.0000
v  -12.6917 29.0280 7.3276
v  -7.3276 29.0280 12.6917
v  -0.0000 29.0280 14.6551
v  7.3276 29.0280 12.6917
v  12.6917 29.0280 7.3276
v  9.3279 36.5864 -4.2967
v  9.3279 38.3046 -4.2967
v  10.7072 38.3046 -3.7254
v  10.7072 36.5864 -3.7254
v  9.3279 38.3046 -4.0564
v  10.5373 38.3046 -3.5555
v  9.3279 36.5864 -4.0564
v  10.5373 36.5864 -3.5555
v  11.2785 38.3046 -2.3461
v  11.2785 36.5864 -2.3461
v  11.0383 38.3046 -2.3461
v  11.0383 36.5864 -2.3461
v  10.7072 38.3046 -0.9668
v  10.7072 36.5864 -0.9668
v  10.5373 38.3046 -1.1367
v  10.5373 36.5864 -1.1367
v  9.3279 38.3046 -0.3954
v  9.3279 36.5864 -0.3954
v  9.3279 38.3046 -0.6357
v  9.3279 36.5864 -0.6357
v  7.9486 38.3046 -0.9668
v  7.9486 36.5864 -0.9668
v  8.1185 38.3046 -1.1367
v  8.1185 36.5864 -1.1367
v  7.3773 38.3046 -2.3461
v  7.3773 36.5864 -2.3461
v  7.6175 38.3046 -2.3461
v  7.6175 36.5864 -2.3461
v  7.9486 38.3046 -3.7254
v  7.9486 36.5864 -3.7254
v  8.1185 38.3046 -3.5555
v  8.1185 36.5864 -3.5555
# 152 vertices

vn 0.6557 -0.6533 -0.3785
vn 0.6557 0.6533 -0.3785
vn 0.7572 0.6532 0.0000
vn 0.7572 -0.6532 0.0000
vn 0.3785 -0.6533 -0.6557
vn 0.3785 0.6533 -0.6557
vn -0.0000 -0.6532 -0.7572
vn -0.0000 0.6532 -0.7572
vn -0.3785 -0.6533 -0.6557
vn -0.3785 0.6533 -0.6557
vn -0.6557 -0.6533 -0.3785
vn -0.6557 0.6533 -0.3785
vn -0.7572 -0.6532 0.0000
vn -0.7572 0.6532 0.0000
vn -0.6557 -0.6532 0.3786
vn -0.6557 0.6532 0.3786
vn -0.3786 -0.6533 0.6557
vn -0.3786 0.6533 0.6557
vn 0.0000 -0.6533 0.7571
vn 0.0000 0.6533 0.7571
vn 0.3786 -0.6532 0.6557
vn 0.3786 0.6532 0.6557
vn 0.6557 -0.6532 0.3786
vn 0.6557 0.6532 0.3786
vn 0.3786 0.6533 -0.6557
vn 0.5000 0.7071 0.5000
vn -0.0000 0.6533 0.7571
vn 0.3786 0.6533 0.6557
vn 0.6557 0.6533 0.3785
vn 0.6557 0.6532 -0.3786
vn -0.0000 0.6533 -0.7571
vn -0.7572 0.6532 -0.0000
vn 0.5523 0.7703 -0.3189
vn 0.5523 -0.7703 -0.3189
vn 0.6377 -0.7703 0.0000
vn 0.6377 0.7703 0.0000
vn 1.0000 0.0000 0.0000
vn 0.8660 0.0000 -0.5000
vn 0.3189 0.7703 -0.5522
vn 0.3189 -0.7703 -0.5522
vn 0.5000 0.0000 -0.8660
vn -0.0000 0.7703 -0.6377
vn -0.0000 -0.7703 -0.6377
vn -0.0000 0.0000 -1.0000
vn -0.3188 0.7703 -0.5523
vn -0.3188 -0.7703 -0.5523
vn -0.5000 0.0000 -0.8660
vn -0.5523 0.7703 -0.3188
vn -0.5523 -0.7703 -0.3188
vn -0.8660 0.0000 -0.5000
vn -0.6377 0.7703 -0.0000
vn -0.6377 -0.7703 -0.0000
vn -1.0000 0.0000 -0.0000
vn -0.5523 0.7703 0.3189
vn -0.5523 -0.7703 0.3189
vn -0.8660 0.0000 0.5000
vn -0.3189 0.7703 0.5522
vn -0.3189 -0.7703 0.5522
vn -0.5000 0.0000 0.8660
vn -0.0000 0.7703 0.6376
vn -0.0000 -0.7703 0.6376
vn -0.0000 0.0000 1.0000
vn 0.3189 0.7703 0.5522
vn 0.3189 -0.7703 0.5522
vn 0.5000 0.0000 0.8660
vn 0.5523 0.7703 0.3189
vn 0.5523 -0.7703 0.3189
vn 0.8660 0.0000 0.5000
vn -0.0000 0.6303 -0.7763
vn 0.5489 0.6303 -0.5489
vn 0.7071 0.0000 -0.7071
vn -0.0000 0.8042 0.5944
vn -0.4203 0.8042 0.4203
vn -0.7071 0.0000 0.7071
vn 0.7763 0.6303 -0.0000
vn 1.0000 0.0000 -0.0000
vn -0.5944 0.8042 -0.0000
vn 0.5489 0.6303 0.5490
vn 0.7071 0.0000 0.7071
vn -0.4203 0.8042 -0.4203
vn -0.7071 0.0000 -0.7071
vn 0.0000 0.6303 0.7764
vn 0.0000 0.0000 1.0000
vn 0.0000 0.8042 -0.5944
vn 0.0000 0.0000 -1.0000
vn -0.5490 0.6303 0.5490
vn 0.4203 0.8042 -0.4203
vn -0.7763 0.6303 0.0000
vn -1.0000 0.0000 0.0000
vn 0.5944 0.8042 0.0000
vn -0.5489 0.6303 -0.5490
vn 0.4203 0.8042 0.4203
# 92 vertex normals

vt 0.5139 0.1497 0.0000
vt 0.4908 0.1429 0.0000
vt 0.5103 0.0624 0.0000
vt 0.5374 0.0697 0.0000
vt 0.4951 0.2251 0.0000
vt 0.4715 0.2186 0.0000
vt 0.4771 0.2988 0.0000
vt 0.4536 0.2928 0.0000
vt 0.4598 0.3733 0.0000
vt 0.4363 0.3674 0.0000
vt 0.4428 0.4474 0.0000
vt 0.4191 0.4412 0.0000
vt 0.4257 0.5232 0.0000
vt 0.4015 0.5170 0.0000
vt 0.4078 0.6012 0.0000
vt 0.3835 0.5951 0.0000
vt 0.3900 0.6777 0.0000
vt 0.3665 0.6717 0.0000
vt 0.3733 0.7505 0.0000
vt 0.3500 0.7446 0.0000
vt 0.3570 0.8239 0.0000
vt 0.3332 0.8179 0.0000
vt 0.3398 0.9020 0.0000
vt 0.3158 0.8961 0.0000
vt 0.3242 0.9865 0.0000
vt 0.2956 0.9805 0.0000
vt 0.6722 0.9681 0.0000
vt 0.4660 0.9138 0.0000
vt 0.5203 0.7075 0.0000
vt 0.7265 0.7618 0.0000
vt 0.5956 0.6870 0.0000
vt 0.6711 0.7069 0.0000
vt 0.7301 0.7628 0.0000
vt 0.7493 0.8385 0.0000
vt 0.7281 0.9136 0.0000
vt 0.5969 0.9886 0.0000
vt 0.5214 0.9687 0.0000
vt 0.4455 0.8385 0.0000
vt 0.4653 0.7630 0.0000
vt 0.3081 0.1045 0.0000
vt 0.2842 0.0984 0.0000
vt 0.3002 0.0143 0.0000
vt 0.3286 0.0203 0.0000
vt 0.2912 0.1820 0.0000
vt 0.2672 0.1760 0.0000
vt 0.2745 0.2568 0.0000
vt 0.2508 0.2511 0.0000
vt 0.2579 0.3319 0.0000
vt 0.2343 0.3261 0.0000
vt 0.2411 0.4062 0.0000
vt 0.2174 0.4001 0.0000
vt 0.2243 0.4819 0.0000
vt 0.2002 0.4758 0.0000
vt 0.2065 0.5597 0.0000
vt 0.1824 0.5536 0.0000
vt 0.1882 0.6358 0.0000
vt 0.1649 0.6295 0.0000
vt 0.1705 0.7079 0.0000
vt 0.1475 0.7017 0.0000
vt 0.1525 0.7804 0.0000
vt 0.1290 0.7739 0.0000
vt 0.1334 0.8573 0.0000
vt 0.1101 0.8506 0.0000
vt 0.1133 0.9385 0.0000
vt 0.0859 0.9311 0.0000
vt 0.4865 0.1418 0.0000
vt 0.3126 0.1055 0.0000
vt 0.3325 0.0225 0.0000
vt 0.5054 0.0626 0.0000
vt 0.5410 0.0719 0.0000
vt 0.6210 0.0955 0.0000
vt 0.5993 0.1709 0.0000
vt 0.5182 0.1508 0.0000
vt 0.4675 0.2176 0.0000
vt 0.2949 0.1828 0.0000
vt 0.5791 0.2446 0.0000
vt 0.4987 0.2260 0.0000
vt 0.4496 0.2918 0.0000
vt 0.2786 0.2577 0.0000
vt 0.5609 0.3174 0.0000
vt 0.4811 0.2997 0.0000
vt 0.4323 0.3664 0.0000
vt 0.2619 0.3328 0.0000
vt 0.5441 0.3908 0.0000
vt 0.4638 0.3742 0.0000
vt 0.4155 0.4403 0.0000
vt 0.2451 0.4071 0.0000
vt 0.5280 0.4650 0.0000
vt 0.4468 0.4483 0.0000
vt 0.3971 0.5160 0.0000
vt 0.2284 0.4829 0.0000
vt 0.5118 0.5412 0.0000
vt 0.4298 0.5242 0.0000
vt 0.3794 0.5942 0.0000
vt 0.2110 0.5607 0.0000
vt 0.4939 0.6192 0.0000
vt 0.4123 0.6022 0.0000
vt 0.3625 0.6707 0.0000
vt 0.1922 0.6368 0.0000
vt 0.4748 0.6953 0.0000
vt 0.3940 0.6787 0.0000
vt 0.3464 0.7438 0.0000
vt 0.1740 0.7088 0.0000
vt 0.4574 0.7675 0.0000
vt 0.3769 0.7513 0.0000
vt 0.3291 0.8170 0.0000
vt 0.1566 0.7814 0.0000
vt 0.4429 0.8402 0.0000
vt 0.3610 0.8248 0.0000
vt 0.3113 0.8951 0.0000
vt 0.1377 0.8584 0.0000
vt 0.4301 0.9171 0.0000
vt 0.3443 0.9030 0.0000
vt 0.2917 0.9784 0.0000
vt 0.1183 0.9384 0.0000
vt 0.4175 0.9995 0.0000
vt 0.3293 0.9861 0.0000
vt 0.2798 0.0975 0.0000
vt 0.1938 0.0828 0.0000
vt 0.2070 0.0005 0.0000
vt 0.2951 0.0147 0.0000
vt 0.2631 0.1751 0.0000
vt 0.1803 0.1600 0.0000
vt 0.2468 0.2502 0.0000
vt 0.1656 0.2347 0.0000
vt 0.2303 0.3252 0.0000
vt 0.1497 0.3088 0.0000
vt 0.2137 0.3992 0.0000
vt 0.1324 0.3826 0.0000
vt 0.1957 0.4748 0.0000
vt 0.1141 0.4583 0.0000
vt 0.1783 0.5526 0.0000
vt 0.0969 0.5360 0.0000
vt 0.1610 0.6285 0.0000
vt 0.0814 0.6113 0.0000
vt 0.1439 0.7008 0.0000
vt 0.0654 0.6827 0.0000
vt 0.1250 0.7729 0.0000
vt 0.0467 0.7527 0.0000
vt 0.1058 0.8494 0.0000
vt 0.0241 0.8267 0.0000
vt 0.0245 0.8254 0.0000
vt 0.0823 0.9288 0.0000
vt 0.0005 0.9035 0.0000
vt 0.9929 0.0928 -0.0203
vt 0.9752 0.0928 0.0203
vt 0.9752 0.0774 0.0203
vt 0.9929 0.0774 0.0203
vt 0.0630 0.9645 0.0000
vt 0.0630 0.9620 0.0000
vt 0.0754 0.9569 0.0000
vt 0.0772 0.9586 0.0000
vt 0.9632 0.0814 0.0203
vt 0.9455 0.0814 -0.0203
vt 0.9455 0.0679 -0.0203
vt 0.9632 0.0679 -0.0203
vt 0.9752 0.0620 0.0203
vt 0.9929 0.0620 0.0203
vt 0.0806 0.9444 0.0000
vt 0.0831 0.9444 0.0000
vt 0.9455 0.0545 -0.0203
vt 0.9632 0.0545 -0.0203
vt 0.9752 0.0467 0.0203
vt 0.9929 0.0467 0.0203
vt 0.0754 0.9320 0.0000
vt 0.0772 0.9302 0.0000
vt 0.9455 0.0410 -0.0203
vt 0.9632 0.0410 -0.0203
vt 0.9752 0.0313 0.0203
vt 0.9929 0.0313 -0.0203
vt 0.0630 0.9268 0.0000
vt 0.0630 0.9243 0.0000
vt 0.9455 0.0275 -0.0203
vt 0.9632 0.0275 0.0203
vt 0.9752 0.0159 0.0203
vt 0.9929 0.0159 0.0203
vt 0.0505 0.9320 0.0000
vt 0.0488 0.9302 0.0000
vt 0.9455 0.0140 -0.0203
vt 0.9632 0.0140 -0.0203
vt 0.9752 0.0005 0.0203
vt 0.9929 0.0005 0.0203
vt 0.0454 0.9444 0.0000
vt 0.0429 0.9444 0.0000
vt 0.9455 0.0005 -0.0203
vt 0.9632 0.0005 -0.0203
vt 0.9929 0.1236 0.0203
vt 0.9752 0.1236 0.0203
vt 0.9752 0.1082 0.0203
vt 0.9929 0.1082 0.0203
vt 0.0505 0.9569 0.0000
vt 0.0488 0.9586 0.0000
vt 0.9632 0.1084 -0.0203
vt 0.9455 0.1084 -0.0203
vt 0.9455 0.0949 -0.0203
vt 0.9632 0.0949 -0.0203
# 196 texture coords

o oil_drum
g oil_drum
usemtl wire_140088225
s 8
f 1/1/1 2/2/2 3/3/3 4/4/4 
f 5/5/5 6/6/6 2/2/2 1/1/1 
f 7/7/7 8/8/8 6/6/6 5/5/5 
f 9/9/9 10/10/10 8/8/8 7/7/7 
f 11/11/11 12/12/12 10/10/10 9/9/9 
f 13/13/13 14/14/14 12/12/12 11/11/11 
f 15/15/15 16/16/16 14/14/14 13/13/13 
f 17/17/17 18/18/18 16/16/16 15/15/15 
f 19/19/19 20/20/20 18/18/18 17/17/17 
f 21/21/21 22/22/22 20/20/20 19/19/19 
f 23/23/23 24/24/24 22/22/22 21/21/21 
f 4/25/4 3/26/3 24/24/24 23/23/23 
s 1
f 25/27/25 26/28/12 27/29/18 28/30/26 
f 27/29/18 29/31/27 30/32/28 28/30/26 
f 28/30/26 28/33/29 31/34/3 32/35/30 25/27/25 
f 25/27/25 33/36/31 34/37/10 26/28/12 
f 26/28/12 35/38/32 36/39/16 27/29/18 
s 8
f 37/40/1 38/41/2 39/42/3 40/43/4 
f 41/44/5 42/45/6 38/41/2 37/40/1 
f 43/46/7 44/47/8 42/45/6 41/44/5 
f 45/48/9 46/49/10 44/47/8 43/46/7 
f 47/50/11 48/51/12 46/49/10 45/48/9 
f 49/52/13 50/53/14 48/51/12 47/50/11 
f 51/54/15 52/55/16 50/53/14 49/52/13 
f 53/56/17 54/57/18 52/55/16 51/54/15 
f 55/58/19 56/59/20 54/57/18 53/56/17 
f 57/60/21 58/61/22 56/59/20 55/58/19 
f 59/62/23 60/63/24 58/61/22 57/60/21 
f 40/64/4 39/65/3 60/63/24 59/62/23 
f 61/66/33 62/67/34 63/68/35 64/69/36 
f 65/70/35 66/71/37 67/72/38 68/73/34 
f 69/74/39 70/75/40 62/67/34 61/66/33 
f 68/73/34 67/72/38 71/76/41 72/77/40 
f 73/78/42 74/79/43 70/75/40 69/74/39 
f 72/77/40 71/76/41 75/80/44 76/81/43 
f 77/82/45 78/83/46 74/79/43 73/78/42 
f 76/81/43 75/80/44 79/84/47 80/85/46 
f 81/86/48 82/87/49 78/83/46 77/82/45 
f 80/85/46 79/84/47 83/88/50 84/89/49 
f 85/90/51 86/91/52 82/87/49 81/86/48 
f 84/89/49 83/88/50 87/92/53 88/93/52 
f 89/94/54 90/95/55 86/91/52 85/90/51 
f 88/93/52 87/92/53 91/96/56 92/97/55 
f 93/98/57 94/99/58 90/95/55 89/94/54 
f 92/97/55 91/96/56 95/100/59 96/101/58 
f 97/102/60 98/103/61 94/99/58 93/98/57 
f 96/101/58 95/100/59 99/104/62 100/105/61 
f 101/106/63 102/107/64 98/103/61 97/102/60 
f 100/105/61 99/104/62 103/108/65 104/109/64 
f 105/110/66 106/111/67 102/107/64 101/106/63 
f 104/109/64 103/108/65 107/112/68 108/113/67 
f 64/114/36 63/115/35 106/111/67 105/110/66 
f 108/113/67 107/112/68 66/116/37 65/117/35 
f 109/118/33 32/119/30 31/120/3 110/121/36 
f 111/122/39 25/123/25 32/119/30 109/118/33 
f 112/124/42 33/125/31 25/123/25 111/122/39 
f 113/126/45 34/127/10 33/125/31 112/124/42 
f 114/128/48 26/129/12 34/127/10 113/126/45 
f 115/130/51 35/131/32 26/129/12 114/128/48 
f 116/132/54 36/133/16 35/131/32 115/130/51 
f 117/134/57 27/135/18 36/133/16 116/132/54 
f 118/136/60 29/137/27 27/135/18 117/134/57 
f 119/138/63 30/139/28 29/137/27 118/136/60 
f 120/140/66 28/141/29 28/142/26 30/139/28 119/138/63 
f 110/143/36 31/144/3 28/141/29 120/140/66 
s off
f 61/66/33 64/69/36 3/3/3 2/2/2 
f 64/114/36 105/110/66 24/24/24 3/26/3 
f 105/110/66 101/106/63 22/22/22 24/24/24 
f 101/106/63 97/102/60 20/20/20 22/22/22 
f 97/102/60 93/98/57 18/18/18 20/20/20 
f 93/98/57 89/94/54 16/16/16 18/18/18 
f 89/94/54 85/90/51 14/14/14 16/16/16 
f 85/90/51 81/86/48 12/12/12 14/14/14 
f 81/86/48 77/82/45 10/10/10 12/12/12 
f 77/82/45 73/78/42 8/8/8 10/10/10 
f 73/78/42 69/74/39 6/6/6 8/8/8 
f 69/74/39 61/66/33 2/2/2 6/6/6 
f 65/70/35 68/73/34 1/1/1 4/4/4 
f 68/73/34 72/77/40 5/5/5 1/1/1 
f 72/77/40 76/81/43 7/7/7 5/5/5 
f 76/81/43 80/85/46 9/9/9 7/7/7 
f 80/85/46 84/89/49 11/11/11 9/9/9 
f 84/89/49 88/93/52 13/13/13 11/11/11 
f 88/93/52 92/97/55 15/15/15 13/13/13 
f 92/97/55 96/101/58 17/17/17 15/15/15 
f 96/101/58 100/105/61 19/19/19 17/17/17 
f 100/105/61 104/109/64 21/21/21 19/19/19 
f 104/109/64 108/113/67 23/23/23 21/21/21 
f 108/113/67 65/117/35 4/25/4 23/23/23 
f 109/118/33 110/121/36 39/42/3 38/41/2 
f 110/143/36 120/140/66 60/63/24 39/65/3 
f 120/140/66 119/138/63 58/61/22 60/63/24 
f 119/138/63 118/136/60 56/59/20 58/61/22 
f 118/136/60 117/134/57 54/57/18 56/59/20 
f 117/134/57 116/132/54 52/55/16 54/57/18 
f 116/132/54 115/130/51 50/53/14 52/55/16 
f 115/130/51 114/128/48 48/51/12 50/53/14 
f 114/128/48 113/126/45 46/49/10 48/51/12 
f 113/126/45 112/124/42 44/47/8 46/49/10 
f 112/124/42 111/122/39 42/45/6 44/47/8 
f 111/122/39 109/118/33 38/41/2 42/45/6 
f 63/68/35 62/67/34 37/40/1 40/43/4 
f 62/67/34 70/75/40 41/44/5 37/40/1 
f 70/75/40 74/79/43 43/46/7 41/44/5 
f 74/79/43 78/83/46 45/48/9 43/46/7 
f 78/83/46 82/87/49 47/50/11 45/48/9 
f 82/87/49 86/91/52 49/52/13 47/50/11 
f 86/91/52 90/95/55 51/54/15 49/52/13 
f 90/95/55 94/99/58 53/56/17 51/54/15 
f 94/99/58 98/103/61 55/58/19 53/56/17 
f 98/103/61 102/107/64 57/60/21 55/58/19 
f 102/107/64 106/111/67 59/62/23 57/60/21 
f 106/111/67 63/115/35 40/64/4 59/62/23 
s 2
f 121/145/44 122/146/69 123/147/70 124/148/71 
s 4
f 122/149/69 125/150/72 126/151/73 123/152/70 
s 2
f 125/153/72 127/154/62 128/155/74 126/156/73 
f 124/148/71 123/147/70 129/157/75 130/158/76 
s 4
f 123/152/70 126/151/73 131/159/77 129/160/75 
s 2
f 126/156/73 128/155/74 132/161/53 131/162/77 
f 130/158/76 129/157/75 133/163/78 134/164/79 
s 4
f 129/160/75 131/159/77 135/165/80 133/166/78 
s 2
f 131/162/77 132/161/53 136/167/81 135/168/80 
f 134/164/79 133/163/78 137/169/82 138/170/83 
s 4
f 133/166/78 135/165/80 139/171/84 137/172/82 
s 2
f 135/168/80 136/167/81 140/173/85 139/174/84 
f 138/170/83 137/169/82 141/175/86 142/176/74 
s 4
f 137/172/82 139/171/84 143/177/87 141/178/86 
s 2
f 139/174/84 140/173/85 144/179/71 143/180/87 
f 142/176/74 141/175/86 145/181/88 146/182/89 
s 4
f 141/178/86 143/177/87 147/183/90 145/184/88 
s 2
f 143/180/87 144/179/71 148/185/37 147/186/90 
f 146/187/89 145/188/88 149/189/91 150/190/81 
s 4
f 145/184/88 147/183/90 151/191/92 149/192/91 
s 2
f 147/193/90 148/194/37 152/195/79 151/196/92 
f 150/190/81 149/189/91 122/146/69 121/145/44 
s 4
f 149/192/91 151/191/92 125/150/72 122/149/69 
s 2
f 151/196/92 152/195/79 127/154/62 125/153/72 
# 137 polygons

