# 3ds Max Wavefront OBJ Exporter v0.97b - (c)2007 guruware
# File Created: 10.02.2018 20:45:02

mtllib Lantern.mtl

#
# object Lantern
#

v  -1.5059 0.0000 -1.5059
v  1.5059 0.0000 -1.5059
v  1.5059 0.0000 1.5059
v  -1.5059 0.0000 1.5059
v  1.5059 0.9843 -1.5059
v  -1.5059 0.9843 -1.5059
v  -1.5059 0.9843 1.5059
v  1.5059 0.9843 1.5059
v  -1.5059 0.0000 1.9685
v  1.5059 0.0000 1.9685
v  1.5059 0.9843 1.9685
v  -1.5059 0.9843 1.9685
v  1.9685 0.0000 1.5059
v  1.9685 0.0000 -1.5059
v  1.9685 0.9843 -1.5059
v  1.9685 0.9843 1.5059
v  1.5059 0.0000 -1.9685
v  -1.5059 0.0000 -1.9685
v  -1.5059 0.9843 -1.9685
v  1.5059 0.9843 -1.9685
v  -1.9685 0.0000 -1.5059
v  -1.9685 0.0000 1.5059
v  -1.9685 0.9843 1.5059
v  -1.9685 0.9843 -1.5059
v  1.9685 0.0000 -1.9685
v  1.9685 0.9843 -1.9685
v  1.9685 0.9843 1.9685
v  1.9685 0.0000 1.9685
v  -1.9685 0.0000 1.9685
v  -1.9685 0.9843 1.9685
v  -1.9685 0.9843 -1.9685
v  -1.9685 0.0000 -1.9685
v  -0.9251 8.8217 -1.2092
v  -1.2092 8.8217 -1.2092
v  -1.2092 8.8217 -0.9251
v  -0.9251 8.8217 -0.9251
v  0.9251 8.8217 -0.9251
v  1.2092 8.8217 -0.9251
v  1.2092 8.8217 -1.2092
v  0.9251 8.8217 -1.2092
v  0.9251 8.8217 1.2092
v  1.2092 8.8217 1.2092
v  1.2092 8.8217 0.9251
v  0.9251 8.8217 0.9251
v  -0.9251 8.8217 0.9251
v  -1.2092 8.8217 0.9251
v  -1.2092 8.8217 1.2092
v  -0.9251 8.8217 1.2092
v  -1.2510 8.3907 -0.9570
v  -1.2510 8.3907 -1.2510
v  -0.9570 8.3907 -0.9570
v  -0.9570 8.3907 -1.2510
v  0.9570 8.3907 -1.2510
v  1.2510 8.3907 -1.2510
v  0.9570 8.3907 -0.9570
v  1.2510 8.3907 -0.9570
v  1.2510 8.3907 0.9570
v  1.2510 8.3907 1.2510
v  0.9570 8.3907 0.9570
v  0.9570 8.3907 1.2510
v  -0.9570 8.3907 1.2510
v  -1.2510 8.3907 1.2510
v  -0.9570 8.3907 0.9570
v  -1.2510 8.3907 0.9570
v  1.1340 8.5606 1.0701
v  1.9133 0.7806 1.5722
v  1.9133 0.7806 -1.5819
v  1.1340 8.5606 -1.0622
v  1.9123 4.5265 1.4140
v  1.9058 4.5632 1.3242
v  1.8902 4.6516 1.2870
v  1.8902 4.6516 1.4140
v  1.8044 4.6364 1.5409
v  1.7888 4.7248 1.5037
v  1.4600 4.6669 1.5037
v  1.4756 4.5784 1.5409
v  1.7823 4.7614 1.4140
v  1.4535 4.7035 1.4140
v  1.7888 4.7248 1.3242
v  1.4600 4.6669 1.3242
v  1.8044 4.6364 1.2870
v  1.4756 4.5784 1.2870
v  1.8200 4.5480 1.3242
v  1.4912 4.4900 1.3242
v  1.8264 4.5114 1.4140
v  1.4976 4.4534 1.4140
v  1.8200 4.5480 1.5037
v  1.4912 4.4900 1.5037
v  1.7837 4.7537 1.5331
v  1.8044 4.6364 1.5824
v  1.8902 4.6516 1.5824
v  1.8696 4.7689 1.5331
v  1.8251 4.5191 1.5331
v  1.9109 4.5343 1.5331
v  1.8336 4.4705 1.4140
v  1.9195 4.4857 1.4140
v  1.8251 4.5191 1.2948
v  1.9109 4.5343 1.2948
v  1.8044 4.6364 1.2455
v  1.8902 4.6516 1.2455
v  1.7837 4.7537 1.2948
v  1.8696 4.7689 1.2948
v  1.7751 4.8023 1.4140
v  1.8610 4.8174 1.4140
v  1.8902 4.6516 1.5409
v  1.8747 4.7400 1.5037
v  1.8682 4.7766 1.4140
v  1.8747 4.7400 1.3242
v  1.9058 4.5632 1.5037
v  -1.0964 8.5606 1.0196
v  -1.5985 0.7806 1.7989
v  1.5556 0.7806 1.7989
v  1.0358 8.5606 1.0196
v  0.4358 8.6592 -0.0000
v  0.3082 8.6592 -0.3082
v  0.3082 9.6338 -0.3082
v  0.4358 9.6338 -0.0000
v  -0.0000 8.6592 -0.4358
v  -0.0000 9.6338 -0.4358
v  -0.3082 8.6592 -0.3082
v  -0.3082 9.6338 -0.3082
v  -0.4358 8.6592 0.0000
v  -0.4358 9.6338 0.0000
v  -0.3082 8.6592 0.3082
v  -0.3082 9.6338 0.3082
v  0.0000 8.6592 0.4358
v  0.0000 9.6338 0.4358
v  0.3082 8.6592 0.3082
v  0.3082 9.6338 0.3082
v  -0.0000 9.6338 -0.0000
v  -0.0000 10.3101 0.0000
v  -0.0618 10.2652 0.0000
v  -0.0618 10.0484 0.4503
v  -0.0000 10.0764 0.4853
v  -0.0382 10.1926 0.0000
v  -0.0382 10.0031 0.3935
v  0.0382 10.1926 0.0000
v  0.0382 10.0031 0.3935
v  0.0618 10.2652 0.0000
v  0.0618 10.0484 0.4503
v  -0.0618 9.5612 0.5615
v  -0.0000 9.5512 0.6052
v  -0.0382 9.5773 0.4907
v  0.0382 9.5773 0.4907
v  0.0618 9.5612 0.5615
v  -0.0618 9.1705 0.2499
v  -0.0000 9.1300 0.2693
v  -0.0382 9.2359 0.2184
v  0.0382 9.2359 0.2184
v  0.0618 9.1705 0.2499
v  0.0000 9.1300 -0.2693
v  -0.0618 9.1705 -0.2499
v  -0.0618 9.5612 -0.5615
v  0.0000 9.5512 -0.6052
v  -0.0382 9.2359 -0.2184
v  -0.0382 9.5773 -0.4907
v  0.0382 9.2359 -0.2184
v  0.0382 9.5773 -0.4907
v  0.0618 9.1705 -0.2499
v  0.0618 9.5612 -0.5615
v  -0.0618 10.0484 -0.4503
v  0.0000 10.0764 -0.4853
v  -0.0382 10.0031 -0.3935
v  0.0382 10.0031 -0.3935
v  0.0618 10.0484 -0.4503
v  -1.0754 8.5606 -1.0874
v  -1.8547 0.7806 -1.5895
v  -1.8547 0.7806 1.5646
v  -1.0754 8.5606 1.0449
v  1.0280 8.5606 -1.1047
v  1.5300 0.7806 -1.8839
v  -1.6241 0.7806 -1.8839
v  -1.1043 8.5606 -1.1047
v  0.7554 0.8357 -0.0000
v  0.5342 0.8357 -0.5342
v  0.5342 2.6209 -0.5342
v  0.7554 2.6231 -0.0000
v  -0.0000 0.8357 -0.7554
v  -0.0000 2.7067 -0.7554
v  -0.5342 0.8357 -0.5342
v  -0.5342 2.6640 -0.5342
v  -0.7554 0.8357 -0.0000
v  -0.7554 2.6436 -0.0000
v  -0.5342 0.8357 0.5342
v  -0.5342 2.5072 0.5342
v  0.0000 0.8357 0.7554
v  0.0000 2.6457 0.7554
v  0.5342 0.8357 0.5342
v  0.5342 2.4609 0.5342
v  -0.0000 2.7251 -0.0000
v  -0.2018 3.0346 0.0313
v  -0.1561 3.0747 0.0313
v  -0.1561 3.0747 -0.0295
v  -0.2018 3.0346 -0.0295
v  -0.0458 2.7074 0.0313
v  0.0150 2.7074 0.0313
v  -0.0461 2.9494 0.0313
v  -0.0918 2.9093 0.0313
v  0.0150 2.7074 -0.0295
v  -0.0461 2.9494 -0.0295
v  -0.0458 2.7074 -0.0295
v  -0.0918 2.9093 -0.0295
# 202 vertices

vn 0.0000 -1.0000 -0.0000
vn -0.3257 0.8876 0.3257
vn 0.3257 0.8876 0.3257
vn 0.3257 0.8876 -0.3257
vn -0.3257 0.8876 -0.3257
vn 0.0000 -0.7071 0.7071
vn -0.2798 0.3083 0.9092
vn 0.2798 0.3083 0.9092
vn 0.7071 -0.7071 -0.0000
vn 0.9092 0.3083 0.2798
vn 0.9092 0.3083 -0.2798
vn 0.0000 -0.7071 -0.7071
vn 0.2798 0.3083 -0.9092
vn -0.2798 0.3083 -0.9092
vn -0.7071 -0.7071 -0.0000
vn -0.9092 0.3083 -0.2798
vn -0.9092 0.3083 0.2798
vn 0.5774 -0.5774 -0.5774
vn 0.7056 0.0660 -0.7056
vn 0.7056 0.0660 0.7056
vn 0.5774 -0.5774 0.5774
vn -0.5774 -0.5774 0.5774
vn -0.7056 0.0660 0.7056
vn -0.7056 0.0660 -0.7056
vn -0.5774 -0.5774 -0.5774
vn 0.0000 0.7404 -0.6722
vn -0.5504 0.6278 -0.5504
vn -0.6722 0.7404 -0.0000
vn 0.0000 1.0000 -0.0000
vn 0.6722 0.7404 -0.0000
vn 0.5504 0.6278 -0.5504
vn 0.0000 0.7404 0.6722
vn 0.5504 0.6278 0.5504
vn -0.5504 0.6278 0.5504
vn -0.9119 -0.2462 0.3284
vn -0.7006 0.1357 -0.7006
vn 0.2782 -0.9194 0.2782
vn 0.3284 -0.2462 -0.9119
vn -0.3284 -0.2462 -0.9119
vn 0.7006 0.1357 -0.7006
vn -0.2782 -0.9194 0.2782
vn 0.9119 -0.2462 0.3284
vn 0.9119 -0.2462 -0.3284
vn 0.7006 0.1357 0.7006
vn -0.2782 -0.9194 -0.2782
vn -0.3284 -0.2462 0.9119
vn 0.3284 -0.2462 0.9119
vn -0.7006 0.1357 0.7006
vn 0.2782 -0.9194 -0.2782
vn -0.9119 -0.2462 -0.3284
vn 0.9950 0.0997 0.0000
vn 0.9848 0.1736 0.0000
vn 0.9848 0.1736 -0.0000
vn -0.7920 -0.1397 0.5944
vn -0.8650 0.2743 0.4203
vn -0.1228 0.6964 0.7071
vn -0.0000 0.0000 1.0000
vn -0.8952 0.4457 0.0000
vn -0.1736 0.9848 -0.0000
vn -0.8650 0.2743 -0.4203
vn -0.1228 0.6964 -0.7071
vn -0.7920 -0.1396 -0.5944
vn 0.0000 -0.0000 -1.0000
vn -0.7191 -0.5535 -0.4202
vn 0.1228 -0.6964 -0.7070
vn -0.6887 -0.7251 -0.0000
vn 0.1736 -0.9848 0.0000
vn -0.7191 -0.5535 0.4202
vn 0.1228 -0.6963 0.7071
vn -0.7160 0.4313 0.5490
vn -0.6207 -0.1094 0.7764
vn 0.6206 0.1094 0.7764
vn 0.5254 0.6500 0.5490
vn -0.5254 -0.6501 0.5490
vn 0.7160 -0.4312 0.5490
vn -0.4859 -0.8740 -0.0000
vn 0.7555 -0.6551 -0.0000
vn -0.5254 -0.6501 -0.5490
vn 0.7160 -0.4312 -0.5490
vn -0.6207 -0.1094 -0.7764
vn 0.6207 0.1094 -0.7764
vn -0.7160 0.4312 -0.5490
vn 0.5254 0.6501 -0.5490
vn -0.7555 0.6551 -0.0000
vn 0.4859 0.8740 0.0000
vn -0.0000 0.0997 0.9950
vn 1.0000 0.0000 -0.0000
vn 0.7071 0.0000 -0.7071
vn 0.5490 0.6303 -0.5490
vn 0.7764 0.6303 -0.0000
vn -0.0000 0.0000 -1.0000
vn -0.0000 0.6303 -0.7764
vn -0.7071 0.0000 -0.7071
vn -0.5490 0.6303 -0.5490
vn -1.0000 0.0000 0.0000
vn -0.7764 0.6303 0.0000
vn -0.7071 0.0000 0.7071
vn -0.5490 0.6303 0.5490
vn 0.0000 0.0000 1.0000
vn 0.0000 0.6303 0.7764
vn 0.7071 0.0000 0.7071
vn 0.5490 0.6303 0.5490
vn -0.8963 0.4434 -0.0000
vn -0.8963 0.2764 0.3466
vn -0.0000 0.6235 0.7818
vn -0.6799 -0.7333 0.0000
vn -0.6799 -0.4572 -0.5733
vn 0.6799 -0.7333 -0.0000
vn 0.6799 -0.4573 -0.5733
vn 0.8963 0.4434 0.0000
vn 0.8963 0.2764 0.3466
vn -0.8963 -0.0987 0.4323
vn -0.0000 -0.2225 0.9749
vn -0.6799 0.1632 -0.7149
vn 0.6799 0.1632 -0.7149
vn 0.8963 -0.0987 0.4323
vn -0.8766 -0.3001 0.3763
vn -0.0000 -0.6235 0.7818
vn -0.6411 0.4785 -0.6000
vn 0.6411 0.4785 -0.6000
vn 0.8766 -0.3001 0.3763
vn 0.0000 -0.6235 -0.7818
vn -0.8766 -0.3001 -0.3763
vn -0.8963 -0.0987 -0.4323
vn 0.0000 -0.2225 -0.9749
vn -0.6411 0.4785 0.6000
vn -0.6799 0.1632 0.7149
vn 0.6411 0.4785 0.6000
vn 0.6799 0.1632 0.7149
vn 0.8766 -0.3001 -0.3763
vn 0.8963 -0.0987 -0.4323
vn -0.8963 0.2764 -0.3466
vn 0.0000 0.6235 -0.7818
vn -0.6799 -0.4572 0.5733
vn 0.6799 -0.4572 0.5733
vn 0.8963 0.2764 -0.3466
vn -0.9950 0.0997 -0.0000
vn 0.0000 0.0997 -0.9950
vn 1.0000 0.0000 0.0000
vn 0.6121 0.5480 -0.5701
vn 0.7850 0.6161 0.0640
vn 0.0181 0.6481 -0.7613
vn -0.5782 0.6092 -0.5426
vn -1.0000 0.0000 -0.0000
vn -0.7854 0.6158 0.0630
vn -0.7071 -0.0000 0.7071
vn -0.6522 0.3876 0.6515
vn 0.0000 -0.0000 1.0000
vn 0.0188 0.6572 0.7535
vn 0.7071 -0.0000 0.7071
vn 0.6689 0.3367 0.6627
vn 0.0133 0.9991 0.0400
vn -0.8148 0.0527 0.5774
vn 0.0527 0.8148 0.5773
vn 0.0527 0.8148 -0.5773
vn -0.8148 0.0527 -0.5774
vn -0.6422 -0.1462 0.7525
vn 0.7415 0.1871 0.6444
vn 0.6666 0.3504 0.6579
vn -0.5715 -0.2920 0.7669
vn 0.7415 0.1871 -0.6444
vn 0.6666 0.3504 -0.6579
vn -0.6422 -0.1462 -0.7525
vn -0.5715 -0.2920 -0.7669
# 164 vertex normals

vt 0.8236 0.3642 0.0000
vt 0.9485 0.3642 0.0000
vt 0.9485 0.4891 0.0000
vt 0.8236 0.4891 0.0000
vt 0.9995 0.2466 0.2709
vt 0.8746 0.2466 -0.2709
vt 0.8746 0.1217 0.2709
vt 0.9995 0.1217 -0.2709
vt 0.1709 0.6240 -3.4816
vt 0.2414 0.5223 -3.4816
vt 0.2744 0.5456 -3.4816
vt 0.2042 0.6467 -3.4816
vt 0.2647 0.4910 -3.4816
vt 0.3428 0.3975 -3.4816
vt 0.3728 0.4235 -3.4816
vt 0.2957 0.5159 -3.4816
vt 0.3696 0.3686 -3.4816
vt 0.4587 0.2837 -3.4816
vt 0.4858 0.3134 -3.4816
vt 0.3978 0.3972 -3.4816
vt 0.4889 0.2577 -3.4816
vt 0.5889 0.1785 -0.9134
vt 0.6144 0.2115 -3.4816
vt 0.5150 0.2901 -3.4816
vt 0.8236 0.3451 0.0000
vt 0.9485 0.3451 0.0000
vt 0.9485 0.5083 0.0000
vt 0.8236 0.5083 0.0000
vt 0.5970 0.9351 -2.1341
vt 0.4774 0.8991 0.0000
vt 0.4830 0.8807 0.0000
vt 0.6025 0.9168 0.0000
vt 0.4286 0.7948 -2.1342
vt 0.5481 0.8308 0.0000
vt 0.5425 0.8492 0.0000
vt 0.4230 0.8131 0.0000
vt 0.3557 0.3829 -3.4816
vt 0.3846 0.4097 -3.4816
vt 0.2844 0.5301 -3.4816
vt 0.2526 0.5066 -3.4816
vt 0.6048 0.1664 -3.4816
vt 0.6307 0.2002 -3.4816
vt 0.4997 0.3011 -3.4816
vt 0.4733 0.2706 -3.4816
vt 0.9677 0.3642 0.0000
vt 0.9677 0.4891 0.0000
vt 0.8045 0.4891 0.0000
vt 0.8045 0.3642 0.0000
vt 0.0794 0.4878 0.0000
vt 0.0611 0.4822 -2.1346
vt 0.0971 0.3627 0.0000
vt 0.1155 0.3683 0.0000
vt 0.1766 0.5060 0.0000
vt 0.1950 0.5115 -2.1342
vt 0.1589 0.6311 0.0000
vt 0.1406 0.6255 0.0000
vt 0.1941 0.6630 -3.4816
vt 0.1600 0.6400 -3.4816
vt 0.9677 0.3451 0.0000
vt 0.8045 0.3451 0.0000
vt 0.8045 0.5083 0.0000
vt 0.9677 0.5083 0.0000
vt 0.9056 0.6112 0.0000
vt 0.8938 0.6112 0.0000
vt 0.8938 0.5994 0.0000
vt 0.9056 0.5994 0.0000
vt 0.9823 0.5994 0.0000
vt 0.9940 0.5994 0.0000
vt 0.9940 0.6112 0.0000
vt 0.9823 0.6112 0.0000
vt 0.9823 0.5110 0.0000
vt 0.9940 0.5110 0.0000
vt 0.9940 0.5227 0.0000
vt 0.9823 0.5227 0.0000
vt 0.9056 0.5227 0.0000
vt 0.8938 0.5227 0.0000
vt 0.8938 0.5110 0.0000
vt 0.9056 0.5110 0.0000
vt 0.6954 0.5401 -3.4816
vt 0.6848 0.5466 -3.4816
vt 0.0122 0.7890 0.0000
vt 0.0005 0.7854 0.0000
vt 0.1913 0.7816 0.0000
vt 0.1948 0.7700 2.1341
vt 0.6756 0.5549 -3.4816
vt 0.6118 0.6102 -3.4816
vt 0.6025 0.6183 -3.4816
vt 0.9038 0.9839 0.0000
vt 0.9003 0.9955 0.0000
vt 0.0415 0.9172 0.0000
vt 0.0298 0.9137 2.1342
vt 0.5948 0.6278 -3.4816
vt 0.5413 0.6918 -3.4816
vt 0.5335 0.7012 -3.4816
vt 0.2436 0.2047 0.0000
vt 0.2553 0.2082 0.0000
vt 0.8343 0.9483 0.0000
vt 0.8307 0.9599 2.1342
vt 0.5275 0.7118 -3.4816
vt 0.4862 0.7827 -3.4816
vt 0.4800 0.7935 -3.4816
vt 0.1217 0.7459 0.0000
vt 0.1253 0.7343 0.0000
vt 0.2146 0.0765 0.0000
vt 0.2263 0.0800 2.1346
vt 0.7777 0.4881 -3.4816
vt 0.7669 0.4949 -3.4816
vt 0.7067 0.5554 -3.4816
vt 0.6961 0.5618 3.4816
vt 0.6869 0.5701 -3.4816
vt 0.6252 0.6235 -3.4816
vt 0.6159 0.6313 -3.4816
vt 0.6082 0.6408 -3.4816
vt 0.5566 0.7026 -3.4816
vt 0.5487 0.7118 -3.4816
vt 0.5427 0.7223 -3.4816
vt 0.5029 0.7908 -3.4816
vt 0.4968 0.8012 -3.4816
vt 0.7864 0.5051 -3.4816
vt 0.7759 0.5118 -3.4816
vt 0.1154 0.7587 0.0000
vt 0.1189 0.7470 0.0000
vt 0.2375 0.0005 0.0000
vt 0.2492 0.0040 0.0000
vt 0.9102 0.9712 0.0000
vt 0.9067 0.9828 0.0000
vt 0.0185 0.9932 0.0000
vt 0.0069 0.9897 0.0000
vt 0.2749 0.3351 0.0000
vt 0.2749 0.2557 0.0000
vt 0.3542 0.2557 0.0000
vt 0.3542 0.3351 0.0000
vt 0.2493 0.1764 4.8102
vt 0.5224 0.0005 -4.8102
vt 0.5860 0.1147 0.0000
vt 0.2924 0.2536 0.0000
vt 0.9443 0.0585 -0.0012
vt 0.9428 0.0622 -0.0012
vt 0.9391 0.0638 -0.0012
vt 0.9391 0.0585 -0.0012
vt 0.9348 0.0289 0.0081
vt 0.9356 0.0329 0.0081
vt 0.9234 0.0383 0.0081
vt 0.9218 0.0348 0.0081
vt 0.9142 0.0058 0.0081
vt 0.9182 0.0075 0.0081
vt 0.9093 0.0182 0.0215
vt 0.9066 0.0161 0.0081
vt 0.9220 0.0102 0.0081
vt 0.9119 0.0205 0.0081
vt 0.9253 0.0134 0.0081
vt 0.9143 0.0230 0.0081
vt 0.9284 0.0170 0.0081
vt 0.9165 0.0257 0.0081
vt 0.9310 0.0209 0.0081
vt 0.9185 0.0286 0.0081
vt 0.9332 0.0249 0.0081
vt 0.9203 0.0316 0.0081
vt 0.9370 0.0332 0.0081
vt 0.9363 0.0286 0.0081
vt 0.9395 0.0275 0.0081
vt 0.9406 0.0326 0.0081
vt 0.9347 0.0243 0.0081
vt 0.9378 0.0228 0.0081
vt 0.9325 0.0201 0.0081
vt 0.9354 0.0182 -0.0215
vt 0.9298 0.0161 0.0081
vt 0.9325 0.0139 0.0081
vt 0.9267 0.0123 0.0081
vt 0.9292 0.0098 0.0081
vt 0.9231 0.0089 0.0081
vt 0.9253 0.0061 0.0081
vt 0.9192 0.0060 0.0081
vt 0.9208 0.0030 0.0081
vt 0.9142 0.0038 0.0081
vt 0.9159 0.0005 0.0081
vt 0.9391 0.0533 -0.0012
vt 0.9353 0.0548 -0.0012
vt 0.9341 0.0536 -0.0012
vt 0.9391 0.0515 0.0012
vt 0.9338 0.0585 -0.0012
vt 0.9321 0.0585 -0.0012
vt 0.9353 0.0622 -0.0012
vt 0.9341 0.0635 -0.0012
vt 0.9391 0.0655 0.0012
vt 0.9440 0.0635 -0.0012
vt 0.9460 0.0585 -0.0012
vt 0.9428 0.0548 -0.0012
vt 0.9440 0.0536 -0.0012
vt 0.9038 0.8540 4.8102
vt 0.7279 0.5810 -4.8102
vt 0.8421 0.5173 0.0000
vt 0.9810 0.8110 0.0000
vt 0.9222 0.9263 0.0000
vt 0.9344 0.9327 0.0000
vt 0.9155 0.9684 0.0000
vt 0.9033 0.9620 0.0000
vt 0.9466 0.9392 0.0000
vt 0.9277 0.9749 0.0000
vt 0.8489 0.8874 0.0000
vt 0.8611 0.8939 0.0000
vt 0.8422 0.9296 0.0000
vt 0.8300 0.9231 0.0000
vt 0.8733 0.9004 0.0000
vt 0.8544 0.9361 0.0000
vt 0.8856 0.9068 0.0000
vt 0.8666 0.9425 0.0000
vt 0.8978 0.9133 0.0000
vt 0.8789 0.9490 0.0000
vt 0.9100 0.9198 0.0000
vt 0.8911 0.9555 0.0000
vt 0.7449 0.3312 0.0000
vt 0.7396 0.3440 0.0000
vt 0.7268 0.3493 0.0000
vt 0.7268 0.3312 0.0000
vt 0.7140 0.3440 0.0000
vt 0.7088 0.3312 0.0000
vt 0.7140 0.3184 0.0000
vt 0.7268 0.3132 0.0000
vt 0.7396 0.3184 0.0000
vt 0.7663 0.3810 0.2375
vt 0.7631 0.3809 0.2375
vt 0.7633 0.3610 0.2375
vt 0.7665 0.3610 0.2375
vt 0.7600 0.3810 0.2375
vt 0.7603 0.3610 0.2375
vt 0.7757 0.3810 0.2375
vt 0.7724 0.3810 0.2375
vt 0.7727 0.3611 0.2375
vt 0.7759 0.3611 0.2375
vt 0.7694 0.3810 0.2375
vt 0.7698 0.3611 0.2375
vt 0.7640 0.3416 0.2375
vt 0.7669 0.3416 0.2375
vt 0.7611 0.3416 0.2375
vt 0.7728 0.3416 0.2375
vt 0.7761 0.3416 0.2375
vt 0.7698 0.3416 0.2375
vt 0.7634 0.3205 0.2375
vt 0.7668 0.3195 -0.2375
vt 0.7603 0.3221 0.2375
vt 0.7738 0.3222 0.2375
vt 0.7769 0.3223 0.2375
vt 0.7706 0.3206 0.2375
vt 0.7668 0.4424 -0.2375
vt 0.7630 0.4415 0.2375
vt 0.7634 0.4204 0.2375
vt 0.7663 0.4204 0.2375
vt 0.7598 0.4400 0.2375
vt 0.7604 0.4205 0.2375
vt 0.7764 0.4397 0.2375
vt 0.7729 0.4399 0.2375
vt 0.7720 0.4203 0.2375
vt 0.7754 0.4202 0.2375
vt 0.7703 0.4413 0.2375
vt 0.7692 0.4204 0.2375
vt 0.7629 0.4009 0.2375
vt 0.7663 0.4009 0.2375
vt 0.7599 0.4011 0.2375
vt 0.7723 0.4009 0.2375
vt 0.7755 0.4008 0.2375
vt 0.7694 0.4010 0.2375
vt 0.9369 0.0777 4.8102
vt 0.6639 0.2536 -4.8102
vt 0.6003 0.1394 0.0000
vt 0.8939 0.0005 0.0000
vt 0.7222 0.5811 4.8102
vt 0.8981 0.8542 -4.8102
vt 0.7838 0.9178 0.0000
vt 0.6449 0.6242 0.0000
vt 0.8445 0.2547 -0.3277
vt 0.8681 0.2588 0.0077
vt 0.8555 0.3317 0.0077
vt 0.8319 0.3277 0.0077
vt 0.8918 0.2629 0.0077
vt 0.8785 0.3393 0.0077
vt 0.7028 0.2302 0.0077
vt 0.7264 0.2343 0.0077
vt 0.7135 0.3090 0.3277
vt 0.6896 0.3066 0.0077
vt 0.7501 0.2384 0.0077
vt 0.7373 0.3122 0.0077
vt 0.7737 0.2425 0.0077
vt 0.7619 0.3107 0.0077
vt 0.7973 0.2465 0.0077
vt 0.7845 0.3205 0.0077
vt 0.8209 0.2506 0.0077
vt 0.8094 0.3170 0.0077
vt 0.3380 0.3704 0.0607
vt 0.3288 0.3925 -0.0637
vt 0.3064 0.4016 -0.0637
vt 0.3064 0.3702 -0.0637
vt 0.2842 0.3925 -0.0637
vt 0.2749 0.3704 0.0637
vt 0.2832 0.3473 -0.0637
vt 0.3063 0.3387 -0.0637
vt 0.3300 0.3469 -0.0637
vt 0.8938 0.6130 -0.0015
vt 0.8963 0.6130 0.0015
vt 0.8963 0.6156 0.0015
vt 0.8938 0.6156 -0.0015
vt 0.9042 0.3010 -0.0961
vt 0.9044 0.3033 0.0000
vt 0.8943 0.3021 0.0000
vt 0.8953 0.2998 0.0000
vt 0.9041 0.3059 0.0000
vt 0.8939 0.3045 0.0000
vt 0.9055 0.2965 0.0000
vt 0.9046 0.2986 0.0000
vt 0.8956 0.2970 0.0000
vt 0.8953 0.2945 0.0000
vt 0.8878 0.3010 0.0961
vt 0.8883 0.2985 0.0000
vt 0.8874 0.3033 0.0000
vt 0.8887 0.2962 0.0000
vt 0.8889 0.2940 0.0000
# 316 texture coords

o Lantern
g Lantern
usemtl wire_115115115
s 2
f 1/1/1 2/2/1 3/3/1 4/4/1 
s 4
f 5/5/2 6/6/3 7/7/4 8/8/5 
s 8
f 9/9/6 10/10/6 11/11/7 12/12/8 
s 16
f 13/13/9 14/14/9 15/15/10 16/16/11 
s 32
f 17/17/12 18/18/12 19/19/13 20/20/14 
s 64
f 21/21/15 22/22/15 23/23/16 24/24/17 
s 2
f 18/25/12 17/26/12 2/2/1 1/1/1 
f 10/27/6 9/28/6 4/4/1 3/3/1 
s 4
f 20/29/14 19/30/13 6/31/3 5/32/2 
f 12/33/8 11/34/7 8/35/5 7/36/4 
s 16
f 14/14/9 25/37/18 26/38/19 15/15/10 
f 16/16/11 27/39/20 28/40/21 13/13/9 
s 64
f 22/22/15 29/41/22 30/42/23 23/23/16 
f 24/24/17 31/43/24 32/44/25 21/21/15 
s 2
f 2/2/1 14/45/9 13/46/9 3/3/1 
f 4/4/1 22/47/15 21/48/15 1/1/1 
s 4
f 6/49/3 24/50/17 23/51/16 7/52/4 
f 8/53/5 16/54/11 15/55/10 5/56/2 
s 8
f 10/10/6 28/40/21 27/39/20 11/11/7 
f 12/12/8 30/57/23 29/58/22 9/9/6 
s 32
f 18/18/12 32/44/25 31/43/24 19/19/13 
f 20/20/14 26/38/19 25/37/18 17/17/12 
s 2
f 17/26/12 25/59/18 14/45/9 2/2/1 
f 1/1/1 21/48/15 32/60/25 18/25/12 
f 9/28/6 29/61/22 22/47/15 4/4/1 
f 3/3/1 13/46/9 28/62/21 10/27/6 
s 4
f 33/63/26 34/64/27 35/65/28 36/66/29 
f 37/67/29 38/68/30 39/69/31 40/70/26 
f 41/71/32 42/72/33 43/73/30 44/74/29 
f 45/75/29 46/76/28 47/77/34 48/78/32 
s off
f 31/43/24 24/24/17 49/79/35 50/80/36 
f 24/50/17 6/49/3 51/81/37 49/82/35 
f 6/31/3 19/30/13 52/83/38 51/84/37 
f 19/19/13 31/43/24 50/80/36 52/85/38 
f 26/38/19 20/20/14 53/86/39 54/87/40 
f 20/29/14 5/32/2 55/88/41 53/89/39 
f 5/56/2 15/55/10 56/90/42 55/91/41 
f 15/15/10 26/38/19 54/87/40 56/92/42 
f 27/39/20 16/16/11 57/93/43 58/94/44 
f 16/54/11 8/53/5 59/95/45 57/96/43 
f 8/35/5 11/34/7 60/97/46 59/98/45 
f 11/11/7 27/39/20 58/94/44 60/99/46 
f 30/57/23 12/12/8 61/100/47 62/101/48 
f 12/33/8 7/36/4 63/102/49 61/103/47 
f 7/52/4 23/51/16 64/104/50 63/105/49 
f 23/23/16 30/42/23 62/106/48 64/107/50 
f 49/79/35 35/108/28 34/109/27 50/80/36 
f 50/80/36 34/109/27 33/110/26 52/85/38 
f 53/86/39 40/111/26 39/112/31 54/87/40 
f 54/87/40 39/112/31 38/113/30 56/92/42 
f 57/93/43 43/114/30 42/115/33 58/94/44 
f 58/94/44 42/115/33 41/116/32 60/99/46 
f 61/100/47 48/117/32 47/118/34 62/101/48 
f 62/106/48 47/119/34 46/120/28 64/107/50 
s 1
f 33/63/26 36/66/29 37/67/29 40/70/26 
f 51/84/37 52/83/38 53/121/39 55/122/41 
s 2
f 52/85/38 33/110/26 40/111/26 53/86/39 
s 8
f 49/123/35 51/124/37 63/105/49 64/104/50 
f 36/66/29 35/65/28 46/76/28 45/75/29 
s 16
f 35/108/28 49/79/35 64/107/50 46/120/28 
s 1
f 41/71/32 44/74/29 45/75/29 48/78/32 
f 59/98/45 60/97/46 61/125/47 63/126/49 
s 2
f 60/99/46 41/116/32 48/117/32 61/100/47 
s 8
f 38/68/30 37/67/29 44/74/29 43/73/30 
f 55/91/41 56/90/42 57/127/43 59/128/45 
s 16
f 56/92/42 38/113/30 43/114/30 57/93/43 
s off
f 45/75/29 44/74/29 37/67/29 36/66/29 
f 51/129/37 55/130/41 59/131/45 63/132/49 
s 1
f 65/133/51 66/134/51 67/135/51 68/136/51 
f 69/137/52 70/138/52 71/139/53 72/140/52 
s 8
f 73/141/54 74/142/55 75/143/56 76/144/57 
f 74/145/55 77/146/58 78/147/59 75/148/56 
f 77/146/58 79/149/60 80/150/61 78/147/59 
f 79/149/60 81/151/62 82/152/63 80/150/61 
f 81/151/62 83/153/64 84/154/65 82/152/63 
f 83/153/64 85/155/66 86/156/67 84/154/65 
f 85/155/66 87/157/68 88/158/69 86/156/67 
f 87/157/68 73/141/54 76/144/57 88/158/69 
s off
f 89/159/70 90/160/71 91/161/72 92/162/73 
f 90/160/71 93/163/74 94/164/75 91/161/72 
f 93/163/74 95/165/76 96/166/77 94/164/75 
f 95/165/76 97/167/78 98/168/79 96/166/77 
f 97/167/78 99/169/80 100/170/81 98/168/79 
f 99/169/80 101/171/82 102/172/83 100/170/81 
f 101/171/82 103/173/84 104/174/85 102/172/83 
f 103/173/84 89/175/70 92/176/73 104/174/85 
f 74/142/55 73/141/54 90/160/71 89/159/70 
f 73/141/54 87/157/68 93/163/74 90/160/71 
f 87/157/68 85/155/66 95/165/76 93/163/74 
f 85/155/66 83/153/64 97/167/78 95/165/76 
f 83/153/64 81/151/62 99/169/80 97/167/78 
f 81/151/62 79/149/60 101/171/82 99/169/80 
f 79/149/60 77/146/58 103/173/84 101/171/82 
f 77/146/58 74/145/55 89/175/70 103/173/84 
f 105/177/52 106/178/52 92/179/73 91/180/72 
f 106/178/52 107/181/52 104/182/85 92/179/73 
f 107/181/52 108/183/52 102/184/83 104/182/85 
f 108/183/52 71/139/53 100/185/81 102/184/83 
f 71/139/53 70/138/52 98/186/79 100/185/81 
f 70/138/52 69/137/52 96/187/77 98/186/79 
f 69/137/52 109/188/53 94/189/75 96/187/77 
f 109/188/53 105/177/52 91/180/72 94/189/75 
s 1
f 71/139/53 108/183/52 107/181/52 72/140/52 
f 107/181/52 106/178/52 105/177/52 72/140/52 
f 72/140/52 105/177/52 109/188/53 69/137/52 
f 110/190/86 111/191/86 112/192/86 113/193/86 
s 8
f 114/194/87 115/195/88 116/196/89 117/197/90 
f 115/195/88 118/198/91 119/199/92 116/196/89 
f 118/200/91 120/201/93 121/202/94 119/203/92 
f 120/201/93 122/204/95 123/205/96 121/202/94 
f 122/204/95 124/206/97 125/207/98 123/205/96 
f 124/206/97 126/208/99 127/209/100 125/207/98 
f 126/208/99 128/210/101 129/211/102 127/209/100 
f 128/210/101 114/194/87 117/197/90 129/211/102 
s 1
f 117/212/90 116/213/89 119/214/92 130/215/29 
f 119/214/92 121/216/94 123/217/96 130/215/29 
f 123/217/96 125/218/98 127/219/100 130/215/29 
f 130/215/29 127/219/100 129/220/102 117/212/90 
f 131/221/29 132/222/103 133/223/104 134/224/105 
f 132/222/103 135/225/106 136/226/107 133/223/104 
f 135/227/106 137/228/108 138/229/109 136/230/107 
f 137/228/108 139/231/110 140/232/111 138/229/109 
f 139/231/110 131/221/29 134/224/105 140/232/111 
f 134/224/105 133/223/104 141/233/112 142/234/113 
f 133/223/104 136/226/107 143/235/114 141/233/112 
f 136/230/107 138/229/109 144/236/115 143/237/114 
f 138/229/109 140/232/111 145/238/116 144/236/115 
f 140/232/111 134/224/105 142/234/113 145/238/116 
f 142/234/113 141/233/112 146/239/117 147/240/118 
f 141/233/112 143/235/114 148/241/119 146/239/117 
f 143/237/114 144/236/115 149/242/120 148/243/119 
f 144/236/115 145/238/116 150/244/121 149/242/120 
f 145/238/116 142/234/113 147/240/118 150/244/121 
f 151/245/122 152/246/123 153/247/124 154/248/125 
f 152/246/123 155/249/126 156/250/127 153/247/124 
f 155/251/126 157/252/128 158/253/129 156/254/127 
f 157/252/128 159/255/130 160/256/131 158/253/129 
f 159/255/130 151/245/122 154/248/125 160/256/131 
f 154/248/125 153/247/124 161/257/132 162/258/133 
f 153/247/124 156/250/127 163/259/134 161/257/132 
f 156/254/127 158/253/129 164/260/135 163/261/134 
f 158/253/129 160/256/131 165/262/136 164/260/135 
f 160/256/131 154/248/125 162/258/133 165/262/136 
f 162/258/133 161/257/132 132/222/103 131/221/29 
f 161/257/132 163/259/134 135/225/106 132/222/103 
f 163/261/134 164/260/135 137/228/108 135/227/106 
f 164/260/135 165/262/136 139/231/110 137/228/108 
f 165/262/136 162/258/133 131/221/29 139/231/110 
f 166/263/137 167/264/137 168/265/137 169/266/137 
f 170/267/138 171/268/138 172/269/138 173/270/138 
s 8
f 174/271/139 175/272/88 176/273/140 177/274/141 
f 175/272/88 178/275/91 179/276/142 176/273/140 
f 178/277/91 180/278/93 181/279/143 179/280/142 
f 180/278/93 182/281/144 183/282/145 181/279/143 
f 182/281/144 184/283/146 185/284/147 183/282/145 
f 184/283/146 186/285/148 187/286/149 185/284/147 
f 186/285/148 188/287/150 189/288/151 187/286/149 
f 188/287/150 174/271/139 177/274/141 189/288/151 
s 1
f 177/289/141 176/290/140 179/291/142 190/292/152 
f 179/291/142 181/293/143 183/294/145 190/292/152 
f 183/294/145 185/295/147 187/296/149 190/292/152 
f 190/292/152 187/296/149 189/297/151 177/289/141 
s 4
f 191/298/153 192/299/154 193/300/155 194/301/156 
s 8
f 195/302/157 196/303/158 197/304/159 198/305/160 
s 16
f 196/303/158 199/306/161 200/307/162 197/304/159 
s 32
f 199/308/161 201/309/163 202/310/164 200/311/162 
s 64
f 201/309/163 195/302/157 198/305/160 202/310/164 
s off
f 198/305/160 197/304/159 192/312/154 191/313/153 
f 197/304/159 200/307/162 193/314/155 192/312/154 
f 200/311/162 202/310/164 194/315/156 193/316/155 
f 202/310/164 198/305/160 191/313/153 194/315/156 
# 171 polygons

