# 3ds Max Wavefront OBJ Exporter v0.97b - (c)2007 guruware
# File Created: 09.02.2018 21:37:40

mtllib fan blades.mtl

#
# object Fan_blade003
#

v  0.2875 17.8324 13.3712
v  0.7612 23.5202 15.3698
v  -0.2189 23.5966 15.4486
v  -0.6823 17.9572 13.4998
v  0.2160 25.0480 13.0378
v  -0.7694 25.0751 13.0657
v  -0.1919 25.1292 6.0637
v  -1.1741 25.0670 5.9996
v  0.3528 22.7679 1.7220
v  -0.6257 22.6816 1.6331
v  0.5927 21.9703 0.3676
v  -0.3844 21.8773 0.2718
v  0.3213 18.8942 1.3262
v  -0.6632 18.8533 1.2841
v  0.1130 19.6461 3.2995
v  -0.8725 19.6204 3.2729
v  -0.0613 19.8962 8.3955
v  -1.0462 19.9317 8.4321
v  0.1090 18.6450 11.6453
v  -0.8732 18.7634 11.6827
v  0.2875 6.7705 1.9558
v  0.7612 6.6217 7.9827
v  -0.2189 6.5704 8.0797
v  -0.6823 6.6866 2.1141
v  0.2160 9.3111 8.7175
v  -0.7694 9.2929 8.7519
v  -0.1919 15.9709 6.6459
v  -1.1741 16.0127 6.5669
v  0.3528 19.3737 3.0617
v  -0.6257 19.4317 2.9522
v  0.5927 20.4165 1.8855
v  -0.3844 20.4790 1.7675
v  0.3213 18.5566 -0.7456
v  -0.6632 18.5841 -0.7975
v  0.1130 16.9111 0.5778
v  -0.8725 16.9284 0.5451
v  -0.0613 12.1401 2.3859
v  -1.0462 12.1162 2.4310
v  0.1090 8.6628 2.1971
v  -0.8732 8.6637 2.3212
v  0.2875 14.2169 -12.0829
v  0.7612 8.4381 -10.3649
v  -0.2189 8.3300 -10.3838
v  -0.6823 14.0403 -12.1138
v  0.2160 8.5688 -7.5800
v  -0.7694 8.5305 -7.5867
v  -0.1919 12.5942 -1.8843
v  -1.1741 12.6822 -1.8689
v  0.3528 17.0534 0.2466
v  -0.6257 17.1755 0.2680
v  0.5927 18.4940 0.8757
v  -0.3844 18.6255 0.8987
v  0.3213 20.4228 -1.7052
v  -0.6632 20.4807 -1.6951
v  0.1130 18.6563 -2.8622
v  -0.8725 18.6927 -2.8558
v  -0.0613 15.4644 -6.8425
v  -1.0462 15.4142 -6.8513
v  0.1090 14.5712 -10.2084
v  -0.8732 14.4534 -10.1693
v  0.2875 29.8927 -9.3057
v  0.7612 26.4885 -14.2814
v  -0.2189 26.4735 -14.3901
v  -0.6823 29.8681 -9.4832
v  0.2160 23.8773 -13.3047
v  -0.7694 23.8720 -13.3432
v  -0.1919 19.6868 -7.7293
v  -1.1741 19.6991 -7.6408
v  0.3528 19.0228 -2.8319
v  -0.6257 19.0398 -2.7092
v  0.5927 18.8648 -1.2680
v  -0.3844 18.8831 -1.1357
v  0.3213 21.9122 -0.2215
v  -0.6632 21.9203 -0.1633
v  0.1130 22.4730 -2.2574
v  -0.8725 22.4781 -2.2207
v  -0.0613 25.2855 -6.5143
v  -1.0462 25.2785 -6.5648
v  0.1090 28.2166 -8.3947
v  -0.8732 28.1432 -8.4948
v  0.2875 32.1109 6.3462
v  0.7612 35.7573 1.5452
v  -0.2189 35.8557 1.4966
v  -0.6823 32.2716 6.2668
v  0.2160 34.0061 -0.6241
v  -0.7694 34.0409 -0.6413
v  -0.1919 27.3928 -2.8399
v  -1.1741 27.3127 -2.8003
v  0.3528 22.5363 -1.9236
v  -0.6257 22.4252 -1.8687
v  0.5927 21.0025 -1.5797
v  -0.3844 20.8828 -1.5206
v  0.3213 20.9717 1.6422
v  -0.6632 20.9190 1.6682
v  0.1130 23.0805 1.5315
v  -0.8725 23.0473 1.5479
v  -0.0613 28.0076 2.8561
v  -1.0462 28.0534 2.8335
v  0.1090 30.7173 5.0435
v  -0.8732 30.7892 4.9423
# 100 vertices

vn 0.5459 -0.8019 0.2428
vn 0.7134 0.2341 0.6605
vn -0.4493 0.3004 0.8413
vn -0.5843 -0.7022 0.4068
vn 0.6506 0.7436 0.1542
vn -0.6423 0.7159 0.2739
vn 0.6050 0.7791 -0.1645
vn -0.6988 0.6851 -0.2055
vn 0.7071 0.6556 -0.2649
vn -0.6873 0.5822 -0.4344
vn 0.6857 0.3101 -0.6585
vn -0.4779 0.2598 -0.8391
vn 0.5977 -0.7360 -0.3179
vn -0.5495 -0.7416 -0.3849
vn 0.7219 -0.6667 0.1856
vn -0.7627 -0.6402 0.0915
vn 0.7377 -0.6637 -0.1237
vn -0.7726 -0.6309 -0.0719
vn 0.6503 -0.6775 -0.3436
vn -0.7691 -0.6127 -0.1819
vn 0.5459 -0.4781 -0.6881
vn 0.7134 -0.5562 0.4262
vn -0.4493 -0.7078 0.5451
vn -0.5843 -0.6034 -0.5427
vn 0.6506 0.0825 0.7549
vn -0.6423 -0.0400 0.7654
vn 0.6050 0.3966 0.6905
vn -0.6988 0.4067 0.5885
vn 0.7071 0.4540 0.5421
vn -0.6872 0.5927 0.4200
vn 0.6857 0.7220 0.0921
vn -0.4779 0.8784 -0.0115
vn 0.5977 0.0757 -0.7981
vn -0.5495 0.1377 -0.8241
vn 0.7219 -0.3820 -0.5770
vn -0.7627 -0.2843 -0.5808
vn 0.7377 -0.0868 -0.6695
vn -0.7726 -0.1260 -0.6223
vn 0.6503 0.1181 -0.7504
vn -0.7691 -0.0157 -0.6390
vn 0.5459 0.5070 -0.6671
vn 0.7134 -0.5771 -0.3976
vn -0.4493 -0.7369 -0.5051
vn -0.5843 0.3300 -0.7414
vn 0.6506 -0.6926 0.3113
vn -0.6423 -0.7404 0.1981
vn 0.6050 -0.5344 0.5902
vn -0.6988 -0.4343 0.5684
vn 0.7071 -0.3756 0.5992
vn -0.6873 -0.2166 0.6934
vn 0.6857 0.1352 0.7152
vn -0.4779 0.2819 0.8320
vn 0.5977 0.7825 -0.1743
vn -0.5495 0.8263 -0.1233
vn 0.7219 0.4310 -0.5414
vn -0.7627 0.4648 -0.4497
vn 0.7377 0.6101 -0.2891
vn -0.7726 0.5531 -0.3118
vn 0.6503 0.7503 -0.1192
vn -0.7691 0.6029 -0.2121
vn 0.5459 0.7902 0.2785
vn 0.7134 0.2019 -0.6710
vn -0.4493 0.2554 -0.8561
vn -0.5843 0.8068 0.0873
vn 0.6506 -0.5084 -0.5641
vn -0.6423 -0.4152 -0.6443
vn 0.6050 -0.7255 -0.3282
vn -0.6988 -0.6740 -0.2395
vn 0.7071 -0.6853 -0.1742
vn -0.6872 -0.7264 0.0059
vn 0.6857 -0.6395 0.3476
vn -0.4779 -0.7058 0.5230
vn 0.5977 0.4054 0.6917
vn -0.5495 0.3703 0.7490
vn 0.7219 0.6473 0.2447
vn -0.7627 0.5703 0.3049
vn 0.7377 0.4620 0.4923
vn -0.7726 0.4661 0.4311
vn 0.6503 0.3431 0.6778
vn -0.7691 0.3864 0.5091
vn 0.5459 -0.0148 0.8377
vn 0.7134 0.7005 -0.0203
vn -0.4493 0.8929 -0.0280
vn -0.5843 0.1719 0.7931
vn 0.6506 0.3747 -0.6605
vn -0.6423 0.4802 -0.5974
vn 0.6050 0.0823 -0.7920
vn -0.6988 0.0144 -0.7151
vn 0.7071 -0.0511 -0.7053
vn -0.6872 -0.2350 -0.6874
vn 0.6857 -0.5317 -0.4971
vn -0.4779 -0.7191 -0.5046
vn 0.5977 -0.5283 0.6031
vn -0.5495 -0.5937 0.5878
vn 0.7219 -0.0278 0.6914
vn -0.7627 -0.1092 0.6374
vn 0.7377 -0.3213 0.5938
vn -0.7726 -0.2619 0.5784
vn 0.6503 -0.5348 0.5395
vn -0.7691 -0.3610 0.5274
# 100 vertex normals

vt 0.3048 0.3017 -0.0033
vt 0.4042 0.2336 -0.0033
vt 0.4157 0.2496 -0.0434
vt 0.3172 0.3170 -0.0033
vt 0.4551 0.2088 -0.0033
vt 0.4668 0.2245 -0.0033
vt 0.5693 0.1291 -0.0033
vt 0.5825 0.1437 -0.0033
vt 0.6415 0.0612 -0.0033
vt 0.6551 0.0753 -0.0033
vt 0.6637 0.0385 -0.0033
vt 0.6774 0.0526 0.0434
vt 0.7157 0.0005 -0.0033
vt 0.7290 0.0150 -0.0033
vt 0.0975 0.4436 -0.0033
vt 0.1346 0.4233 -0.0033
vt 0.1452 0.4399 -0.0033
vt 0.1077 0.4604 -0.0033
vt 0.2210 0.3694 -0.0033
vt 0.2326 0.3852 -0.0033
vt 0.2759 0.3267 -0.0033
vt 0.2871 0.3430 -0.0033
vt 0.2069 0.5618 0.0337
vt 0.1946 0.6155 -0.2341
vt 0.3039 0.6686 -0.0014
vt 0.3176 0.6334 0.0863
vt 0.3281 0.4515 -0.0164
vt 0.2883 0.4680 0.0865
vt 0.2689 0.4020 -0.0348
vt 0.3001 0.3947 -0.1533
vt 0.2089 0.5345 0.1718
vt 0.1718 0.4283 0.2346
vt 0.1781 0.5958 0.0868
vt 0.0689 0.5254 0.0358
vt 0.1630 0.6323 -0.0070
vt 0.0551 0.5791 -0.2346
vt 0.3472 0.5709 0.1699
vt 0.4248 0.5044 0.0843
vt 0.4037 0.4384 -0.0335
vt 0.3072 0.4647 0.2341
vt 0.4641 0.4879 -0.0180
vt 0.4346 0.4311 -0.1513
vt 0.9045 0.4899 -0.0474
vt 0.8680 0.3751 -0.0474
vt 0.8866 0.3687 -0.0407
vt 0.9226 0.4823 -0.0474
vt 0.8588 0.3192 -0.0474
vt 0.8773 0.3125 -0.0474
vt 0.8154 0.1867 -0.0474
vt 0.8332 0.1783 -0.0474
vt 0.7711 0.0978 -0.0474
vt 0.7886 0.0888 -0.0474
vt 0.7558 0.0700 -0.0474
vt 0.7732 0.0608 0.0474
vt 0.7343 0.0091 -0.0474
vt 0.7521 0.0005 -0.0474
vt 0.9805 0.7287 -0.0474
vt 0.9718 0.6874 -0.0474
vt 0.9907 0.6821 -0.0474
vt 0.9995 0.7238 -0.0474
vt 0.9450 0.5894 -0.0474
vt 0.9635 0.5829 -0.0474
vt 0.9201 0.5247 -0.0474
vt 0.9389 0.5186 -0.0474
vt 0.8647 0.8553 0.0336
vt 0.9132 0.8832 -0.2334
vt 0.9985 0.7984 -0.0014
vt 0.9684 0.7750 0.0860
vt 0.7140 0.0854 -0.0163
vt 0.7178 0.1272 0.0862
vt 0.6477 0.1249 -0.0347
vt 0.6501 0.0938 -0.1529
vt 0.7582 0.2211 0.1713
vt 0.6434 0.2228 0.2339
vt 0.8084 0.2684 0.0866
vt 0.7063 0.3477 0.0357
vt 0.8392 0.2935 -0.0070
vt 0.7543 0.3770 -0.2339
vt 0.9167 0.7285 0.1694
vt 0.8758 0.6362 0.0840
vt 0.8051 0.6355 -0.0334
vt 0.8010 0.7328 0.2334
vt 0.8718 0.5948 -0.0180
vt 0.8075 0.6046 -0.1509
vt 0.3181 0.9088 -0.1383
vt 0.4368 0.9298 -0.1383
vt 0.4338 0.9492 -0.1307
vt 0.3163 0.9283 -0.1383
vt 0.4906 0.9476 -0.1383
vt 0.4879 0.9671 -0.1383
vt 0.6280 0.9707 -0.1383
vt 0.6272 0.9904 -0.1383
vt 0.7273 0.9728 -0.1383
vt 0.7271 0.9925 -0.1383
vt 0.7590 0.9722 -0.1383
vt 0.7590 0.9919 -0.1383
vt 0.0104 0.8435 -0.1383
vt 0.0711 0.8651 -0.1383
vt 0.0666 0.8842 0.1383
vt 0.0066 0.8627 -0.1383
vt 0.1117 0.8766 -0.1383
vt 0.1076 0.8958 -0.1383
vt 0.2110 0.8984 -0.1383
vt 0.2082 0.9179 -0.1383
vt 0.2800 0.9064 -0.1383
vt 0.2766 0.9259 -0.1383
vt 0.5670 0.8643 0.0337
vt 0.6094 0.8278 -0.2343
vt 0.5528 0.7222 -0.0014
vt 0.5205 0.7430 0.0864
vt 0.0302 0.7076 -0.0164
vt 0.0724 0.7169 0.0865
vt 0.0484 0.7815 -0.0348
vt 0.0187 0.7696 -0.1534
vt 0.1768 0.7084 0.1719
vt 0.1429 0.8158 0.2347
vt 0.2387 0.6764 0.0869
vt 0.2848 0.7959 0.0358
vt 0.2728 0.6555 -0.0070
vt 0.3283 0.7603 -0.2347
vt 0.4589 0.7766 0.1700
vt 0.3558 0.7862 0.0844
vt 0.3332 0.8517 -0.0335
vt 0.4273 0.8856 0.2343
vt 0.3141 0.7770 -0.0180
vt 0.3037 0.8399 -0.1515
vt 0.1702 0.2454 -0.0474
vt 0.1311 0.3594 -0.0474
vt 0.1124 0.3534 -0.0407
vt 0.1511 0.2406 -0.0474
vt 0.1051 0.4097 -0.0474
vt 0.0863 0.4041 -0.0474
vt 0.0609 0.5418 -0.0474
vt 0.0416 0.5379 -0.0474
vt 0.0433 0.6394 -0.0474
vt 0.0239 0.6362 -0.0474
vt 0.0390 0.6709 -0.0474
vt 0.0195 0.6678 0.0474
vt 0.0198 0.7325 -0.0474
vt 0.0005 0.7287 -0.0474
vt 0.2513 0.0079 -0.0474
vt 0.2337 0.0463 -0.0474
vt 0.2154 0.0393 -0.0474
vt 0.2331 0.0005 -0.0474
vt 0.1969 0.1411 -0.0474
vt 0.1781 0.1354 -0.0474
vt 0.1784 0.2081 -0.0474
vt 0.1597 0.2018 -0.0474
vt 0.6418 0.2388 0.0336
vt 0.6192 0.1885 -0.2335
vt 0.4990 0.2087 -0.0014
vt 0.5094 0.2449 0.0861
vt 0.7040 0.6241 -0.0163
vt 0.7260 0.5880 0.0863
vt 0.7815 0.6299 -0.0347
vt 0.7609 0.6537 -0.1530
vt 0.7496 0.4887 0.1714
vt 0.8438 0.5529 0.2341
vt 0.7373 0.4217 0.0866
vt 0.8678 0.4156 0.0357
vt 0.7273 0.3837 -0.0070
vt 0.8464 0.3644 -0.2341
vt 0.5234 0.3121 0.1695
vt 0.5012 0.4103 0.0841
vt 0.5582 0.4512 -0.0334
vt 0.6199 0.3746 0.2335
vt 0.4796 0.4462 -0.0180
vt 0.5377 0.4749 -0.1510
vt 0.2627 0.8517 -0.1869
vt 0.3802 0.8790 -0.1869
vt 0.3761 0.8982 -0.1869
vt 0.2600 0.8712 0.1869
vt 0.4329 0.8997 -0.1869
vt 0.4292 0.9190 -0.1869
vt 0.5688 0.9300 -0.1869
vt 0.5669 0.9496 -0.1869
vt 0.6676 0.9373 -0.1869
vt 0.6664 0.9570 -0.1869
vt 0.6993 0.9384 -0.1869
vt 0.6983 0.9580 -0.0471
vt 0.7625 0.9510 -0.1869
vt 0.7609 0.9706 -0.1869
vt 0.0181 0.7950 -0.1869
vt 0.0582 0.8086 -0.1869
vt 0.0531 0.8276 -0.1869
vt 0.0126 0.8138 -0.1869
vt 0.1563 0.8357 -0.1869
vt 0.1524 0.8550 -0.1869
vt 0.2248 0.8473 -0.1869
vt 0.2204 0.8666 -0.1869
vt 0.6754 0.7768 0.0337
vt 0.6192 0.7818 -0.2338
vt 0.6009 0.8994 -0.0014
vt 0.6395 0.9012 0.0862
vt 0.7586 0.8019 -0.3899
vt 0.7305 0.7697 -0.3899
vt 0.7881 0.7311 -0.3899
vt 0.8050 0.7582 0.2453
vt 0.6422 0.7164 -0.3899
vt 0.7327 0.6482 -0.3899
vt 0.5739 0.7070 -0.3899
vt 0.6077 0.5827 -0.3899
vt 0.5342 0.7045 0.3899
vt 0.5508 0.5864 -0.3899
vt 0.7095 0.9095 0.1697
vt 0.7982 0.9611 0.0842
vt 0.8561 0.9213 -0.0334
vt 0.8009 0.8400 0.2338
vt 0.8263 0.9925 -0.0180
vt 0.8727 0.9478 -0.1512
# 210 texture coords

o Fan_blade003
g Fan_blade003
usemtl wire_115115115
s 7
f 1/1/1 2/2/2 3/3/3 4/4/4 
s 4
f 2/2/2 5/5/5 6/6/6 3/3/3 
s 6
f 5/5/5 7/7/7 8/8/8 6/6/6 
f 7/7/7 9/9/9 10/10/10 8/8/8 
s 2
f 9/9/9 11/11/11 12/12/12 10/10/10 
s 6
f 11/11/11 13/13/13 14/14/14 12/12/12 
s 2
f 13/15/13 15/16/15 16/17/16 14/18/14 
s 6
f 15/16/15 17/19/17 18/20/18 16/17/16 
f 17/19/17 19/21/19 20/22/20 18/20/18 
s 2
f 19/21/19 1/1/1 4/4/4 20/22/20 
s 16
f 5/23/5 2/24/2 1/25/1 19/26/19 
f 14/27/14 16/28/16 10/29/10 12/30/12 
f 16/28/16 18/31/18 8/32/8 10/29/10 
f 18/31/18 20/33/20 6/34/6 8/32/8 
f 20/33/20 4/35/4 3/36/3 6/34/6 
f 17/37/17 15/38/15 9/39/9 7/40/7 
f 15/38/15 13/41/13 11/42/11 9/39/9 
f 19/26/19 17/37/17 7/40/7 5/23/5 
s 7
f 21/43/21 22/44/22 23/45/23 24/46/24 
s 4
f 22/44/22 25/47/25 26/48/26 23/45/23 
s 6
f 25/47/25 27/49/27 28/50/28 26/48/26 
f 27/49/27 29/51/29 30/52/30 28/50/28 
s 2
f 29/51/29 31/53/31 32/54/32 30/52/30 
s 6
f 31/53/31 33/55/33 34/56/34 32/54/32 
s 2
f 33/57/33 35/58/35 36/59/36 34/60/34 
s 6
f 35/58/35 37/61/37 38/62/38 36/59/36 
f 37/61/37 39/63/39 40/64/40 38/62/38 
s 2
f 39/63/39 21/43/21 24/46/24 40/64/40 
s 16
f 25/65/25 22/66/22 21/67/21 39/68/39 
f 34/69/34 36/70/36 30/71/30 32/72/32 
f 36/70/36 38/73/38 28/74/28 30/71/30 
f 38/73/38 40/75/40 26/76/26 28/74/28 
f 40/75/40 24/77/24 23/78/23 26/76/26 
f 37/79/37 35/80/35 29/81/29 27/82/27 
f 35/80/35 33/83/33 31/84/31 29/81/29 
f 39/68/39 37/79/37 27/82/27 25/65/25 
s 7
f 41/85/41 42/86/42 43/87/43 44/88/44 
s 4
f 42/86/42 45/89/45 46/90/46 43/87/43 
s 6
f 45/89/45 47/91/47 48/92/48 46/90/46 
f 47/91/47 49/93/49 50/94/50 48/92/48 
s 2
f 49/93/49 51/95/51 52/96/52 50/94/50 
s 6
f 51/97/51 53/98/53 54/99/54 52/100/52 
s 2
f 53/98/53 55/101/55 56/102/56 54/99/54 
s 6
f 55/101/55 57/103/57 58/104/58 56/102/56 
f 57/103/57 59/105/59 60/106/60 58/104/58 
s 2
f 59/105/59 41/85/41 44/88/44 60/106/60 
s 16
f 45/107/45 42/108/42 41/109/41 59/110/59 
f 54/111/54 56/112/56 50/113/50 52/114/52 
f 56/112/56 58/115/58 48/116/48 50/113/50 
f 58/115/58 60/117/60 46/118/46 48/116/48 
f 60/117/60 44/119/44 43/120/43 46/118/46 
f 57/121/57 55/122/55 49/123/49 47/124/47 
f 55/122/55 53/125/53 51/126/51 49/123/49 
f 59/110/59 57/121/57 47/124/47 45/107/45 
s 7
f 61/127/61 62/128/62 63/129/63 64/130/64 
s 4
f 62/128/62 65/131/65 66/132/66 63/129/63 
s 6
f 65/131/65 67/133/67 68/134/68 66/132/66 
f 67/133/67 69/135/69 70/136/70 68/134/68 
s 2
f 69/135/69 71/137/71 72/138/72 70/136/70 
s 6
f 71/137/71 73/139/73 74/140/74 72/138/72 
s 2
f 73/141/73 75/142/75 76/143/76 74/144/74 
s 6
f 75/142/75 77/145/77 78/146/78 76/143/76 
f 77/145/77 79/147/79 80/148/80 78/146/78 
s 2
f 79/147/79 61/127/61 64/130/64 80/148/80 
s 16
f 65/149/65 62/150/62 61/151/61 79/152/79 
f 74/153/74 76/154/76 70/155/70 72/156/72 
f 76/154/76 78/157/78 68/158/68 70/155/70 
f 78/157/78 80/159/80 66/160/66 68/158/68 
f 80/159/80 64/161/64 63/162/63 66/160/66 
f 77/163/77 75/164/75 69/165/69 67/166/67 
f 75/164/75 73/167/73 71/168/71 69/165/69 
f 79/152/79 77/163/77 67/166/67 65/149/65 
s 7
f 81/169/81 82/170/82 83/171/83 84/172/84 
s 4
f 82/170/82 85/173/85 86/174/86 83/171/83 
s 6
f 85/173/85 87/175/87 88/176/88 86/174/86 
f 87/175/87 89/177/89 90/178/90 88/176/88 
s 2
f 89/177/89 91/179/91 92/180/92 90/178/90 
s 6
f 91/179/91 93/181/93 94/182/94 92/180/92 
s 2
f 93/183/93 95/184/95 96/185/96 94/186/94 
s 6
f 95/184/95 97/187/97 98/188/98 96/185/96 
f 97/187/97 99/189/99 100/190/100 98/188/98 
s 2
f 99/189/99 81/169/81 84/172/84 100/190/100 
s 16
f 85/191/85 82/192/82 81/193/81 99/194/99 
f 94/195/94 96/196/96 90/197/90 92/198/92 
f 96/196/96 98/199/98 88/200/88 90/197/90 
f 98/199/98 100/201/100 86/202/86 88/200/88 
f 100/201/100 84/203/84 83/204/83 86/202/86 
f 97/205/97 95/206/95 89/207/89 87/208/87 
f 95/206/95 93/209/93 91/210/91 89/207/89 
f 99/194/99 97/205/97 87/208/87 85/191/85 
# 90 polygons

