# 3ds Max Wavefront OBJ Exporter v0.97b - (c)2007 guruware
# File Created: 23.03.2018 16:39:24

mtllib Boiling flask.mtl

#
# object Boiling_Flask
#

v  -1.4416 0.5236 -2.4969
v  -0.6981 1.5719 -1.2092
v  -0.0000 1.5719 -1.3962
v  -0.0000 0.5236 -2.8831
v  -2.4969 0.5236 -1.4416
v  -1.2092 1.5719 -0.6981
v  -2.8831 0.5236 -0.0000
v  -1.3962 1.5719 -0.0000
v  -2.4969 0.5236 1.4416
v  -1.2092 1.5719 0.6981
v  -1.4416 0.5236 2.4969
v  -0.6981 1.5719 1.2092
v  -0.0000 0.5236 2.8831
v  -0.0000 1.5719 1.3962
v  1.4416 0.5236 2.4969
v  0.6981 1.5719 1.2092
v  2.4969 0.5236 1.4416
v  1.2092 1.5719 0.6981
v  2.8831 0.5236 0.0000
v  1.3962 1.5719 0.0000
v  2.4969 0.5236 -1.4416
v  1.2092 1.5719 -0.6981
v  1.4416 0.5236 -2.4969
v  0.6981 1.5719 -1.2092
v  -1.8242 -1.3319 -3.1596
v  -0.0000 -1.3319 -3.6483
v  -3.1596 -1.3319 -1.8242
v  -3.6483 -1.3319 -0.0000
v  -3.1596 -1.3319 1.8242
v  -1.8242 -1.3319 3.1596
v  -0.0000 -1.3319 3.6483
v  1.8242 -1.3319 3.1596
v  3.1596 -1.3319 1.8242
v  3.6483 -1.3319 0.0000
v  3.1596 -1.3319 -1.8242
v  1.8242 -1.3319 -3.1596
v  -1.6724 -3.0953 -2.8967
v  -0.0000 -3.0953 -3.3448
v  -2.8967 -3.0953 -1.6724
v  -3.3448 -3.0953 -0.0000
v  -2.8967 -3.0953 1.6724
v  -1.6724 -3.0953 2.8967
v  -0.0000 -3.0953 3.3448
v  1.6724 -3.0953 2.8967
v  2.8967 -3.0953 1.6724
v  3.3448 -3.0953 0.0000
v  2.8967 -3.0953 -1.6724
v  1.6724 -3.0953 -2.8967
v  -1.1318 -4.4395 -1.9604
v  -0.0000 -4.4449 -2.2547
v  -1.9527 -4.4449 -1.1274
v  -2.2647 -4.4388 -0.0014
v  -1.9622 -4.4381 1.1329
v  -1.1329 -4.4381 1.9622
v  -0.0000 -4.4381 2.2657
v  1.1335 -4.4388 1.9606
v  1.9527 -4.4449 1.1274
v  2.2647 -4.4388 0.0014
v  1.9622 -4.4381 -1.1329
v  1.1311 -4.4388 -1.9619
v  -0.7073 4.9447 -1.2250
v  -0.0000 4.9447 -1.4145
v  -1.2250 4.9447 -0.7073
v  -1.4145 4.9447 -0.0000
v  -1.2250 4.9447 0.7073
v  -0.7073 4.9447 1.2250
v  -0.0000 4.9447 1.4145
v  0.7073 4.9447 1.2250
v  1.2250 4.9447 0.7073
v  1.4145 4.9447 0.0000
v  1.2250 4.9447 -0.7073
v  0.7073 4.9447 -1.2250
v  0.0000 -4.9447 -0.0008
v  -0.0000 1.5024 -1.2735
v  -0.6368 1.5024 -1.1029
v  -1.3852 0.4388 -2.3993
v  -0.0000 0.4388 -2.7704
v  -1.1029 1.5024 -0.6368
v  -2.3993 0.4388 -1.3852
v  -1.2735 1.5024 -0.0000
v  -2.7704 0.4388 -0.0000
v  -1.1029 1.5024 0.6368
v  -2.3993 0.4388 1.3852
v  -0.6368 1.5024 1.1029
v  -1.3852 0.4388 2.3993
v  -0.0000 1.5024 1.2735
v  -0.0000 0.4388 2.7704
v  0.6368 1.5024 1.1029
v  1.3852 0.4388 2.3993
v  1.1029 1.5024 0.6368
v  2.3993 0.4388 1.3852
v  1.2735 1.5024 0.0000
v  2.7704 0.4388 0.0000
v  1.1029 1.5024 -0.6368
v  2.3993 0.4388 -1.3852
v  0.6368 1.5024 -1.1029
v  1.3852 0.4388 -2.3993
v  -1.7540 -1.3468 -3.0381
v  -0.0000 -1.3468 -3.5081
v  -3.0381 -1.3468 -1.7540
v  -3.5081 -1.3468 -0.0000
v  -3.0381 -1.3468 1.7540
v  -1.7540 -1.3468 3.0381
v  -0.0000 -1.3468 3.5081
v  1.7540 -1.3468 3.0381
v  3.0381 -1.3468 1.7540
v  3.5081 -1.3468 0.0000
v  3.0381 -1.3468 -1.7540
v  1.7541 -1.3468 -3.0381
v  -1.6077 -3.0394 -2.7846
v  -0.0000 -3.0394 -3.2154
v  -2.7846 -3.0394 -1.6077
v  -3.2154 -3.0394 -0.0000
v  -2.7846 -3.0394 1.6077
v  -1.6077 -3.0394 2.7846
v  -0.0000 -3.0394 3.2154
v  1.6077 -3.0394 2.7846
v  2.7846 -3.0394 1.6077
v  3.2154 -3.0394 0.0000
v  2.7846 -3.0394 -1.6077
v  1.6077 -3.0394 -2.7846
v  -1.0930 -4.3218 -1.8931
v  -0.0000 -4.3218 -2.1860
v  -1.8931 -4.3218 -1.0930
v  -2.1860 -4.3218 -0.0000
v  -1.8931 -4.3218 1.0930
v  -1.0930 -4.3218 1.8931
v  -0.0000 -4.3218 2.1860
v  1.0930 -4.3218 1.8931
v  1.8931 -4.3218 1.0930
v  2.1860 -4.3218 0.0000
v  1.8931 -4.3218 -1.0930
v  1.0930 -4.3218 -1.8931
v  -0.6368 4.9447 -1.1029
v  -0.0000 4.9447 -1.2735
v  -1.1029 4.9447 -0.6368
v  -1.2735 4.9447 -0.0000
v  -1.1029 4.9447 0.6368
v  -0.6368 4.9447 1.1029
v  -0.0000 4.9447 1.2735
v  0.6368 4.9447 1.1029
v  1.1029 4.9447 0.6368
v  1.2735 4.9447 0.0000
v  1.1029 4.9447 -0.6368
v  0.6368 4.9447 -1.1029
v  0.0000 -4.8037 0.0000
# 146 vertices

vn -0.3991 0.6025 -0.6912
vn -0.4353 0.4921 -0.7539
vn 0.0000 0.4921 -0.8705
vn 0.0000 0.6025 -0.7981
vn -0.6912 0.6025 -0.3991
vn -0.7539 0.4921 -0.4353
vn -0.7981 0.6025 -0.0000
vn -0.8705 0.4921 -0.0000
vn -0.6912 0.6025 0.3991
vn -0.7539 0.4921 0.4353
vn -0.3991 0.6025 0.6912
vn -0.4353 0.4921 0.7539
vn -0.0000 0.6025 0.7981
vn -0.0000 0.4921 0.8705
vn 0.3991 0.6025 0.6912
vn 0.4353 0.4921 0.7539
vn 0.6912 0.6025 0.3991
vn 0.7539 0.4921 0.4353
vn 0.7981 0.6025 0.0000
vn 0.8705 0.4921 0.0000
vn 0.6912 0.6025 -0.3991
vn 0.7539 0.4921 -0.4353
vn 0.3991 0.6025 -0.6912
vn 0.4353 0.4921 -0.7539
vn -0.4972 0.1054 -0.8612
vn 0.0000 0.1054 -0.9944
vn -0.8612 0.1054 -0.4972
vn -0.9944 0.1054 -0.0000
vn -0.8612 0.1054 0.4972
vn -0.4972 0.1054 0.8612
vn -0.0000 0.1054 0.9944
vn 0.4972 0.1054 0.8612
vn 0.8612 0.1054 0.4972
vn 0.9944 0.1054 0.0000
vn 0.8612 0.1054 -0.4972
vn 0.4972 0.1054 -0.8612
vn -0.4590 -0.3966 -0.7950
vn 0.0000 -0.3974 -0.9176
vn -0.7947 -0.3974 -0.4588
vn -0.9180 -0.3965 0.0000
vn -0.7951 -0.3964 0.4590
vn -0.4590 -0.3964 0.7951
vn -0.0000 -0.3964 0.9181
vn 0.4590 -0.3965 0.7951
vn 0.7947 -0.3974 0.4588
vn 0.9180 -0.3965 -0.0000
vn 0.7951 -0.3964 -0.4590
vn 0.4591 -0.3965 -0.7950
vn -0.2835 -0.8237 -0.4911
vn -0.0001 -0.8792 -0.4765
vn -0.4126 -0.8792 -0.2383
vn -0.5665 -0.8241 -0.0008
vn -0.4223 -0.8730 0.2438
vn -0.2830 -0.8245 0.4901
vn 0.0001 -0.8730 0.4876
vn 0.2839 -0.8241 0.4902
vn 0.4121 -0.8795 0.2379
vn 0.5665 -0.8241 0.0008
vn 0.4228 -0.8727 -0.2441
vn 0.2826 -0.8241 -0.4910
vn -0.3794 0.6512 -0.6572
vn 0.0000 0.6512 -0.7589
vn -0.6572 0.6512 -0.3794
vn -0.7589 0.6512 0.0000
vn -0.6572 0.6512 0.3794
vn -0.3794 0.6512 0.6572
vn -0.0000 0.6512 0.7589
vn 0.3794 0.6512 0.6572
vn 0.6572 0.6512 0.3794
vn 0.7589 0.6512 0.0000
vn 0.6572 0.6512 -0.3794
vn 0.3794 0.6512 -0.6572
vn 0.0000 -1.0000 0.0000
vn -0.0000 -0.4926 0.8702
vn 0.4351 -0.4926 0.7536
vn 0.3995 -0.6014 0.6919
vn -0.0000 -0.6014 0.7989
vn 0.7537 -0.4926 0.4351
vn 0.6919 -0.6014 0.3995
vn 0.8703 -0.4926 0.0000
vn 0.7989 -0.6014 0.0000
vn 0.7537 -0.4926 -0.4351
vn 0.6919 -0.6014 -0.3995
vn 0.4351 -0.4926 -0.7536
vn 0.3995 -0.6014 -0.6919
vn 0.0000 -0.4926 -0.8703
vn 0.0000 -0.6014 -0.7989
vn -0.4351 -0.4926 -0.7537
vn -0.3995 -0.6014 -0.6919
vn -0.7537 -0.4926 -0.4351
vn -0.6919 -0.6014 -0.3995
vn -0.8702 -0.4926 -0.0000
vn -0.7989 -0.6014 -0.0000
vn -0.7536 -0.4926 0.4351
vn -0.6919 -0.6014 0.3995
vn -0.4351 -0.4926 0.7537
vn -0.3995 -0.6014 0.6919
vn 0.4972 -0.1053 0.8612
vn -0.0000 -0.1053 0.9944
vn 0.8612 -0.1053 0.4972
vn 0.9944 -0.1053 0.0000
vn 0.8612 -0.1053 -0.4972
vn 0.4972 -0.1053 -0.8612
vn 0.0000 -0.1053 -0.9944
vn -0.4972 -0.1053 -0.8612
vn -0.8612 -0.1053 -0.4972
vn -0.9944 -0.1053 -0.0000
vn -0.8612 -0.1053 0.4972
vn -0.4972 -0.1053 0.8612
vn 0.4590 0.3965 0.7950
vn -0.0000 0.3965 0.9180
vn 0.7950 0.3965 0.4590
vn 0.9180 0.3965 0.0000
vn 0.7950 0.3965 -0.4590
vn 0.4590 0.3965 -0.7950
vn 0.0000 0.3965 -0.9180
vn -0.4590 0.3965 -0.7950
vn -0.7950 0.3965 -0.4590
vn -0.9180 0.3965 -0.0000
vn -0.7950 0.3965 0.4590
vn -0.4590 0.3965 0.7950
vn 0.2826 0.8250 0.4894
vn -0.0000 0.8732 0.4873
vn 0.4220 0.8732 0.2437
vn 0.5651 0.8250 0.0000
vn 0.4220 0.8732 -0.2437
vn 0.2826 0.8250 -0.4894
vn 0.0000 0.8732 -0.4873
vn -0.2826 0.8250 -0.4894
vn -0.4220 0.8732 -0.2437
vn -0.5651 0.8250 -0.0000
vn -0.4220 0.8732 0.2437
vn -0.2826 0.8250 0.4894
vn 0.3188 0.7703 0.5523
vn -0.0000 0.7703 0.6377
vn 0.5522 0.7703 0.3188
vn 0.6376 0.7703 -0.0000
vn 0.5522 0.7703 -0.3188
vn 0.3188 0.7703 -0.5522
vn -0.0000 0.7703 -0.6377
vn -0.3189 0.7703 -0.5523
vn -0.5523 0.7703 -0.3189
vn -0.6377 0.7703 -0.0000
vn -0.5523 0.7703 0.3188
vn -0.3188 0.7703 0.5523
vn -0.0000 1.0000 -0.0000
# 146 vertex normals

vt 0.7373 0.2293 0.0000
vt 0.6438 0.2050 0.0000
vt 0.6566 0.1631 0.0000
vt 0.7487 0.1778 0.0000
vt 0.7207 0.2860 0.0000
vt 0.6281 0.2458 0.0000
vt 0.6895 0.3564 0.0000
vt 0.6089 0.2830 0.0000
vt 0.2726 0.3137 -1.3289
vt 0.1940 0.3555 -1.3289
vt 0.1787 0.3177 -1.3289
vt 0.2435 0.2581 -1.3289
vt 0.2902 0.3654 -1.3289
vt 0.2047 0.3966 -1.3289
vt 0.3029 0.4155 -1.3289
vt 0.2125 0.4393 -1.3289
vt 0.3133 0.4674 -1.3289
vt 0.2177 0.4830 -1.3289
vt 0.3211 0.5261 -1.3289
vt 0.2198 0.5267 -1.3289
vt 0.3212 0.6032 -1.3289
vt 0.2172 0.5687 -1.3289
vt 0.7619 0.0724 0.0000
vt 0.6733 0.0791 0.0000
vt 0.6745 0.0385 0.0000
vt 0.7575 0.0100 0.0000
vt 0.7572 0.1269 0.0000
vt 0.6667 0.1210 0.0000
vt 0.8029 0.2430 0.0000
vt 0.8103 0.1899 0.0000
vt 0.7976 0.3049 0.0000
vt 0.7937 0.3887 0.0000
vt 0.3412 0.2922 -1.3289
vt 0.3259 0.2152 -1.3289
vt 0.3524 0.3503 -1.3289
vt 0.3640 0.4017 -1.3289
vt 0.3789 0.4535 -1.3289
vt 0.3992 0.5121 -1.3289
vt 0.4297 0.5902 -1.3289
vt 0.8333 0.0802 0.0000
vt 0.8499 0.0035 0.0000
vt 0.8203 0.1380 0.0000
vt 0.8547 0.2471 0.0000
vt 0.8583 0.1992 0.0000
vt 0.8604 0.3032 0.0000
vt 0.8807 0.3708 0.0000
vt 0.4019 0.2901 -1.3289
vt 0.4157 0.2139 -1.3289
vt 0.4033 0.3442 -1.3289
vt 0.4113 0.3907 -1.3289
vt 0.4281 0.4364 -1.3289
vt 0.4557 0.4849 -1.3289
vt 0.5017 0.5381 -1.3289
vt 0.8897 0.1025 0.0000
vt 0.9327 0.0380 0.0000
vt 0.8695 0.1528 0.0000
vt 0.9090 0.2429 0.0000
vt 0.9055 0.2064 0.0000
vt 0.9171 0.2836 0.0000
vt 0.9492 0.3228 0.0000
vt 0.4612 0.3011 -1.3289
vt 0.4888 0.2607 -1.3289
vt 0.4574 0.3427 -1.3289
vt 0.4575 0.3794 -1.3289
vt 0.4751 0.4104 -1.3289
vt 0.4990 0.4441 -1.3289
vt 0.5440 0.4666 -1.3289
vt 0.9398 0.1360 0.0000
vt 0.9813 0.1099 0.0000
vt 0.9198 0.1727 0.0000
vt 0.4581 0.1458 0.0000
vt 0.4695 0.1095 0.0000
vt 0.4456 0.1822 0.0000
vt 0.4320 0.2206 1.1801
vt 0.0077 0.3910 -1.3289
vt 0.0005 0.3543 1.3289
vt 0.0139 0.4281 -1.3289
vt 0.0191 0.4657 -1.3289
vt 0.0232 0.5037 -1.3289
vt 0.0265 0.5422 -1.3289
vt 0.0295 0.5829 -1.3289
vt 0.4891 0.0368 0.0000
vt 0.4973 0.0005 0.0000
vt 0.4799 0.0732 0.0000
vt 0.9995 0.2209 -1.1801
vt 0.5486 0.3546 -0.9506
vt 0.2392 0.8215 0.0000
vt 0.2277 0.7842 0.0000
vt 0.3197 0.7599 0.0000
vt 0.3302 0.8069 0.0000
vt 0.2142 0.7481 0.0000
vt 0.3043 0.7081 0.0000
vt 0.1979 0.7153 0.0000
vt 0.2751 0.6429 0.0000
vt 0.6272 0.7390 0.0000
vt 0.6541 0.7129 0.0000
vt 0.7047 0.7843 0.0000
vt 0.6590 0.8182 0.0000
vt 0.6785 0.6840 0.0000
vt 0.7400 0.7494 0.0000
vt 0.7015 0.6528 0.0000
vt 0.7707 0.7139 0.0000
vt 0.7231 0.6203 0.0000
vt 0.8002 0.6758 0.0000
vt 0.7423 0.5869 0.0000
vt 0.8305 0.6310 0.0000
vt 0.7574 0.5534 0.0000
vt 0.8624 0.5671 0.0000
vt 0.2585 0.9337 0.0000
vt 0.2554 0.8964 0.0000
vt 0.3428 0.9026 0.0000
vt 0.3399 0.9594 0.0000
vt 0.2486 0.8591 0.0000
vt 0.3382 0.8532 0.0000
vt 0.3796 0.7473 0.0000
vt 0.3863 0.7958 0.0000
vt 0.3750 0.6910 0.0000
vt 0.3722 0.6122 0.0000
vt 0.7516 0.8296 0.0000
vt 0.7090 0.8846 0.0000
vt 0.7845 0.7871 0.0000
vt 0.8148 0.7501 0.0000
vt 0.8481 0.7141 0.0000
vt 0.8887 0.6748 0.0000
vt 0.9478 0.6226 0.0000
vt 0.4076 0.8951 0.0000
vt 0.4230 0.9629 0.0000
vt 0.3956 0.8428 0.0000
vt 0.4268 0.7435 0.0000
vt 0.4295 0.7876 0.0000
vt 0.4321 0.6938 0.0000
vt 0.4541 0.6299 0.0000
vt 0.7995 0.8569 0.0000
vt 0.7789 0.9197 0.0000
vt 0.8232 0.8128 0.0000
vt 0.8487 0.7783 0.0000
vt 0.8810 0.7482 0.0000
vt 0.9227 0.7207 0.0000
vt 0.9861 0.6970 0.0000
vt 0.4591 0.8755 0.0000
vt 0.4944 0.9313 0.0000
vt 0.4400 0.8292 0.0000
vt 0.4750 0.7476 0.0000
vt 0.4718 0.7799 0.0000
vt 0.4827 0.7105 0.0000
vt 0.5113 0.6778 0.0000
vt 0.8520 0.8705 0.0000
vt 0.8572 0.9174 0.0000
vt 0.8663 0.8357 0.0000
vt 0.8814 0.8060 0.0000
vt 0.9084 0.7880 0.0000
vt 0.9420 0.7704 0.0000
vt 0.9854 0.7717 0.0000
vt 0.5029 0.8436 0.0000
vt 0.5424 0.8694 0.0000
vt 0.4851 0.8104 0.0000
vt 0.0224 0.8426 0.0000
vt 0.0320 0.8803 0.0000
vt 0.0146 0.8048 0.0000
vt 0.0122 0.7672 1.2394
vt 0.4822 0.5958 0.0000
vt 0.4681 0.6302 0.0000
vt 0.5025 0.5623 0.0000
vt 0.5246 0.5302 0.0000
vt 0.5476 0.4988 0.0000
vt 0.5718 0.4688 0.0000
vt 0.5994 0.4430 0.0000
vt 0.0558 0.9548 0.0000
vt 0.0734 0.9875 0.0000
vt 0.0428 0.9178 0.0000
vt 0.5566 0.7672 -1.2394
vt 0.9452 0.8635 -1.1122
vt 0.0248 0.8821 0.0000
vt 0.0150 0.8441 0.0000
vt 0.0072 0.8056 0.0000
vt 0.0052 0.7657 0.0000
vt 0.4604 0.6293 0.0000
vt 0.4753 0.5922 1.1122
vt 0.4962 0.5581 0.0000
vt 0.5186 0.5257 0.0000
vt 0.5417 0.4941 0.0000
vt 0.5665 0.4635 0.0000
vt 0.5961 0.4367 0.0000
vt 0.0678 0.9928 0.0000
vt 0.0486 0.9578 0.0000
vt 0.0356 0.9199 0.0000
# 186 texture coords

o Boiling_Flask
g Boiling_Flask
usemtl wire_115115115
s 1
f 1/1/1 2/2/2 3/3/3 4/4/4 
f 5/5/5 6/6/6 2/2/2 1/1/1 
f 7/7/7 8/8/8 6/6/6 5/5/5 
f 9/9/9 10/10/10 8/11/8 7/12/7 
f 11/13/11 12/14/12 10/10/10 9/9/9 
f 13/15/13 14/16/14 12/14/12 11/13/11 
f 15/17/15 16/18/16 14/16/14 13/15/13 
f 17/19/17 18/20/18 16/18/16 15/17/15 
f 19/21/19 20/22/20 18/20/18 17/19/17 
f 21/23/21 22/24/22 20/25/20 19/26/19 
f 23/27/23 24/28/24 22/24/22 21/23/21 
f 4/4/4 3/3/3 24/28/24 23/27/23 
f 25/29/25 1/1/1 4/4/4 26/30/26 
f 27/31/27 5/5/5 1/1/1 25/29/25 
f 28/32/28 7/7/7 5/5/5 27/31/27 
f 29/33/29 9/9/9 7/12/7 28/34/28 
f 30/35/30 11/13/11 9/9/9 29/33/29 
f 31/36/31 13/15/13 11/13/11 30/35/30 
f 32/37/32 15/17/15 13/15/13 31/36/31 
f 33/38/33 17/19/17 15/17/15 32/37/32 
f 34/39/34 19/21/19 17/19/17 33/38/33 
f 35/40/35 21/23/21 19/26/19 34/41/34 
f 36/42/36 23/27/23 21/23/21 35/40/35 
f 26/30/26 4/4/4 23/27/23 36/42/36 
f 37/43/37 25/29/25 26/30/26 38/44/38 
f 39/45/39 27/31/27 25/29/25 37/43/37 
f 40/46/40 28/32/28 27/31/27 39/45/39 
f 41/47/41 29/33/29 28/34/28 40/48/40 
f 42/49/42 30/35/30 29/33/29 41/47/41 
f 43/50/43 31/36/31 30/35/30 42/49/42 
f 44/51/44 32/37/32 31/36/31 43/50/43 
f 45/52/45 33/38/33 32/37/32 44/51/44 
f 46/53/46 34/39/34 33/38/33 45/52/45 
f 47/54/47 35/40/35 34/41/34 46/55/46 
f 48/56/48 36/42/36 35/40/35 47/54/47 
f 38/44/38 26/30/26 36/42/36 48/56/48 
f 49/57/49 37/43/37 38/44/38 50/58/50 
f 51/59/51 39/45/39 37/43/37 49/57/49 
f 52/60/52 40/46/40 39/45/39 51/59/51 
f 53/61/53 41/47/41 40/48/40 52/62/52 
f 54/63/54 42/49/42 41/47/41 53/61/53 
f 55/64/55 43/50/43 42/49/42 54/63/54 
f 56/65/56 44/51/44 43/50/43 55/64/55 
f 57/66/57 45/52/45 44/51/44 56/65/56 
f 58/67/58 46/53/46 45/52/45 57/66/57 
f 59/68/59 47/54/47 46/55/46 58/69/58 
f 60/70/60 48/56/48 47/54/47 59/68/59 
f 50/58/50 38/44/38 48/56/48 60/70/60 
s off
f 3/3/3 2/2/2 61/71/61 62/72/62 
f 2/2/2 6/6/6 63/73/63 61/71/61 
f 6/6/6 8/8/8 64/74/64 63/73/63 
f 8/11/8 10/10/10 65/75/65 64/76/64 
f 10/10/10 12/14/12 66/77/66 65/75/65 
f 12/14/12 14/16/14 67/78/67 66/77/66 
f 14/16/14 16/18/16 68/79/68 67/78/67 
f 16/18/16 18/20/18 69/80/69 68/79/68 
f 18/20/18 20/22/20 70/81/70 69/80/69 
f 20/25/20 22/24/22 71/82/71 70/83/70 
f 22/24/22 24/28/24 72/84/72 71/82/71 
f 24/28/24 3/3/3 62/72/62 72/84/72 
f 60/70/60 73/85/73 49/57/49 50/58/50 
f 53/61/53 52/62/52 73/86/73 54/63/54 
f 59/68/59 58/69/58 73/85/73 60/70/60 
f 58/67/58 57/66/57 56/65/56 73/86/73 
f 55/64/55 54/63/54 73/86/73 56/65/56 
f 52/60/52 51/59/51 49/57/49 73/85/73 
s 1
f 74/87/74 75/88/75 76/89/76 77/90/77 
f 75/88/75 78/91/78 79/92/79 76/89/76 
f 78/91/78 80/93/80 81/94/81 79/92/79 
f 80/95/80 82/96/82 83/97/83 81/98/81 
f 82/96/82 84/99/84 85/100/85 83/97/83 
f 84/99/84 86/101/86 87/102/87 85/100/85 
f 86/101/86 88/103/88 89/104/89 87/102/87 
f 88/103/88 90/105/90 91/106/91 89/104/89 
f 90/105/90 92/107/92 93/108/93 91/106/91 
f 92/109/92 94/110/94 95/111/95 93/112/93 
f 94/110/94 96/113/96 97/114/97 95/111/95 
f 96/113/96 74/87/74 77/90/77 97/114/97 
f 77/90/77 76/89/76 98/115/98 99/116/99 
f 76/89/76 79/92/79 100/117/100 98/115/98 
f 79/92/79 81/94/81 101/118/101 100/117/100 
f 81/98/81 83/97/83 102/119/102 101/120/101 
f 83/97/83 85/100/85 103/121/103 102/119/102 
f 85/100/85 87/102/87 104/122/104 103/121/103 
f 87/102/87 89/104/89 105/123/105 104/122/104 
f 89/104/89 91/106/91 106/124/106 105/123/105 
f 91/106/91 93/108/93 107/125/107 106/124/106 
f 93/112/93 95/111/95 108/126/108 107/127/107 
f 95/111/95 97/114/97 109/128/109 108/126/108 
f 97/114/97 77/90/77 99/116/99 109/128/109 
f 99/116/99 98/115/98 110/129/110 111/130/111 
f 98/115/98 100/117/100 112/131/112 110/129/110 
f 100/117/100 101/118/101 113/132/113 112/131/112 
f 101/120/101 102/119/102 114/133/114 113/134/113 
f 102/119/102 103/121/103 115/135/115 114/133/114 
f 103/121/103 104/122/104 116/136/116 115/135/115 
f 104/122/104 105/123/105 117/137/117 116/136/116 
f 105/123/105 106/124/106 118/138/118 117/137/117 
f 106/124/106 107/125/107 119/139/119 118/138/118 
f 107/127/107 108/126/108 120/140/120 119/141/119 
f 108/126/108 109/128/109 121/142/121 120/140/120 
f 109/128/109 99/116/99 111/130/111 121/142/121 
f 111/130/111 110/129/110 122/143/122 123/144/123 
f 110/129/110 112/131/112 124/145/124 122/143/122 
f 112/131/112 113/132/113 125/146/125 124/145/124 
f 113/134/113 114/133/114 126/147/126 125/148/125 
f 114/133/114 115/135/115 127/149/127 126/147/126 
f 115/135/115 116/136/116 128/150/128 127/149/127 
f 116/136/116 117/137/117 129/151/129 128/150/128 
f 117/137/117 118/138/118 130/152/130 129/151/129 
f 118/138/118 119/139/119 131/153/131 130/152/130 
f 119/141/119 120/140/120 132/154/132 131/155/131 
f 120/140/120 121/142/121 133/156/133 132/154/132 
f 121/142/121 111/130/111 123/144/123 133/156/133 
s off
f 134/157/134 75/88/75 74/87/74 135/158/135 
f 136/159/136 78/91/78 75/88/75 134/157/134 
f 137/160/137 80/93/80 78/91/78 136/159/136 
f 138/161/138 82/96/82 80/95/80 137/162/137 
f 139/163/139 84/99/84 82/96/82 138/161/138 
f 140/164/140 86/101/86 84/99/84 139/163/139 
f 141/165/141 88/103/88 86/101/86 140/164/140 
f 142/166/142 90/105/90 88/103/88 141/165/141 
f 143/167/143 92/107/92 90/105/90 142/166/142 
f 144/168/144 94/110/94 92/109/92 143/169/143 
f 145/170/145 96/113/96 94/110/94 144/168/144 
f 135/158/135 74/87/74 96/113/96 145/170/145 
f 122/143/122 146/171/146 133/156/133 123/144/123 
f 146/172/146 125/148/125 126/147/126 127/149/127 
f 146/171/146 131/155/131 132/154/132 133/156/133 
f 129/151/129 130/152/130 131/153/131 146/172/146 
f 146/172/146 127/149/127 128/150/128 129/151/129 
f 122/143/122 124/145/124 125/146/125 146/171/146 
s 1
f 62/173/62 61/174/61 134/157/134 135/158/135 
f 61/174/61 63/175/63 136/159/136 134/157/134 
f 63/175/63 64/176/64 137/160/137 136/159/136 
f 64/177/64 65/178/65 138/161/138 137/162/137 
f 65/178/65 66/179/66 139/163/139 138/161/138 
f 66/179/66 67/180/67 140/164/140 139/163/139 
f 67/180/67 68/181/68 141/165/141 140/164/140 
f 68/181/68 69/182/69 142/166/142 141/165/141 
f 69/182/69 70/183/70 143/167/143 142/166/142 
f 70/184/70 71/185/71 144/168/144 143/169/143 
f 71/185/71 72/186/72 145/170/145 144/168/144 
f 72/186/72 62/173/62 135/158/135 145/170/145 
# 144 polygons

